<?xml version="1.0" encoding="UTF-8" standalone="no"?>
<svg
   xmlns:dc="http://purl.org/dc/elements/1.1/"
   xmlns:cc="http://creativecommons.org/ns#"
   xmlns:rdf="http://www.w3.org/1999/02/22-rdf-syntax-ns#"
   xmlns:svg="http://www.w3.org/2000/svg"
   xmlns="http://www.w3.org/2000/svg"
   xmlns:sodipodi="http://sodipodi.sourceforge.net/DTD/sodipodi-0.dtd"
   xmlns:inkscape="http://www.inkscape.org/namespaces/inkscape"
   width="800"
   height="600"
   viewBox="0 0 211.66666 158.75"
   version="1.1"
   id="svg8"
   inkscape:version="1.0 (4035a4fb49, 2020-05-01)"
   sodipodi:docname="bass_screen.svg">
  <defs
     id="defs2" />
  <sodipodi:namedview
     id="base"
     pagecolor="#ffffff"
     bordercolor="#666666"
     borderopacity="1.0"
     inkscape:pageopacity="0.0"
     inkscape:pageshadow="2"
     inkscape:zoom="0.5"
     inkscape:cx="-160.56611"
     inkscape:cy="325.51093"
     inkscape:document-units="px"
     inkscape:current-layer="layer1"
     inkscape:document-rotation="0"
     showgrid="false"
     units="px"
     showguides="true"
     inkscape:guide-bbox="true"
     inkscape:window-width="1920"
     inkscape:window-height="1017"
     inkscape:window-x="1912"
     inkscape:window-y="-8"
     inkscape:window-maximized="1">
    <sodipodi:guide
       position="105.83333,79.374999"
       orientation="0,1"
       id="guide1537"
       inkscape:label="50%"
       inkscape:locked="false"
       inkscape:color="rgb(204,0,0)" />
    <sodipodi:guide
       position="105.83333,79.375"
       orientation="-1,0"
       id="guide1541"
       inkscape:label="50%"
       inkscape:locked="false"
       inkscape:color="rgb(204,0,0)" />
    <sodipodi:guide
       position="70.555554,105.83333"
       orientation="-1,0"
       id="guide1543"
       inkscape:label=""
       inkscape:locked="false"
       inkscape:color="rgb(0,0,255)" />
    <sodipodi:guide
       position="141.11111,52.916666"
       orientation="-1,0"
       id="guide1547"
       inkscape:label=""
       inkscape:locked="false"
       inkscape:color="rgb(0,0,255)" />
    <sodipodi:guide
       position="70.555554,105.83333"
       orientation="0,1"
       id="guide1549"
       inkscape:label=""
       inkscape:locked="false"
       inkscape:color="rgb(0,0,255)" />
    <sodipodi:guide
       position="141.11111,52.916666"
       orientation="0,1"
       id="guide1551"
       inkscape:label=""
       inkscape:locked="false"
       inkscape:color="rgb(0,0,255)" />
  </sodipodi:namedview>
  <metadata
     id="metadata5">
    <rdf:RDF>
      <cc:Work
         rdf:about="">
        <dc:format>image/svg+xml</dc:format>
        <dc:type
           rdf:resource="http://purl.org/dc/dcmitype/StillImage" />
        <dc:title></dc:title>
      </cc:Work>
    </rdf:RDF>
  </metadata>
  <g
     inkscape:label="Layer 1"
     inkscape:groupmode="layer"
     id="layer1">
    <g
       transform="matrix(0.15239404,0.15239404,-0.15239404,0.15239404,148.9474,-42.077423)"
       id="layer1-5">
      <g
         transform="matrix(2.411,0,0,2.411,-1030.5,-516.05)"
         id="g12915">
        <path
           fill="#060c08"
           stroke-width="1px"
           stroke="#000000"
           fill-rule="evenodd"
           d="m 519.34,474.81 c -2.35,1.77 -4.71,1.49 -7.07,0.25 -3.59,-5.23 -2.45,-12.69 -4.29,-18.94 -2.26,-7.7 -8.49,-7.34 -12,-4.17 -9.02,8.17 -5.18,19.72 -5.3,29.68 0.96,12.64 10.5,21.39 3.54,34.59 -4.76,9.02 -11.4,18.75 -13.45,28.58 -2.68,16.44 5.4,31.98 19.26,40.37 13.39,6.01 28.24,8.29 45.7,9.09 17.15,0.78 27.08,-5.55 29.55,-17.17 1.35,-6.32 0.93,-12.9 -4.04,-22.23 -2.98,-5.59 -7.36,-10.08 -9.34,-16.92 -1.03,-3.53 -3.2,-4.2 1.77,-16.16 5.11,-12.33 5.93,-22.86 5.05,-33.34 -0.47,-5.49 -3.8,-10.63 -9.6,-12.87 -1.86,-0.73 -4.19,0.8 -4.55,2.52 -1.2,5.82 -2.19,11.34 -7.07,14.4 -3.84,1.79 -6.84,0.63 -9.34,-2.28 z"
           id="path10963" />
        <path
           fill="#7d827f"
           stroke-width="1px"
           stroke="#000000"
           fill-rule="evenodd"
           d="m 515.3,572.92 c 0.17,-1.21 -0.67,-2.83 2.66,-2.78 h 17.29 c 2.13,-0.14 3.33,0.53 3.1,3.09 v 8.65 c 0.14,3.07 -2.08,1.93 -3.82,2.21 h -15.31 c -3.02,0.06 -3.75,-0.9 -3.76,-2.17 z"
           id="path11938" />
        <path
           fill="#2c3022"
           stroke-width="1px"
           stroke="#000000"
           fill-rule="evenodd"
           d="m 541.19,547.41 c 4.28,3.4 9.27,9.62 13.76,16.04 2.76,4.47 5.83,8.23 9.6,10.35 4.01,1.48 5.42,-0.51 6.44,-3.03 0.25,-5.02 -2.33,-9.1 -3.92,-13.51 -3.81,-5.77 -7.17,-11.69 -9.97,-17.8 -14.74,-5.67 -13.25,3.76 -15.91,7.95 z"
           id="path11936" />
        <path
           fill="#3e060f"
           stroke-width="0.2"
           stroke="#fcfcfc"
           fill-rule="evenodd"
           d="m 560.13,482.89 c -4.25,2.36 -2.9,14.39 -10.48,16.79 -3.8,1.2 -8.54,0.5 -11.36,-2.14 -8.38,-4.89 -16.46,-19.04 -25.13,-14.65 -4.86,2.46 3.22,14.13 1.77,20.58 -2.08,9.25 -9.31,17.68 -9.73,26.52 -0.25,5.48 2.08,10.78 10.74,11.74 6.83,0.76 10.72,0.61 24.37,5.81 l 16.41,-10.48 c -0.76,-4.38 1.02,-8.76 2.15,-13.13 3.6,-7.87 5.66,-15.75 6.56,-23.62 -0.06,-7.42 -1.19,-19.71 -5.3,-17.42 z"
           id="path10965" />
        <rect
           fill="#08110e"
           stroke-width="0.2"
           x="515.29999"
           y="551.96002"
           stroke-linecap="round"
           stroke="#000000"
           width="23.990999"
           height="6.3134999"
           ry="3.1566999"
           rx="0.75761002"
           fill-rule="evenodd"
           id="rect12911" />
        <rect
           fill="#08110e"
           stroke-width="0.2"
           x="515.29999"
           y="527.21002"
           stroke-linecap="round"
           stroke="#000000"
           width="23.990999"
           height="6.3134999"
           ry="3.1566999"
           rx="0.75761002"
           fill-rule="evenodd"
           id="rect11940" />
        <path
           fill="#999999"
           stroke-width="1.0938px"
           stroke="#000000"
           fill-rule="evenodd"
           d="m 514.91,315.14 -0.41,0.65 c 0,0 -4.81,1.89 -6.06,-0.25 -1.25,-2.13 -0.69,-7.33 1.06,-8.29 1.75,-0.96 5.94,4.44 5.94,4.44 l 0.23,1.13 2.54,0.86 -0.34,2.63 z"
           id="path10935" />
        <path
           fill="#999999"
           stroke-width="1.0938px"
           stroke="#000000"
           fill-rule="evenodd"
           d="m 518.44,301.38 -0.4,0.64 c 0,0 -4.81,1.89 -6.06,-0.24 -1.25,-2.13 -0.7,-7.33 1.05,-8.29 1.75,-0.97 5.95,4.43 5.95,4.43 l 0.23,1.14 2.53,0.85 -0.33,2.63 z"
           id="path10933" />
        <path
           fill="#999999"
           stroke-width="1.0938px"
           stroke="#000000"
           fill-rule="evenodd"
           d="m 521.72,287.24 -0.4,0.64 c 0,0 -4.81,1.89 -6.06,-0.24 -1.25,-2.14 -0.69,-7.33 1.06,-8.3 1.75,-0.96 5.94,4.44 5.94,4.44 l 0.23,1.13 2.53,0.86 -0.33,2.63 z"
           id="path10931" />
        <path
           fill="#999999"
           stroke-width="1.0938px"
           stroke="#000000"
           fill-rule="evenodd"
           d="m 525.05,274.87 -0.49,0.58 c 0,0 -5.02,1.22 -5.97,-1.06 -0.95,-2.29 0.31,-7.36 2.17,-8.08 1.87,-0.71 5.29,5.21 5.29,5.21 l 0.07,1.15 2.4,1.2 -0.69,2.55 z"
           id="path10062" />
        <path
           fill="#a5844f"
           stroke-width="1px"
           stroke="#000000"
           fill-rule="evenodd"
           d="m 525.53,328.71 c -3.34,-2.3 -8.87,-3.32 -8.96,-7.82 -0.28,-13.7 11.11,-47.23 11.11,-47.23 0.46,-5.92 3.33,-11.57 10.98,-10.35 10.44,1.66 9.29,9.47 7.45,15.28 -0.83,2.64 -2.66,5.02 -6.06,5.8 0.32,4.09 0.56,8.03 1.64,12.25 1.9,7.41 4.04,17.93 4.04,17.93 -4.57,3.3 -8.58,7.07 -8.83,14.02 z"
           id="path10961" />
        <path
           fill="#c87137"
           stroke-width="0.84006px"
           stroke="#000000"
           fill-rule="evenodd"
           d="m 524.72,330.58 -5.51,167.27 18.32,-0.09 0.24,-166.84 z"
           id="path10068" />
        <rect
           fill="#cccccc"
           stroke-width="0.19747"
           x="519.65997"
           y="497.31"
           stroke="#000000"
           width="18.389"
           height="0.66940999"
           transform="matrix(0.99999,-0.0048275,-6.0731e-4,1,0,0)"
           fill-rule="evenodd"
           ry="0.14565"
           id="rect10070" />
        <rect
           fill="#cccccc"
           stroke-width="0.19747"
           x="519.67999"
           y="494.01001"
           stroke="#000000"
           width="18.389"
           height="0.66940999"
           transform="matrix(0.99999,-0.0048275,-6.0731e-4,1,0,0)"
           fill-rule="evenodd"
           ry="0.14565"
           id="rect10080" />
        <rect
           fill="#cccccc"
           stroke-width="0.19617"
           x="519.75"
           y="490.13"
           stroke="#000000"
           width="18.108999"
           height="0.67084998"
           transform="matrix(0.99999,-0.0048275,-6.0731e-4,1,0,0)"
           fill-rule="evenodd"
           ry="0.14596"
           id="rect10082" />
        <rect
           fill="#cccccc"
           stroke-width="0.19747"
           x="519.59003"
           y="486.34"
           stroke="#000000"
           width="18.389"
           height="0.66940999"
           transform="matrix(0.99999,-0.0048275,-6.0731e-4,1,0,0)"
           fill-rule="evenodd"
           ry="0.14565"
           id="rect10084" />
        <rect
           fill="#cccccc"
           stroke-width="0.19747"
           x="519.71002"
           y="482.17001"
           stroke="#000000"
           width="18.389"
           height="0.66940999"
           transform="matrix(0.99999,-0.0048275,-6.0731e-4,1,0,0)"
           fill-rule="evenodd"
           ry="0.14565"
           id="rect10086" />
        <rect
           fill="#cccccc"
           stroke-width="0.19617"
           x="520.01001"
           y="477.16"
           stroke="#000000"
           width="18.108999"
           height="0.67084998"
           transform="matrix(0.99999,-0.0048275,-6.0731e-4,1,0,0)"
           fill-rule="evenodd"
           ry="0.14596"
           id="rect10088" />
        <rect
           fill="#cccccc"
           stroke-width="0.19552"
           x="520.45001"
           y="471.20999"
           stroke="#000000"
           width="17.969"
           height="0.67158002"
           transform="matrix(0.99999,-0.0048275,-6.0731e-4,1,0,0)"
           fill-rule="evenodd"
           ry="0.14612"
           id="rect10090" />
        <rect
           fill="#cccccc"
           stroke-width="0.19682"
           x="520.23999"
           y="466.32001"
           stroke="#000000"
           width="18.249001"
           height="0.67013001"
           transform="matrix(0.99999,-0.0048275,-6.0731e-4,1,0,0)"
           fill-rule="evenodd"
           ry="0.14580999"
           id="rect10092" />
        <rect
           fill="#cccccc"
           stroke-width="0.19486"
           x="520.5"
           y="460.44"
           stroke="#000000"
           width="17.83"
           height="0.67230999"
           transform="matrix(0.99999,-0.0048275,-6.0731e-4,1,0,0)"
           fill-rule="evenodd"
           ry="0.14628001"
           id="rect10094" />
        <rect
           fill="#cccccc"
           stroke-width="0.19486"
           x="520.65997"
           y="453.79001"
           stroke="#000000"
           width="17.83"
           height="0.67230999"
           transform="matrix(0.99999,-0.0048275,-6.0731e-4,1,0,0)"
           fill-rule="evenodd"
           ry="0.14628001"
           id="rect10096" />
        <rect
           fill="#cccccc"
           stroke-width="0.19354"
           x="520.79999"
           y="447.48001"
           stroke="#000000"
           width="17.549999"
           height="0.67378002"
           transform="matrix(0.99999,-0.0048275,-6.0731e-4,1,0,0)"
           fill-rule="evenodd"
           ry="0.14659999"
           id="rect10098" />
        <rect
           fill="#cccccc"
           stroke-width="0.18948"
           x="521.21997"
           y="439.98999"
           stroke="#000000"
           width="16.709999"
           height="0.67829001"
           transform="matrix(0.99999,-0.0048275,-6.0731e-4,1,0,0)"
           fill-rule="evenodd"
           ry="0.14758"
           id="rect10100" />
        <rect
           fill="#cccccc"
           stroke-width="0.19017"
           x="521.35999"
           y="433.45001"
           stroke="#000000"
           width="16.85"
           height="0.67751998"
           transform="matrix(0.99999,-0.0048275,-6.0731e-4,1,0,0)"
           fill-rule="evenodd"
           ry="0.14742"
           id="rect10102" />
        <rect
           fill="#cccccc"
           stroke-width="0.19153"
           x="521.34003"
           y="425.32001"
           stroke="#000000"
           width="17.129999"
           height="0.67601001"
           transform="matrix(0.99999,-0.0048275,-6.0731e-4,1,0,0)"
           fill-rule="evenodd"
           ry="0.14709"
           id="rect10104" />
        <rect
           fill="#cccccc"
           stroke-width="0.18096"
           x="523.78998"
           y="343.92001"
           stroke="#000000"
           width="15.031"
           height="0.68776"
           transform="matrix(0.99999,-0.0048275,-6.0731e-4,1,0,0)"
           fill-rule="evenodd"
           ry="0.14963999"
           id="rect10106" />
        <rect
           fill="#cccccc"
           stroke-width="0.42618"
           x="524.76001"
           y="331.48999"
           stroke="#000000"
           width="13.808"
           height="2.4430001"
           transform="matrix(0.99999,-0.0048275,-6.0731e-4,1,0,0)"
           fill-rule="evenodd"
           ry="0.15187"
           id="rect10108" />
        <rect
           fill="#cccccc"
           stroke-width="0.18529"
           x="522.85999"
           y="367.54001"
           stroke="#000000"
           width="15.871"
           height="0.68294001"
           transform="matrix(0.99999,-0.0048275,-6.0731e-4,1,0,0)"
           fill-rule="evenodd"
           ry="0.14859"
           id="rect10110" />
        <rect
           fill="#cccccc"
           stroke-width="0.18169"
           x="523.28003"
           y="355.89999"
           stroke="#000000"
           width="15.171"
           height="0.68694001"
           transform="matrix(0.99999,-0.0048275,-6.0731e-4,1,0,0)"
           fill-rule="evenodd"
           ry="0.14946"
           id="rect10112" />
        <rect
           fill="#cccccc"
           stroke-width="0.18387"
           x="523"
           y="378.64999"
           stroke="#000000"
           width="15.591"
           height="0.68453002"
           transform="matrix(0.99999,-0.0048275,-6.0731e-4,1,0,0)"
           fill-rule="evenodd"
           ry="0.14894"
           id="rect10114" />
        <rect
           fill="#cccccc"
           stroke-width="0.18529"
           x="522.71997"
           y="389.06"
           stroke="#000000"
           width="15.871"
           height="0.68294001"
           transform="matrix(0.99999,-0.0048275,-6.0731e-4,1,0,0)"
           fill-rule="evenodd"
           ry="0.14859"
           id="rect10116" />
        <rect
           fill="#cccccc"
           stroke-width="0.18387"
           x="522.57001"
           y="398.60999"
           stroke="#000000"
           width="15.591"
           height="0.68453002"
           transform="matrix(0.99999,-0.0048275,-6.0731e-4,1,0,0)"
           fill-rule="evenodd"
           ry="0.14894"
           id="rect10118" />
        <rect
           fill="#cccccc"
           stroke-width="0.18879"
           x="522.02002"
           y="408.39001"
           stroke="#000000"
           width="16.57"
           height="0.67905003"
           transform="matrix(0.99999,-0.0048275,-6.0731e-4,1,0,0)"
           fill-rule="evenodd"
           ry="0.14775001"
           id="rect10120" />
        <rect
           fill="#cccccc"
           stroke-width="0.18948"
           x="521.78003"
           y="416.87"
           stroke="#000000"
           width="16.709999"
           height="0.67829001"
           transform="matrix(0.99999,-0.0048275,-6.0731e-4,1,0,0)"
           fill-rule="evenodd"
           ry="0.14758"
           id="rect10122" />
        <path
           fill="none"
           stroke-width="0.43832"
           stroke="#555555"
           d="m 524.63,319.69 1.81,9.78 -7.15,246.12"
           id="path10144" />
        <path
           fill="none"
           stroke-width="0.43851"
           stroke="#555555"
           d="m 528.67,305.8 0.99,24.47 -5.1,244.84"
           id="path10146" />
        <path
           fill="none"
           stroke-width="0.43874"
           stroke="#555555"
           d="m 532.09,293.59 0.61,36.44 -2.58,244.36"
           id="path10148" />
        <path
           fill="none"
           stroke-width="0.43859"
           stroke="#555555"
           d="m 535.97,279.57 -0.72,50.69 0.34,244.86"
           id="path10150" />
        <path
           transform="matrix(0.79975,-0.003246,-6.0018e-4,0.83072,323.18,149.7)"
           fill="#b3b3b3"
           d="m 255.36,205.58 a 3.395,3.395 0 1 1 -6.79,0 3.395,3.395 0 1 1 6.79,0 z"
           id="path10158" />
        <path
           transform="matrix(0.79975,-0.003246,-6.0018e-4,0.83072,326.84,136.07)"
           fill="#b3b3b3"
           d="m 255.36,205.58 a 3.395,3.395 0 1 1 -6.79,0 3.395,3.395 0 1 1 6.79,0 z"
           id="path10937" />
        <path
           transform="matrix(0.79975,-0.003246,-6.0018e-4,0.83072,330.25,122.3)"
           fill="#b3b3b3"
           d="m 255.36,205.58 a 3.395,3.395 0 1 1 -6.79,0 3.395,3.395 0 1 1 6.79,0 z"
           id="path10939" />
        <path
           transform="matrix(0.79975,-0.003246,-6.0018e-4,0.83072,333.28,108.29)"
           fill="#b3b3b3"
           d="m 255.36,205.58 a 3.395,3.395 0 1 1 -6.79,0 3.395,3.395 0 1 1 6.79,0 z"
           id="path10941" />
        <rect
           fill="#9fa69e"
           stroke-width="0.2"
           x="478.79999"
           y="607.21997"
           stroke-linecap="round"
           stroke="#000000"
           width="20.445999"
           height="1.1607"
           transform="rotate(-3.6689228)"
           rx="0.75761002"
           fill-rule="evenodd"
           ry="1.1607"
           id="rect12913" />
      </g>
    </g>
  </g>
</svg>
