<?xml version="1.0" encoding="UTF-8" standalone="no"?>
<svg
   xmlns:dc="http://purl.org/dc/elements/1.1/"
   xmlns:cc="http://creativecommons.org/ns#"
   xmlns:rdf="http://www.w3.org/1999/02/22-rdf-syntax-ns#"
   xmlns:svg="http://www.w3.org/2000/svg"
   xmlns="http://www.w3.org/2000/svg"
   xmlns:sodipodi="http://sodipodi.sourceforge.net/DTD/sodipodi-0.dtd"
   xmlns:inkscape="http://www.inkscape.org/namespaces/inkscape"
   width="800"
   height="600"
   viewBox="0 0 211.66666 158.75"
   version="1.1"
   id="svg8"
   inkscape:version="1.0 (4035a4fb49, 2020-05-01)"
   sodipodi:docname="coding_screen.svg">
  <defs
     id="defs2" />
  <sodipodi:namedview
     id="base"
     pagecolor="#ffffff"
     bordercolor="#666666"
     borderopacity="1.0"
     inkscape:pageopacity="0.0"
     inkscape:pageshadow="2"
     inkscape:zoom="0.35355339"
     inkscape:cx="-1021.6613"
     inkscape:cy="228.20132"
     inkscape:document-units="px"
     inkscape:current-layer="layer1"
     inkscape:document-rotation="0"
     showgrid="false"
     units="px"
     showguides="true"
     inkscape:guide-bbox="true"
     inkscape:window-width="1920"
     inkscape:window-height="1017"
     inkscape:window-x="1912"
     inkscape:window-y="-8"
     inkscape:window-maximized="1">
    <sodipodi:guide
       position="105.83333,79.374999"
       orientation="0,1"
       id="guide1537"
       inkscape:label="50%"
       inkscape:locked="false"
       inkscape:color="rgb(204,0,0)" />
    <sodipodi:guide
       position="105.83333,79.375"
       orientation="-1,0"
       id="guide1541"
       inkscape:label="50%"
       inkscape:locked="false"
       inkscape:color="rgb(204,0,0)" />
    <sodipodi:guide
       position="70.555554,105.83333"
       orientation="-1,0"
       id="guide1543"
       inkscape:label=""
       inkscape:locked="false"
       inkscape:color="rgb(0,0,255)" />
    <sodipodi:guide
       position="141.11111,52.916666"
       orientation="-1,0"
       id="guide1547"
       inkscape:label=""
       inkscape:locked="false"
       inkscape:color="rgb(0,0,255)" />
    <sodipodi:guide
       position="70.555554,105.83333"
       orientation="0,1"
       id="guide1549"
       inkscape:label=""
       inkscape:locked="false"
       inkscape:color="rgb(0,0,255)" />
    <sodipodi:guide
       position="141.11111,52.916666"
       orientation="0,1"
       id="guide1551"
       inkscape:label=""
       inkscape:locked="false"
       inkscape:color="rgb(0,0,255)" />
  </sodipodi:namedview>
  <metadata
     id="metadata5">
    <rdf:RDF>
      <cc:Work
         rdf:about="">
        <dc:format>image/svg+xml</dc:format>
        <dc:type
           rdf:resource="http://purl.org/dc/dcmitype/StillImage" />
        <dc:title></dc:title>
      </cc:Work>
    </rdf:RDF>
  </metadata>
  <g
     inkscape:label="Layer 1"
     inkscape:groupmode="layer"
     id="layer1">
    <g
       transform="matrix(0.0158079,0,0,-0.0158079,27.78125,171.01527)"
       id="g1070">
      <path
         id="path1122"
         style="fill:#8e969f;fill-opacity:1;fill-rule:evenodd;stroke:none"
         d="M 2744.23,4654.53 H 9875.07 V 9617.6 H 2744.23 V 4654.53" />
      <path
         id="path1124"
         style="fill:#7d8892;fill-opacity:1;fill-rule:evenodd;stroke:none"
         d="M 2744.23,8733.38 H 9875.07 V 8857 H 2744.23 v -123.62" />
      <path
         id="path1126"
         style="fill:#bbc0c6;fill-opacity:1;fill-rule:evenodd;stroke:none"
         d="M 2744.23,8856.96 H 9875.07 V 9617.6 H 2744.23 v -760.64" />
      <path
         id="path1128"
         style="fill:#f78d9f;fill-opacity:1;fill-rule:evenodd;stroke:none"
         d="m 2976.16,9059.01 h 356.56 v 356.56 h -356.56 v -356.56" />
      <path
         id="path1130"
         style="fill:#fabd1f;fill-opacity:1;fill-rule:evenodd;stroke:none"
         d="m 3372.29,9059.01 h 356.57 v 356.56 h -356.57 v -356.56" />
      <path
         id="path1132"
         style="fill:#b7d8f2;fill-opacity:1;fill-rule:evenodd;stroke:none"
         d="m 3768.47,9059.01 h 356.56 v 356.56 h -356.56 v -356.56" />
      <path
         id="path1134"
         style="fill:#464e58;fill-opacity:1;fill-rule:evenodd;stroke:none"
         d="M 0,1976.68 H 8018.78 V 7557.75 H 0 V 1976.68" />
      <path
         id="path1136"
         style="fill:#616b76;fill-opacity:1;fill-rule:evenodd;stroke:none"
         d="m 0,6702.41 h 8018.78 v 855.34 H 0 v -855.34" />
      <path
         id="path1138"
         style="fill:#434a52;fill-opacity:1;fill-rule:evenodd;stroke:none"
         d="m 0,6563.41 h 8018.78 v 138.98 H 0 v -138.98" />
      <path
         id="path1140"
         style="fill:#9ac421;fill-opacity:1;fill-rule:evenodd;stroke:none"
         d="m 295.691,6384.35 c 26.555,0 48.137,-21.58 48.137,-48.14 0,-26.55 -21.582,-48.13 -48.137,-48.13 -26.55,0 -48.101,21.58 -48.101,48.13 0,26.56 21.551,48.14 48.101,48.14 z m 0,-4001.72 c 26.555,0 48.125,-21.54 48.125,-48.1 0,-26.59 -21.57,-48.13 -48.125,-48.13 -26.558,0 -48.101,21.54 -48.101,48.13 0,26.56 21.543,48.1 48.101,48.1 z m 0,250.1 c 26.555,0 48.125,-21.55 48.125,-48.1 0,-26.59 -21.57,-48.1 -48.125,-48.1 -26.558,0 -48.101,21.51 -48.101,48.1 0,26.55 21.543,48.1 48.101,48.1 z m 0,250.09 c 26.555,0 48.125,-21.54 48.125,-48.09 0,-26.55 -21.57,-48.11 -48.125,-48.11 -26.558,0 -48.101,21.56 -48.101,48.11 0,26.55 21.543,48.09 48.101,48.09 z m 0,250.14 c 26.555,0 48.125,-21.54 48.125,-48.13 0,-26.56 -21.57,-48.1 -48.125,-48.1 -26.558,0 -48.101,21.54 -48.101,48.1 0,26.59 21.543,48.13 48.101,48.13 z m 0,250.1 c 26.555,0 48.137,-21.54 48.125,-48.14 0,-26.55 -21.57,-48.09 -48.125,-48.09 -26.558,0 -48.101,21.54 -48.101,48.09 0,26.6 21.543,48.14 48.101,48.14 z m 0,250.1 c 26.555,0 48.137,-21.55 48.137,-48.1 0,-26.59 -21.582,-48.13 -48.137,-48.13 -26.558,0 -48.101,21.54 -48.101,48.13 0,26.55 21.543,48.1 48.101,48.1 z m 0,250.09 c 26.555,0 48.137,-21.54 48.137,-48.09 0,-26.59 -21.582,-48.11 -48.137,-48.11 -26.558,0 -48.101,21.52 -48.101,48.11 0,26.55 21.543,48.09 48.101,48.09 z m 0,250.1 c 26.555,0 48.137,-21.54 48.137,-48.09 0,-26.56 -21.582,-48.1 -48.137,-48.1 -26.558,0 -48.101,21.54 -48.101,48.1 0,26.55 21.543,48.09 48.101,48.09 z m 0,500.24 c 26.555,0 48.137,-21.55 48.137,-48.1 0,-26.59 -21.582,-48.1 -48.137,-48.1 -26.558,0 -48.101,21.51 -48.101,48.1 0,26.55 21.543,48.1 48.101,48.1 z m 0,250.09 c 26.555,0 48.137,-21.54 48.137,-48.09 0,-26.59 -21.582,-48.11 -48.137,-48.11 -26.558,0 -48.101,21.52 -48.101,48.11 0,26.55 21.543,48.09 48.101,48.09 z m 0,250.1 c 26.555,0 48.137,-21.5 48.137,-48.09 0,-26.6 -21.582,-48.11 -48.137,-48.11 -26.558,0 -48.101,21.51 -48.101,48.11 0,26.59 21.543,48.09 48.101,48.09 z m 0,250.1 c 26.555,0 48.137,-21.5 48.137,-48.1 0,-26.59 -21.582,-48.09 -48.137,-48.09 -26.558,0 -48.101,21.5 -48.101,48.09 0,26.6 21.543,48.1 48.101,48.1 z m 0,250.1 c 26.555,0 48.137,-21.51 48.137,-48.1 0,-26.55 -21.582,-48.09 -48.137,-48.09 -26.558,0 -48.101,21.54 -48.101,48.09 0,26.59 21.543,48.1 48.101,48.1 z m 0,250.13 c 26.555,0 48.137,-21.54 48.137,-48.13 0,-26.55 -21.582,-48.1 -48.137,-48.1 -26.558,0 -48.101,21.55 -48.101,48.1 0,26.59 21.543,48.13 48.101,48.13 z m 0,-1500.62 c 26.555,0 48.137,-21.58 48.137,-48.14 0,-26.55 -21.582,-48.09 -48.137,-48.09 -26.558,0 -48.101,21.54 -48.101,48.09 0,26.56 21.543,48.14 48.101,48.14 z m 0,1750.72 c 26.555,0 48.137,-21.54 48.137,-48.09 0,-26.57 -21.582,-48.14 -48.137,-48.14 -26.55,0 -48.101,21.57 -48.101,48.14 0,26.55 21.551,48.09 48.101,48.09 v 0" />
      <path
         id="path1142"
         style="fill:#f68656;fill-opacity:1;fill-rule:evenodd;stroke:none"
         d="m 958.176,4394.17 c 257.894,0 515.784,0 773.714,0 0,-39.23 0,-78.41 0,-117.6 -257.93,0 -515.82,0 -773.714,0 0,39.19 0,78.37 0,117.6 z m 0,-1000.43 c 257.894,0 515.784,0 773.714,0 0,-39.19 0,-78.41 0,-117.6 -257.93,0 -515.82,0 -773.714,0 0,39.19 0,78.41 0,117.6 z m 0,1500.67 H 1731.89 V 4776.77 H 958.176 v 117.64 0" />
      <path
         id="path1144"
         style="fill:#f68656;fill-opacity:1;fill-rule:evenodd;stroke:none"
         d="M 958.176,6144.89 H 1731.89 V 6027.33 H 958.176 v 117.56" />
      <path
         id="path1146"
         style="fill:#c0e365;fill-opacity:1;fill-rule:evenodd;stroke:none"
         d="m 2437.57,2893.55 h 2505.27 c 0,-39.23 0,-78.42 0,-117.64 H 2437.57 Z M 532.949,6394.99 H 5193.32 V 6277.42 H 532.949 v 117.57 0" />
      <path
         id="path1148"
         style="fill:#c0e365;fill-opacity:1;fill-rule:evenodd;stroke:none"
         d="m 532.949,4644.27 c 41.414,0 82.832,0 124.207,0 0,-39.23 0,-78.41 0,-117.6 -41.375,0 -82.793,0 -124.207,0 0,39.19 0,78.37 0,117.6" />
      <path
         id="path1150"
         style="fill:#e8e8e7;fill-opacity:1;fill-rule:evenodd;stroke:none"
         d="m 3022.83,2643.41 h 485.55 c 0,-39.19 0,-78.38 0,-117.6 h -485.55 v 117.6" />
      <path
         id="path1152"
         style="fill:#e8e8e7;fill-opacity:1;fill-rule:evenodd;stroke:none"
         d="m 1488.03,2643.41 h 418.34 v -117.6 h -418.34 c 0,39.22 0,78.41 0,117.6" />
      <path
         id="path1154"
         style="fill:#e8e8e7;fill-opacity:1;fill-rule:evenodd;stroke:none"
         d="m 1390.64,2893.55 h 872.11 v -117.64 h -872.11 v 117.64" />
      <path
         id="path1156"
         style="fill:#e8e8e7;fill-opacity:1;fill-rule:evenodd;stroke:none"
         d="M 958.176,2893.55 H 1215.86 V 2775.91 H 958.176 c 0,39.22 0,78.41 0,117.64" />
      <path
         id="path1158"
         style="fill:#e8e8e7;fill-opacity:1;fill-rule:evenodd;stroke:none"
         d="m 4010.14,3143.64 h 567.4 c 0,-39.22 0,-78.4 0,-117.59 l -567.4,-0.01 v 117.6" />
      <path
         id="path1160"
         style="fill:#e8e8e7;fill-opacity:1;fill-rule:evenodd;stroke:none"
         d="m 2651.37,3143.64 h 1183.95 v -117.6 H 2651.37 v 117.6" />
      <path
         id="path1162"
         style="fill:#f9de1b;fill-opacity:1;fill-rule:evenodd;stroke:none"
         d="m 1559.97,3143.64 h 916.62 v -117.6 h -916.62 v 117.6" />
      <path
         id="path1164"
         style="fill:#e8e8e7;fill-opacity:1;fill-rule:evenodd;stroke:none"
         d="m 958.176,3143.64 h 426.974 v -117.6 H 958.176 c 0,39.2 0,78.38 0,117.6" />
      <path
         id="path1166"
         style="fill:#f68313;fill-opacity:1;fill-rule:evenodd;stroke:none"
         d="m 2366.3,3643.84 h 420.39 c 0,-39.19 0,-78.38 0,-117.6 H 2366.3 v 117.6" />
      <path
         id="path1168"
         style="fill:#e8e8e7;fill-opacity:1;fill-rule:evenodd;stroke:none"
         d="m 1488.03,3643.84 h 703.44 v -117.6 h -703.44 c 0,39.22 0,78.41 0,117.6" />
      <path
         id="path1170"
         style="fill:#e8e8e7;fill-opacity:1;fill-rule:evenodd;stroke:none"
         d="m 2951.55,3893.98 h 1678.06 c 0,-39.23 0,-78.42 0,-117.64 H 2951.55 v 117.64" />
      <path
         id="path1172"
         style="fill:#e8e8e7;fill-opacity:1;fill-rule:evenodd;stroke:none"
         d="m 2009.87,3893.98 h 766.87 v -117.64 h -766.87 v 117.64" />
      <path
         id="path1174"
         style="fill:#e8e8e7;fill-opacity:1;fill-rule:evenodd;stroke:none"
         d="m 1488.03,3893.98 h 347.06 v -117.64 h -347.06 c 0,39.22 0,78.41 0,117.64" />
      <path
         id="path1176"
         style="fill:#e8e8e7;fill-opacity:1;fill-rule:evenodd;stroke:none"
         d="m 3203.67,4144.07 h 108.69 c 0,-39.22 0,-78.4 0,-117.6 h -108.69 v 117.6" />
      <path
         id="path1178"
         style="fill:#e8e8e7;fill-opacity:1;fill-rule:evenodd;stroke:none"
         d="m 2749.28,4144.07 h 279.57 v -117.6 h -279.57 v 117.6" />
      <path
         id="path1180"
         style="fill:#e8e8e7;fill-opacity:1;fill-rule:evenodd;stroke:none"
         d="m 1488.03,4144.07 h 594.17 v -117.6 h -594.17 c 0,39.19 0,78.38 0,117.6" />
      <path
         id="path1182"
         style="fill:#cdccca;fill-opacity:1;fill-rule:evenodd;stroke:none"
         d="m 2615.6,5144.5 h 1271.37 c 0,-39.22 0,-78.41 0,-117.63 H 2615.6 v 117.63" />
      <path
         id="path1184"
         style="fill:#cd5629;fill-opacity:1;fill-rule:evenodd;stroke:none"
         d="m 2980.02,2393.31 h 91.78 v -117.59 h -91.78 z m -877.61,0 h 702.8 v -117.59 h -702.8 z m -1144.234,0 H 1927.6 V 2275.72 H 958.176 Z M 1488.03,5144.5 h 952.74 v -117.63 h -952.74 v 117.63 0" />
      <path
         id="path1186"
         style="fill:#f68313;fill-opacity:1;fill-rule:evenodd;stroke:none"
         d="m 2081.18,2643.41 h 766.83 v -117.6 h -766.83 z m 175.83,1500.66 h 317.44 v -117.6 h -317.44 z m 394.26,1250.53 h 903.25 v -117.63 h -903.25 v 117.63 0" />
      <path
         id="path1188"
         style="fill:#cdccca;fill-opacity:1;fill-rule:evenodd;stroke:none"
         d="m 1842.71,5394.6 h 633.74 v -117.63 h -633.74 v 117.63" />
      <path
         id="path1190"
         style="fill:#cdccca;fill-opacity:1;fill-rule:evenodd;stroke:none"
         d="m 1488.03,5394.6 h 179.86 v -117.63 h -179.86 v 117.63" />
      <path
         id="path1192"
         style="fill:#cdccca;fill-opacity:1;fill-rule:evenodd;stroke:none"
         d="m 3319.5,5644.7 h 339.16 V 5527.1 H 3319.5 v 117.6" />
      <path
         id="path1194"
         style="fill:#cdccca;fill-opacity:1;fill-rule:evenodd;stroke:none"
         d="m 2865.07,5644.7 h 279.61 v -117.6 h -279.61 v 117.6" />
      <path
         id="path1196"
         style="fill:#cdccca;fill-opacity:1;fill-rule:evenodd;stroke:none"
         d="m 2372.84,5644.7 h 317.44 v -117.6 h -317.44 v 117.6" />
      <path
         id="path1198"
         style="fill:#8ebae6;fill-opacity:1;fill-rule:evenodd;stroke:none"
         d="m 1488.03,5644.7 h 709.99 v -117.6 h -709.99 v 117.6" />
      <path
         id="path1200"
         style="fill:#cdccca;fill-opacity:1;fill-rule:evenodd;stroke:none"
         d="m 2972.02,5894.8 h 903.25 v -117.57 h -903.25 v 117.57" />
      <path
         id="path1202"
         style="fill:#cdccca;fill-opacity:1;fill-rule:evenodd;stroke:none"
         d="M 2163.46,5894.8 H 2797.2 V 5777.23 H 2163.46 V 5894.8" />
      <path
         id="path1204"
         style="fill:#cdccca;fill-opacity:1;fill-rule:evenodd;stroke:none"
         d="m 1488.03,5894.8 h 500.61 v -117.57 h -500.61 v 117.57" />
      <path
         id="path1206"
         style="fill:#f1485f;fill-opacity:1;fill-rule:evenodd;stroke:none"
         d="m 260.852,6929.58 h 400.933 v 400.94 H 260.852 v -400.94" />
      <path
         id="path1208"
         style="fill:#f1a40f;fill-opacity:1;fill-rule:evenodd;stroke:none"
         d="m 706.34,6929.58 h 400.94 v 400.94 H 706.34 v -400.94" />
      <path
         id="path1210"
         style="fill:#8ebae6;fill-opacity:1;fill-rule:evenodd;stroke:none"
         d="m 1151.83,6929.58 h 400.93 v 400.94 h -400.93 v -400.94" />
    </g>
  </g>
</svg>
