<?xml version="1.0" encoding="UTF-8" standalone="no"?>
<svg
   xmlns:dc="http://purl.org/dc/elements/1.1/"
   xmlns:cc="http://creativecommons.org/ns#"
   xmlns:rdf="http://www.w3.org/1999/02/22-rdf-syntax-ns#"
   xmlns:svg="http://www.w3.org/2000/svg"
   xmlns="http://www.w3.org/2000/svg"
   xmlns:sodipodi="http://sodipodi.sourceforge.net/DTD/sodipodi-0.dtd"
   xmlns:inkscape="http://www.inkscape.org/namespaces/inkscape"
   width="800"
   height="600"
   viewBox="0 0 211.66666 158.75"
   version="1.1"
   id="svg8"
   inkscape:version="1.0 (4035a4fb49, 2020-05-01)"
   sodipodi:docname="guitar_screen.svg">
  <defs
     id="defs2" />
  <sodipodi:namedview
     id="base"
     pagecolor="#ffffff"
     bordercolor="#666666"
     borderopacity="1.0"
     inkscape:pageopacity="0.0"
     inkscape:pageshadow="2"
     inkscape:zoom="0.49497475"
     inkscape:cx="99.534084"
     inkscape:cy="476.07541"
     inkscape:document-units="px"
     inkscape:current-layer="layer1"
     inkscape:document-rotation="0"
     showgrid="false"
     units="px"
     showguides="true"
     inkscape:guide-bbox="true"
     inkscape:window-width="1920"
     inkscape:window-height="1017"
     inkscape:window-x="1912"
     inkscape:window-y="-8"
     inkscape:window-maximized="1">
    <sodipodi:guide
       position="105.83333,79.374999"
       orientation="0,1"
       id="guide1537"
       inkscape:label="50%"
       inkscape:locked="false"
       inkscape:color="rgb(204,0,0)" />
    <sodipodi:guide
       position="105.83333,79.375"
       orientation="-1,0"
       id="guide1541"
       inkscape:label="50%"
       inkscape:locked="false"
       inkscape:color="rgb(204,0,0)" />
    <sodipodi:guide
       position="70.555554,105.83333"
       orientation="-1,0"
       id="guide1543"
       inkscape:label=""
       inkscape:locked="false"
       inkscape:color="rgb(0,0,255)" />
    <sodipodi:guide
       position="141.11111,52.916666"
       orientation="-1,0"
       id="guide1547"
       inkscape:label=""
       inkscape:locked="false"
       inkscape:color="rgb(0,0,255)" />
    <sodipodi:guide
       position="70.555554,105.83333"
       orientation="0,1"
       id="guide1549"
       inkscape:label=""
       inkscape:locked="false"
       inkscape:color="rgb(0,0,255)" />
    <sodipodi:guide
       position="141.11111,52.916666"
       orientation="0,1"
       id="guide1551"
       inkscape:label=""
       inkscape:locked="false"
       inkscape:color="rgb(0,0,255)" />
  </sodipodi:namedview>
  <metadata
     id="metadata5">
    <rdf:RDF>
      <cc:Work
         rdf:about="">
        <dc:format>image/svg+xml</dc:format>
        <dc:type
           rdf:resource="http://purl.org/dc/dcmitype/StillImage" />
        <dc:title></dc:title>
      </cc:Work>
    </rdf:RDF>
  </metadata>
  <g
     inkscape:label="Layer 1"
     inkscape:groupmode="layer"
     id="layer1">
    <g
       transform="matrix(0.15475365,0.15475365,-0.15475365,0.15475365,127.46324,-63.605982)"
       id="layer1-4">
      <g
         transform="matrix(1.4204,0,0,1.4204,-335.78,-37.324)"
         id="g5550">
        <path
           fill="#e6e6e6"
           stroke-width="1px"
           stroke="#000000"
           fill-rule="evenodd"
           d="m 492.95,425.56 c -5.41,6.57 -10.66,13.69 -18.68,11.11 -19.85,-10.81 -10.75,-27.38 -17.68,-38.89 -5.91,-9.81 -17.14,-6.33 -21.21,1.52 -15.97,30.77 2.7,63.97 8.08,95.96 0.01,0.01 1.55,9.34 -9.16,30.21 -15.02,29.17 -20.65,57.01 -19.38,67.27 1.27,10.27 10.9,44.41 51.77,50.01 43.52,5.95 87.6,3.37 102.78,-11.12 17.05,-16.26 25.62,-40.89 6.82,-90.91 -11.54,-23.36 -6.2,-42.73 0.51,-62.63 5.62,-16.67 14.84,-38.55 -8.84,-49.24 -0.66,-0.3 -9.52,-0.07 -13.08,14.54 -3.97,16.27 -14.78,23.17 -28.09,16.52 z"
           id="path4527" />
        <path
           fill="#9fa684"
           stroke-width="1px"
           stroke="#000000"
           fill-rule="evenodd"
           d="m 571.24,438.44 c -10.02,9.47 -6.67,33.7 -31.31,33.34 -21.51,-4.86 -35.49,-18.21 -53.29,-22.98 -4.26,-1.15 -8.45,3.55 -6.82,8.58 1.44,15.13 6.83,29.96 0.26,45.71 -2.39,11.39 -9.58,21.06 -12.38,32.07 -5.84,23 2.33,26.62 6.57,31.82 2.33,2.54 7.13,3.24 12.12,3.79 21.89,1.01 45.83,-5.52 65.66,3.03 9.79,5.65 19.41,21.46 25.76,20.71 4.07,-0.48 6.11,-11.33 4.04,-20.96 -3.75,-17.38 -10.43,-32.97 -16.16,-52.78 -3.06,-10.57 -5.24,-14.93 4.54,-36.62 3.78,-6.17 7.09,-15.75 7.58,-26.01 0.92,-19.61 -4.53,-21.62 -6.57,-19.7 z"
           id="path4529" />
        <g
           fill="#e6e6e6"
           stroke-linecap="round"
           stroke="#000000"
           transform="translate(-232.08)"
           fill-rule="evenodd"
           id="g5508">
          <rect
             stroke-width="1.0169"
             x="724.53998"
             y="478.10001"
             width="35.842999"
             height="9.5795002"
             ry="4.7898002"
             id="rect5502" />
          <rect
             stroke-width="1.0336"
             x="723.28998"
             y="511.69"
             width="37.09"
             height="9.5628996"
             ry="4.7814002"
             id="rect5504" />
          <rect
             stroke-width="1.0364"
             x="794.34003"
             y="-440.20001"
             width="36.584999"
             height="9.7473001"
             ry="4.8736"
             transform="matrix(0.98964,0.14355,0.14447,-0.98951,0,0)"
             id="rect5506" />
        </g>
        <path
           fill="#999999"
           stroke-width="1.1464px"
           stroke="#000000"
           fill-rule="evenodd"
           d="m 511.51,126.52 -0.58,0.59 c 0,0 -5.83,1.52 -6.82,-0.6 -0.99,-2.12 0.69,-7.07 2.86,-7.89 2.17,-0.82 5.84,4.61 5.84,4.61 l 0.04,1.1 2.69,0.98 -0.9,2.5 z"
           id="path4498" />
        <path
           fill="#999999"
           stroke-width="1.1464px"
           stroke="#000000"
           fill-rule="evenodd"
           d="m 507.22,137.63 -0.58,0.59 c 0,0 -5.83,1.52 -6.82,-0.6 -0.99,-2.12 0.68,-7.07 2.86,-7.89 2.17,-0.82 5.84,4.61 5.84,4.61 l 0.03,1.11 2.7,0.97 -0.91,2.5 z"
           id="path12964" />
        <path
           fill="#999999"
           stroke-width="1.1464px"
           stroke="#000000"
           fill-rule="evenodd"
           d="m 502.42,150 -0.58,0.59 c 0,0 -5.83,1.53 -6.82,-0.59 -0.99,-2.13 0.68,-7.08 2.86,-7.9 2.17,-0.82 5.84,4.62 5.84,4.62 l 0.04,1.1 2.69,0.97 -0.9,2.51 z"
           id="path4500" />
        <path
           fill="#999999"
           stroke-width="1.1464px"
           stroke="#000000"
           fill-rule="evenodd"
           d="m 498.89,162.13 -0.59,0.59 c 0,0 -5.82,1.52 -6.81,-0.6 -0.99,-2.13 0.68,-7.08 2.85,-7.9 2.18,-0.82 5.84,4.62 5.84,4.62 l 0.04,1.1 2.7,0.98 -0.91,2.5 z"
           id="path4502" />
        <path
           fill="#999999"
           stroke-width="1.1464px"
           stroke="#000000"
           fill-rule="evenodd"
           d="m 494.34,173.49 -0.58,0.59 c 0,0 -5.83,1.52 -6.82,-0.6 -0.99,-2.12 0.68,-7.07 2.86,-7.89 2.17,-0.82 5.84,4.61 5.84,4.61 l 0.04,1.11 2.69,0.97 -0.9,2.5 z"
           id="path4504" />
        <path
           fill="#999999"
           stroke-width="1.1464px"
           stroke="#000000"
           fill-rule="evenodd"
           d="m 490.55,185.36 -0.58,0.59 c 0,0 -5.83,1.52 -6.82,-0.6 -0.99,-2.12 0.68,-7.07 2.86,-7.89 2.17,-0.82 5.84,4.61 5.84,4.61 l 0.04,1.11 2.69,0.97 -0.9,2.5 z"
           id="path4506" />
        <path
           fill="#9d530a"
           stroke-width="1px"
           stroke="#000000"
           fill-rule="evenodd"
           d="m 499.02,204.34 c -6.74,-1.01 -9.43,-5.39 -8.09,-13.13 0.32,0.31 14.32,-49.11 23.74,-68.69 5.63,-18.19 21.91,-4.25 23.99,-1.77 7.66,9.13 -2.36,25.01 -9.85,21.46 2.03,15.16 9.21,31.09 7.33,45.46 -5.76,5.25 -11.5,10.75 -13.89,16.67 z"
           id="path4496" />
        <path
           fill="#c87137"
           stroke-width="1.4241px"
           stroke="#000000"
           fill-rule="evenodd"
           d="m 497.9,203.79 -5.04,264.5 c 9.75,2.58 20.66,2.81 33.09,0 l -3.59,-264.5 z"
           id="path12980" />
        <rect
           fill="#ffe680"
           stroke-width="0.3215"
           x="492.32001"
           y="466.29999"
           stroke="#000000"
           width="33.278"
           height="0.98056"
           ry="0.21335"
           fill-rule="evenodd"
           id="rect12982" />
        <rect
           fill="#ffe680"
           stroke-width="0.31939"
           x="492.57001"
           y="460.70001"
           stroke="#000000"
           width="32.771"
           height="0.98267001"
           ry="0.21381"
           fill-rule="evenodd"
           id="rect12984" />
        <rect
           fill="#ffe680"
           stroke-width="0.3215"
           x="492.06"
           y="454.09"
           stroke="#000000"
           width="33.278"
           height="0.98056"
           ry="0.21335"
           fill-rule="evenodd"
           id="rect12986" />
        <rect
           fill="#ffe680"
           stroke-width="0.3215"
           x="492.06"
           y="447.48001"
           stroke="#000000"
           width="33.278"
           height="0.98056"
           ry="0.21335"
           fill-rule="evenodd"
           id="rect12988" />
        <rect
           fill="#ffe680"
           stroke-width="0.31939"
           x="492.82001"
           y="440.10001"
           stroke="#000000"
           width="32.771"
           height="0.98267001"
           ry="0.21381"
           fill-rule="evenodd"
           id="rect12990" />
        <rect
           fill="#ffe680"
           stroke-width="0.31833"
           x="493.07999"
           y="432.47"
           stroke="#000000"
           width="32.518002"
           height="0.98373002"
           ry="0.21404"
           fill-rule="evenodd"
           id="rect12992" />
        <rect
           fill="#ffe680"
           stroke-width="0.32045"
           x="492.82001"
           y="424.84"
           stroke="#000000"
           width="33.025002"
           height="0.98161"
           ry="0.21358"
           fill-rule="evenodd"
           id="rect12994" />
        <rect
           fill="#ffe680"
           stroke-width="0.31726"
           x="493.32999"
           y="416.45001"
           stroke="#000000"
           width="32.264999"
           height="0.98479998"
           ry="0.21427"
           fill-rule="evenodd"
           id="rect12996" />
        <rect
           fill="#ffe680"
           stroke-width="0.31726"
           x="493.57999"
           y="407.04001"
           stroke="#000000"
           width="32.264999"
           height="0.98479998"
           ry="0.21427"
           fill-rule="evenodd"
           id="rect12998" />
        <rect
           fill="#ffe680"
           stroke-width="0.3151"
           x="493.57999"
           y="397.63"
           stroke="#000000"
           width="31.757999"
           height="0.98695999"
           ry="0.21473999"
           fill-rule="evenodd"
           id="rect13000" />
        <rect
           fill="#ffe680"
           stroke-width="0.3085"
           x="494.34"
           y="387.20001"
           stroke="#000000"
           width="30.239"
           height="0.99356002"
           ry="0.21618"
           fill-rule="evenodd"
           id="rect13002" />
        <rect
           fill="#ffe680"
           stroke-width="0.30961"
           x="494.09"
           y="377.28"
           stroke="#000000"
           width="30.492001"
           height="0.99245"
           ry="0.21594"
           fill-rule="evenodd"
           id="rect13004" />
        <rect
           fill="#ffe680"
           stroke-width="0.31183"
           x="494.09"
           y="365.59"
           stroke="#000000"
           width="30.999001"
           height="0.99023998"
           ry="0.21545"
           fill-rule="evenodd"
           id="rect13006" />
        <rect
           fill="#ffe680"
           stroke-width="0.29463"
           x="496.37"
           y="246.56"
           stroke="#000000"
           width="27.201"
           height="1.0074"
           ry="0.2192"
           fill-rule="evenodd"
           id="rect13008" />
        <rect
           fill="#ffe680"
           stroke-width="0.28979"
           x="497"
           y="227.23"
           stroke="#000000"
           width="26.188999"
           height="1.0123"
           ry="0.22025"
           fill-rule="evenodd"
           id="rect13010" />
        <rect
           fill="#ffffff"
           stroke-width="0"
           x="499.16"
           y="456.10999"
           width="20.09"
           height="3.306"
           ry="0.11066"
           fill-rule="evenodd"
           id="rect13012" />
        <rect
           fill="#ffffff"
           stroke-width="0"
           x="499.92999"
           y="442.37"
           width="19.073"
           height="3.306"
           ry="0.11066"
           fill-rule="evenodd"
           id="rect13014" />
        <rect
           fill="#ffffff"
           stroke-width="0"
           x="499.16"
           y="427.10999"
           width="19.327"
           height="4.3232002"
           ry="0.14472"
           fill-rule="evenodd"
           id="rect13016" />
        <rect
           fill="#ffffff"
           stroke-width="0"
           x="498.91"
           y="409.82001"
           width="19.073"
           height="5.5948"
           ry="0.18728"
           fill-rule="evenodd"
           id="rect13018" />
        <rect
           fill="#ffffff"
           stroke-width="0"
           x="498.64999"
           y="379.29999"
           width="18.819"
           height="6.612"
           ry="0.22133"
           fill-rule="evenodd"
           id="rect13020" />
        <rect
           fill="#ffffff"
           stroke-width="0"
           x="502.72"
           y="283.94"
           width="13.478"
           height="12.715"
           ry="0.42563"
           fill-rule="evenodd"
           id="rect13022" />
        <rect
           fill="#d38d5f"
           stroke-width="0.71206"
           x="497"
           y="204.34"
           stroke="#000000"
           width="26.448"
           height="3.5603001"
           ry="0.22133"
           fill-rule="evenodd"
           id="rect13024" />
        <rect
           fill="#ffffff"
           stroke-width="0"
           x="503.60999"
           y="210.19"
           width="13.478"
           height="14.241"
           ry="0.47670999"
           fill-rule="evenodd"
           id="rect13028" />
        <rect
           fill="#ffffff"
           stroke-width="0"
           x="503.23001"
           y="248.34"
           width="13.478"
           height="14.241"
           ry="0.47670999"
           fill-rule="evenodd"
           id="rect13030" />
        <rect
           fill="#ffffff"
           stroke-width="0"
           x="502.47"
           y="314.95999"
           width="13.478"
           height="10.681"
           ry="0.35753"
           fill-rule="evenodd"
           id="rect13032" />
        <rect
           fill="#ffffff"
           stroke-width="0"
           x="502.47"
           y="342.67999"
           width="13.478"
           height="8.6464996"
           ry="0.28942999"
           fill-rule="evenodd"
           id="rect13034" />
        <rect
           fill="#ffe680"
           stroke-width="0.30168"
           x="495.60999"
           y="281.39999"
           stroke="#000000"
           width="28.719999"
           height="1.0003999"
           ry="0.21765999"
           fill-rule="evenodd"
           id="rect13036" />
        <rect
           fill="#ffe680"
           stroke-width="0.29582"
           x="496.37"
           y="264.35999"
           stroke="#000000"
           width="27.454"
           height="1.0062"
           ry="0.21894"
           fill-rule="evenodd"
           id="rect13038" />
        <rect
           fill="#ffe680"
           stroke-width="0.29936"
           x="495.85999"
           y="297.67999"
           stroke="#000000"
           width="28.214001"
           height="1.0027"
           ry="0.21817"
           fill-rule="evenodd"
           id="rect13040" />
        <rect
           fill="#ffe680"
           stroke-width="0.30168"
           x="495.35999"
           y="312.94"
           stroke="#000000"
           width="28.719999"
           height="1.0003999"
           ry="0.21765999"
           fill-rule="evenodd"
           id="rect13042" />
        <rect
           fill="#ffe680"
           stroke-width="0.29936"
           x="495.10001"
           y="326.92001"
           stroke="#000000"
           width="28.214001"
           height="1.0027"
           ry="0.21817"
           fill-rule="evenodd"
           id="rect13044" />
        <rect
           fill="#ffe680"
           stroke-width="0.30738"
           x="494.85001"
           y="340.66"
           stroke="#000000"
           width="29.986"
           height="0.99467999"
           ry="0.21641999"
           fill-rule="evenodd"
           id="rect13046" />
        <rect
           fill="#ffe680"
           stroke-width="0.3085"
           x="494.60001"
           y="353.38"
           stroke="#000000"
           width="30.239"
           height="0.99356002"
           ry="0.21618"
           fill-rule="evenodd"
           id="rect13048" />
        <path
           fill-rule="evenodd"
           transform="matrix(1.4241,0,0,1.4241,-104.36,53.974)"
           fill="#b3b3b3"
           d="m 437.68,60.219 a 2.3214,2.3214 0 1 1 -4.64,0 2.3214,2.3214 0 1 1 4.64,0 z"
           id="path13060" />
        <path
           fill-rule="evenodd"
           transform="matrix(1.4241,0,0,1.4241,-108.16,66.008)"
           fill="#b3b3b3"
           d="m 437.68,60.219 a 2.3214,2.3214 0 1 1 -4.64,0 2.3214,2.3214 0 1 1 4.64,0 z"
           id="path13062" />
        <path
           fill-rule="evenodd"
           transform="matrix(1.4241,0,0,1.4241,-112.2,78.227)"
           fill="#b3b3b3"
           d="m 437.68,60.219 a 2.3214,2.3214 0 1 1 -4.64,0 2.3214,2.3214 0 1 1 4.64,0 z"
           id="path13064" />
        <path
           fill-rule="evenodd"
           transform="matrix(1.4241,0,0,1.4241,-116.74,90.475)"
           fill="#b3b3b3"
           d="m 437.68,60.219 a 2.3214,2.3214 0 1 1 -4.64,0 2.3214,2.3214 0 1 1 4.64,0 z"
           id="path13066" />
        <path
           fill-rule="evenodd"
           transform="matrix(1.4241,0,0,1.4241,-100.52,42.615)"
           fill="#b3b3b3"
           d="m 437.68,60.219 a 2.3214,2.3214 0 1 1 -4.64,0 2.3214,2.3214 0 1 1 4.64,0 z"
           id="path13068" />
        <path
           fill-rule="evenodd"
           transform="matrix(1.4241,0,0,1.4241,-120.07,101.47)"
           fill="#b3b3b3"
           d="m 437.68,60.219 a 2.3214,2.3214 0 1 1 -4.64,0 2.3214,2.3214 0 1 1 4.64,0 z"
           id="path13076" />
        <g
           fill="#e6e6e6"
           stroke-linecap="round"
           stroke="#000000"
           transform="translate(-234.36)"
           fill-rule="evenodd"
           id="g5523">
          <path
             transform="matrix(1.0785,0,0,1.0785,-61.518,-44.687)"
             d="m 776.81,553.22 a 5.935,5.935 0 1 1 -11.87,0 5.935,5.935 0 1 1 11.87,0 z"
             id="path5515" />
          <path
             transform="matrix(1.0785,0,0,1.0785,-39.8,-33.575)"
             d="m 776.81,553.22 a 5.935,5.935 0 1 1 -11.87,0 5.935,5.935 0 1 1 11.87,0 z"
             id="path5517" />
          <path
             transform="matrix(1.0785,0,0,1.0785,-23.385,-18.928)"
             d="m 776.81,553.22 a 5.935,5.935 0 1 1 -11.87,0 5.935,5.935 0 1 1 11.87,0 z"
             id="path5521" />
        </g>
        <rect
           fill="#2e3436"
           x="488.16"
           y="563.95001"
           stroke-linecap="round"
           stroke="#000000"
           width="42.174"
           height="22.223"
           ry="4.7814002"
           fill-rule="evenodd"
           id="rect5528" />
        <path
           fill="none"
           stroke-width="0.71451"
           stroke="#555555"
           d="m 519.66,131.42 0.23,73.12 4.32,372.04"
           id="path13052" />
        <path
           fill="none"
           stroke-width="0.71395"
           stroke="#555555"
           d="m 503.83,179.01 -0.47,25.6 -3.31,372.86"
           id="path13050" />
        <path
           fill="none"
           stroke-width="0.71409"
           stroke="#555555"
           d="m 512.09,154.65 -0.34,49.56 -0.25,372.68"
           id="path13056" />
        <path
           fill="none"
           stroke-width="0.71433"
           stroke="#555555"
           d="m 508.13,167.29 -0.7,38.24 L 505.9,577"
           id="path13058" />
        <path
           fill="none"
           stroke-width="0.71364"
           stroke="#555555"
           d="m 499.47,189.01 0.28,15.46 -4.83,373.27"
           id="path13074" />
        <path
           fill="none"
           stroke-width="0.71392"
           stroke="#555555"
           d="m 515.87,142.41 0.21,42.48 1.52,392.24"
           id="path13054" />
        <rect
           fill="#2e3436"
           stroke-width="1.0452"
           x="469.41"
           y="590.76001"
           stroke-linecap="round"
           stroke="#000000"
           width="35.061001"
           height="12.25"
           transform="matrix(0.99909,-0.042653,0.03769,0.99929,0,0)"
           fill-rule="evenodd"
           ry="5.1540999"
           id="rect5530" />
        <g
           fill-rule="evenodd"
           stroke="#000000"
           id="g5546">
          <path
             fill="#2e3436"
             stroke-width="1px"
             d="m 532.35,514.71 c -0.55,24.14 -1.81,42.73 -5.56,63.13 -1.5,1.64 -2.24,8.18 0.26,6.57 5.53,-11.28 7.17,-46.56 8.58,-69.7 z"
             id="path5532" />
          <rect
             fill="#cccccc"
             x="545.84003"
             y="479.72"
             stroke-linecap="round"
             width="3.7881"
             height="21.212999"
             ry="1.8940001"
             transform="rotate(1.5391)"
             id="rect5538" />
        </g>
      </g>
    </g>
  </g>
</svg>
