<?xml version="1.0" encoding="UTF-8" standalone="no"?>
<svg
   xmlns:dc="http://purl.org/dc/elements/1.1/"
   xmlns:cc="http://creativecommons.org/ns#"
   xmlns:rdf="http://www.w3.org/1999/02/22-rdf-syntax-ns#"
   xmlns:svg="http://www.w3.org/2000/svg"
   xmlns="http://www.w3.org/2000/svg"
   xmlns:sodipodi="http://sodipodi.sourceforge.net/DTD/sodipodi-0.dtd"
   xmlns:inkscape="http://www.inkscape.org/namespaces/inkscape"
   version="1.1"
   id="svg2"
   xml:space="preserve"
   width="680.66724"
   height="726.67578"
   viewBox="0 0 680.66722 726.67579"
   sodipodi:docname="telly_master_outline_coloured.svg"
   inkscape:version="1.0 (4035a4fb49, 2020-05-01)"><metadata
     id="metadata8"><rdf:RDF><cc:Work
         rdf:about=""><dc:format>image/svg+xml</dc:format><dc:type
           rdf:resource="http://purl.org/dc/dcmitype/StillImage" /><dc:title /></cc:Work></rdf:RDF></metadata><defs
     id="defs6" /><sodipodi:namedview
     inkscape:document-rotation="0"
     pagecolor="#ffffff"
     bordercolor="#666666"
     borderopacity="1"
     objecttolerance="10"
     gridtolerance="10"
     guidetolerance="10"
     inkscape:pageopacity="0"
     inkscape:pageshadow="2"
     inkscape:window-width="1920"
     inkscape:window-height="1017"
     id="namedview4"
     showgrid="false"
     fit-margin-top="0"
     fit-margin-left="0"
     fit-margin-right="0"
     fit-margin-bottom="0"
     inkscape:pagecheckerboard="true"
     inkscape:zoom="0.98082883"
     inkscape:cx="257.29841"
     inkscape:cy="338.08658"
     inkscape:window-x="-8"
     inkscape:window-y="-8"
     inkscape:window-maximized="1"
     inkscape:current-layer="g10" /><g
     id="g10"
     inkscape:groupmode="layer"
     inkscape:label="ink_ext_XXXXXX"
     transform="matrix(1.3333333,0,0,-1.3333333,-219.04317,757.54792)"><g
       id="g12"
       transform="scale(0.1)"><path
         d="m 2138.08,754.191 c 17.66,-13.441 34.34,-27.589 52.06,-38.89 39.8,-25.563 81.98,-51.602 129.37,-58.742 24.29,-3.68 48.4,-5.11 73.25,-6.297 36.33,-1.782 71.79,-8.442 108.12,-10.461 89.93,-4.879 179.05,-8.571 269.21,-8.571 40.05,0 79.52,-3.8 119.86,-3.8 47.15,0 93.64,3.332 140.2,5.109 23.6,0.84 46.7,-6.418 70.36,-7.367 26.08,-1.184 51.91,-0.473 77.71,-1.551 28.42,-1.191 57.73,-3.922 86.6,-3.801 40.28,0.121 78.57,-1.781 118.91,-3.8 16.59,-0.829 32.61,-4.641 49.44,-3.809 42.51,2.141 86.21,4.871 129.4,6.309 40.85,1.421 81.39,-5.239 121.74,-7.622 46.13,-2.617 93.22,-0.828 139.54,-1.308 92.21,-0.828 184.19,-3.918 276.17,-3.801 106.06,0.242 211.6,9.039 317.75,10.231 44.72,0.48 89.19,-3.329 133.78,-3.809 26.4,-0.352 52.44,2.5 79.08,2.5 47.68,0 95.48,-9.039 142.92,-4.762 103.81,9.403 208.22,11.172 312.27,20.102 25.8,2.14 51.85,0.121 77.76,1.179 37.34,1.551 75.51,5.122 112.73,8.801 32.94,3.328 65.4,0.84 98.34,2.5 24.5,1.309 48.28,0.957 72.3,6.66 25.92,6.071 51.13,15.098 76.82,22.348 30.56,8.453 65.75,17.481 91.08,36.75 37.82,28.77 62.43,69.563 90.01,105.59 13.92,18.191 23.2,39.601 32.71,60.891 9.51,21.16 20.33,42.921 25.32,66.23 4.76,21.52 2.02,43.039 8.33,64.33 6.42,22.24 2.02,43.4 3.33,65.99 2.97,47.93 8.92,95.61 12.6,143.41 3.21,41.62 8.45,82.64 10.35,124.27 1.06,23.66 -1.19,47.44 -0.12,70.98 1.43,32.94 8.56,66.23 11.41,99.29 2.62,29.97 3.92,58.27 3.92,88.71 0,22.47 0,45.3 1.2,67.9 1.9,40.19 -0.36,80.38 1.42,120.58 1.31,30.67 -0.12,60.76 1.19,91.31 1.66,35.2 2.26,70.52 3.81,105.6 1.66,36.39 10.23,73.37 -0.84,108.8 -7.49,24.37 -3.08,49.59 -0.59,75.04 3.57,34.95 2.98,68.25 -0.24,103.81 -5.83,64.68 -2.62,134.96 0.36,200.36 3.33,75.62 -2.38,150.42 -2.5,225.1 -0.11,14.03 1.79,27.82 2.5,41.5 1.66,33.53 -1.19,66.94 -2.5,100.23 -2.14,52.56 -3.69,105.48 -6.3,158.54 -1.43,28.66 -4.17,58.93 -8.68,87.23 -1.9,12.51 -3.33,24.43 -4.04,37.12 -1.43,23.79 -1.07,47.6 0.95,71.26 2.73,32.44 0.71,70.37 -3.45,102.48 -3.69,28.03 -12.49,51.48 -20.58,77.17 -10.34,9.75 -18.19,35.32 -26.15,49.67 -14.28,25.98 -33.3,46.23 -53.51,68.53 -53.63,58.94 -125.93,99.28 -204.53,111.8 -49.82,7.94 -100.36,11.41 -150.66,12.96 -23.07,0.71 -45.3,-1.72 -68.02,-1.84 -25.2,-0.15 -50.06,4.87 -75.26,5.14 -47.45,0.51 -95.37,9.36 -143.06,11.42 -53.62,2.28 -107.14,-2.59 -160.41,-2.56 -65.04,0.06 -129.84,1.28 -195.01,1.28 -85.61,0 -170.63,2.32 -256.25,1.28 -36.86,-0.45 -73.61,-1.22 -110.44,-1.28 -64.03,-0.12 -127.32,5.23 -191.65,7.13 -74.86,2.23 -149.74,1.16 -224.6,0.45 -139.3,-1.31 -278.9,-2.11 -418.29,-2.5 -71.35,-0.21 -144.51,1.57 -215.86,5.11 -41.79,2.08 -84.27,-5.49 -125.33,-1.25 -33.53,3.49 -69.06,1.82 -102.74,-0.05 -23.27,-1.28 -45.27,-1.28 -68.46,-1.28 -20.45,0 -40.46,-1.64 -60.62,-2.56 -41.26,-1.9 -84.03,-2.05 -126.19,-4.07 -89.51,-4.28 -181.19,2.47 -269.78,-7.31 -59.72,-6.61 -117.54,-4.91 -175.98,-10.2 -24.38,-2.23 -48.13,-5.74 -70.43,-13.59 -20.87,-7.37 -39.72,-22.35 -58.06,-33.5 -44.08,-26.84 -79.55,-63.5 -105,-108.86 -12.9,-23.07 -26.75,-44.39 -36.74,-68.79 -10.37,-25.39 -15.76,-51.61 -25.35,-77.09 -8.15,-21.58 -17.46,-40.72 -20.64,-63.46 -3.74,-26.67 -3.69,-54.05 -6.39,-81.13 -3.3,-33.03 -6.75,-66.24 -11.59,-99.26 -5.12,-34.72 -6.13,-69.53 -7.38,-104.91 -0.53,-15.22 0,-30.56 0,-45.78 0,-16.53 2.56,-30.09 4.23,-45.9 1.69,-16.29 -7.38,-32.28 -8.03,-48.4 -0.71,-17.3 -0.15,-35.55 -2.26,-52.79 -4.22,-34.73 -11.32,-68.98 -13.02,-103.93 -1.6,-32.7 -0.89,-65.05 -3.75,-97.39 -3.29,-37.33 -8.05,-75.39 -6.36,-113.2 2.5,-56.01 3.84,-112.61 3.84,-168.98 0,-67.3 3.8,-134.01 3.8,-201.43 0,-24.38 0.15,-48.99 1.28,-73.61 1.19,-25.45 11.83,-52.79 7.31,-78.24 -1.63,-9.39 -4.75,-15.69 -4.04,-26.04 0.71,-10.23 3.63,-20.45 3.12,-30.79 -0.62,-13.44 -2.11,-26.76 -4.13,-39.84 -5.17,-33.53 -5.83,-69.09 -7.34,-103.09 -3.06,-68.27 -4.91,-140.2 1.28,-208.1 6,-66.36 8.94,-133.65 12.69,-200.36 2.08,-36.75 3.84,-76.23 10.13,-112.62 2.89,-16.76 3.3,-33.77 4.97,-50.65 1.85,-18.79 8.53,-37.57 9.72,-55.89 0.74,-11.29 -1.96,-21.76 -0.09,-33.29 1.7,-10.59 5,-20.81 6.96,-31.4 4.93,-26.51 7.79,-53.269 11.68,-79.781 5.89,-39.949 12.37,-80.508 26.61,-118.437 13.7,-36.622 38.79,-63.981 69.44,-87.161 z"
         style="fill:none;stroke:#121213;stroke-width:30;stroke-linecap:round;stroke-linejoin:miter;stroke-miterlimit:4;stroke-dasharray:none;stroke-opacity:1"
         id="path14" /><path
         d="m 1930.14,335.738 c 66.08,9.282 144.39,13.211 209.28,2.742 23.04,-3.679 50.86,-2.742 74.82,-1.55 42.72,2.14 87.17,4.879 129.71,5.109 71.37,0.481 143.02,-3.559 214,-6.301 84.67,-3.207 168.53,0 253.7,0 30.21,0 59.93,1.192 90.07,2.5 19.33,0.832 38.92,0 58.3,0 32.34,-0.117 63.94,3.692 96.44,0.953 21.61,-1.793 43.64,-3.562 65.04,-4.761 95.34,-5.7 191.06,5.238 286.31,2.5 65.11,-1.782 131.6,-1.192 196.98,-1.192 50.59,0 100.27,0 150.57,2.383 23,1.07 45.66,2.609 68.76,2.609 33.2,0 66.41,-3.332 99.85,-4.992 76.28,-3.808 152.35,2.5 228.64,2.5 90.04,0 180.06,0.953 269.92,3.801 29.97,0.961 59.93,-0.949 89.78,-1.309 27.83,-0.109 55.53,-2.371 83.24,-2.492 19.86,-0.117 39.12,5.231 59.1,4.992 34.84,-0.351 70.27,-1.191 105.58,-1.191 45.79,-0.109 90.98,-4.871 136.64,-2.848 47.92,2.137 96.67,4.989 144.59,2.848 41.63,-1.898 82.29,-3.801 124.38,-3.801 51.85,0 103.1,5.114 154.71,4.992 58.85,0 118.19,-2.968 176.93,-5.699 61.72,-2.73 124.02,0.707 185.86,0.707 79.91,0 161.84,7.852 242.23,3.801 85.02,-4.16 170.75,8.09 255.3,-0.109 90.13,-8.571 184.54,-0.239 274.79,4.16 26.05,1.301 49.23,6.66 73.62,12.371 43.16,10.34 73.84,37.809 105.58,66.937 20.1,18.313 42.45,33.543 57.8,56.243 13.91,20.578 23.31,47.089 26.87,71.949 3.33,23.058 6.3,44.351 5.11,67.422 -0.59,10.699 1.07,21.636 0.96,31.988 0,11.531 -4.76,22.59 -4.76,34.121 -0.12,7.731 2.85,15.219 3.68,22.828 1.31,10.711 -2.02,20.223 -2.37,31.633 -0.71,18.906 2.25,36.387 3.8,54.828 2.73,32.211 1.19,65.149 2.5,97.031 2.25,50.059 -2.5,100.59 -2.5,151.249 0,66.47 -2.49,133.9 -5.11,200.48 -1.31,35.2 4.04,69.8 2.5,105 -1.9,43.04 9.15,86.45 5.22,129.62 -4.04,43.63 -5.22,83.71 1.08,126.75 2.37,15.58 4.16,28.54 2.62,44.48 -3.1,30.55 -6.31,60.51 -6.31,91.56 0,70.16 -8.68,142.57 -1.31,212.84 6.06,58.03 1.43,117.37 0.96,175.64 -0.37,58.62 0.59,117.95 4.16,176.94 3.92,63.5 -9.28,126.16 -6.42,190.25 2.37,53.75 2.61,108.57 2.61,162.67 0,30.92 0,61.72 0,92.64 0,12.24 -1.66,24.61 -2.14,36.85 -0.35,14.63 3.69,26.99 3.92,41.33 0.72,43.1 -6.77,86.02 -4.39,129.19 2.61,45.01 3.8,90.08 3.8,135.03 0,134.46 -3.93,270.81 2.62,405.36 1.78,35.74 -8.32,76.37 -2.5,111.27 4.04,24.02 3.21,46.14 -10.58,70.58 -13.44,23.9 -29.49,43.37 -39.96,69.56 -18.07,45.01 -49.46,103.13 -94.42,126.88 -56.95,30.11 -112.24,61.38 -178.24,62.1 -56,0.62 -111.77,2.85 -167.66,0 -25.09,-1.28 -50.31,-2.41 -74.92,-4.79 -36.27,-3.51 -74.44,-0.3 -111.29,-0.3 -51.73,0 -102.87,1.31 -153.76,1.28 -50.89,-0.03 -101.66,-2.52 -153.16,-2.52 -24.49,0 -52.31,-3.57 -75.51,-0.03 -21.52,3.26 -45.06,4.13 -66.94,5.14 -14.86,0.68 -29.84,2.08 -44.83,1.93 -17.6,-0.18 -30.92,-7.19 -46.5,-8.92 -27.7,-3.09 -58.74,2.41 -86.68,2.47 -30.32,0.09 -60.64,-0.59 -90.85,-1.87 -56.72,-2.44 -114.15,-6.48 -171.23,-6.36 -33.17,0.05 -67.78,-3.78 -100.59,1.25 -18.32,2.79 -36.63,6.36 -55.18,7.34 -59.22,3.15 -119.15,5.94 -177.77,5.38 -55.89,-0.54 -111.07,-7.82 -167.43,-10.17 -42.09,-1.75 -84.19,8.83 -126.17,4.14 -41.37,-4.64 -83.23,-1.97 -125.33,-4.14 -54.58,-2.85 -110.19,1.43 -164.89,-2.53 -106.76,-7.7 -213.03,7.61 -319.61,7.61 -33.02,0 -65.55,4.31 -98.46,1.28 -18.75,-1.72 -37.63,2.83 -56.36,0.71 -21.7,-2.4 -42.95,-4.9 -65.01,-5.88 -52.32,-2.32 -104.67,-3.39 -157.03,-3.84 -104.9,-0.89 -209.84,0.75 -314.75,-0.26 -47.15,-0.45 -94.3,-1.43 -141.42,-3.42 -39.09,-1.63 -77.56,5.67 -116.68,2.61 -31.18,-2.4 -62.07,-8.02 -93.79,-6.42 -48.75,2.5 -98.28,7.49 -147.21,10.17 -32.97,1.81 -70.34,2.97 -102.44,-1.25 -16.53,-2.17 -31.66,-0.71 -48.49,-1.31 -13.52,-0.47 -26.75,-4.16 -39.89,-6.12 -13.82,-2.05 -27.08,0.8 -40.99,0.09 -19.24,-1.01 -39.18,2.11 -58.6,3.48 -45.21,3.18 -90.46,0.21 -135.74,2.5 -66.91,3.36 -134.9,-2.92 -201.93,0.05 -47.01,2.08 -94.03,2.44 -141.06,2.56 -16.41,0.03 -32.41,4.43 -48.67,2.67 -13.91,-1.51 -27.29,-5.82 -40.84,-9 -28.51,-6.66 -59.25,-18.05 -85.05,-32.02 -25.33,-13.73 -45.01,-29.4 -59.58,-54.58 -11.89,-20.57 -28.56,-38.35 -37.78,-60.55 -9.01,-21.67 -9.4,-46.64 -11.65,-69.77 -1.58,-15.91 -1.88,-30.92 -2.29,-46.71 -0.36,-15.13 2.26,-29.69 2.32,-44.89 0.05,-13.52 -4.37,-27.67 -5.15,-41.29 -1.63,-28.89 -1.13,-57.82 -2.55,-86.47 -1.94,-38.98 4.75,-76.97 5.11,-115.5 0.33,-35.26 -1.13,-69.44 -2.56,-104.37 -2.5,-61.3 -3.33,-123.13 -6.33,-184.85 -1.72,-35.17 -2.53,-70.63 -2.53,-106.25 0,-39.41 5.09,-78.06 5.06,-116.94 -0.06,-62.19 -2.17,-125.22 3.8,-186.81 3.87,-39.83 -6.27,-80.26 -9.93,-119.75 -4.01,-43.63 2.32,-88.1 2.32,-131.99 0,-42.21 -0.06,-83.83 1.28,-125.8 2.44,-77.06 -2.35,-153.99 -2.53,-230.69 -0.17,-64.56 -0.09,-129.25 -0.06,-193.94 0.03,-29.73 -3.38,-61.72 -0.24,-91.21 3.01,-27.82 0.81,-52.31 0.3,-80.38 -0.62,-34.6 -7.61,-68.73 -7.61,-103.69 0,-88.83 3.57,-176.47 3.81,-265.05 0.17,-67.9 -0.74,-136.39 -2.53,-204.17 -0.8,-30.8 1.04,-61.36 2.56,-91.68 0.92,-18.79 -6.99,-36.749 -3.86,-55.538 3.83,-23.063 8.91,-46.731 8.91,-70.872 0,-12.718 0,-25.441 0,-38.289 0,-26.632 0,-53.269 0,-79.902 0,-68.019 -0.47,-136.508 2.53,-204.527 0.74,-16.762 2.23,-36.864 10.14,-51.961 6.42,-12.129 15.52,-23.301 22.53,-35.43 18.13,-31.633 37.37,-60.652 67.24,-82.531 28.01,-20.449 59.07,-35.68 86.81,-55.762 19.59,-14.277 41.47,-20.219 64.42,-22.84 3.06,-0.359 6.66,0.832 9.95,1.071 1.04,-4.278 -1.18,-3.45 -3.62,-4.879"
         style="fill:none;stroke:#121213;stroke-width:30;stroke-linecap:round;stroke-linejoin:miter;stroke-miterlimit:4;stroke-dasharray:none;stroke-opacity:1"
         id="path16" /><path
         d="m 2106.48,334.43 c 4.16,-19.258 -4.63,-54.692 16.44,-72.289 27.11,-22.711 86.39,-13.922 119,-13.922 38.86,0 76.91,3.812 115.76,3.812 33.03,0 65.76,-1.312 98.61,-1.312 45.45,0 91.44,-2.258 136.27,0 18.04,0.832 45.15,-6.77 52.02,15.222 5.56,17.719 -1.45,40.188 -1.57,58.387"
         style="fill:none;stroke:#121213;stroke-width:30;stroke-linecap:round;stroke-linejoin:miter;stroke-miterlimit:4;stroke-dasharray:none;stroke-opacity:1"
         id="path18" /><path
         d="m 5737.8,334.32 c 2.5,-19.031 -3.68,-46.859 15.58,-58.031 25.93,-15.219 66.36,-5.598 94.77,-4.039 76.23,3.922 153.64,-5.949 229.62,1.539 43.75,4.281 88.7,-9.391 133.18,-2.848 18.07,2.618 30.8,5.231 40.91,21.52 11.05,17.949 5.58,31.75 3.08,51.969 -2.85,-0.25 -5.11,-1.668 -7.24,-3.7"
         style="fill:none;stroke:#121213;stroke-width:30;stroke-linecap:round;stroke-linejoin:miter;stroke-miterlimit:4;stroke-dasharray:none;stroke-opacity:1"
         id="path20" /><path
         d="m 6022.83,694.969 c 30.32,4.871 64.21,-0.949 95.61,-0.949 25.56,0 51.01,0.121 76.34,-0.95 44.83,-2.019 89.18,-0.949 134.13,-0.949 27.11,0 53.98,-0.961 81.1,-0.961 20.93,0 41.26,2.738 61.59,1.91 36.74,-1.66 62.19,7.141 88.71,33.172 14.98,14.746 19.38,30.688 26.63,48.637 2.98,7.383 8.92,13.312 11.19,20.93 2.49,7.961 0.35,16.531 0.23,24.73 -0.12,33.18 5.95,63.742 3.81,97.031 -2.02,33.301 4.28,65.532 2.62,99.65 -1.31,30.44 -5.48,61.72 -5.48,92.75 0,20.33 1.19,41.5 -1.66,61.59 -3.81,27.71 0.71,51.73 2.73,79.2 2.14,30.44 -2.02,60.88 -2.02,91.32 0,74.2 -0.71,149.11 5.47,223.08 1.79,21.52 -1.91,41.62 -2.62,62.78 -0.35,14.28 0,28.66 0,43.05 0,20.57 3.81,40.91 3.58,61.48 -0.13,19.74 -1.67,38.64 -2.62,58.38 -1.08,24.02 -0.25,48.52 1.89,72.3 5.95,65.99 1.91,131.75 1.91,198.1 0,62.32 -3.68,123.91 -3.8,186.22 0,19.62 1.89,39.47 2.85,59.22 3.93,73.72 0.95,147.09 0.95,221.29 0,59.45 0,118.79 0,178.24 0,34.61 3.09,69.69 -0.12,104.17 -2.85,30.8 -5.59,60.23 -5.59,91.51 0,68.19 3.33,137.36 6.42,205.44 1.07,23.01 6.19,44.38 5.95,67.81 -0.24,29.43 -3.8,58.23 -3.8,88.03 0,25.11 -0.13,50.53 1.06,75.35 3.57,76.16 4.52,171.27 -64.8,218.83 -35.79,24.56 -72.54,24.73 -114.15,24.73 -37.35,0 -74.45,-0.41 -111.31,0.95 -35.2,1.31 -70.04,-1.9 -105.35,-1.9 -46.14,0 -92.03,-0.95 -138.06,-0.95 -35.19,0 -63.86,0.98 -93.34,-16.95 -24.97,-15.25 -52.56,-40.07 -58.03,-69.62 -2.73,-15.1 0,-31.87 -0.71,-46.82 -0.72,-15.81 -0.24,-31.15 -2.15,-46.4 -4.16,-33.12 -2.14,-68.44 -3.8,-101.79 -3.33,-67.54 1.91,-135.98 1.91,-202.86 0,-38.17 -3.93,-76.16 -3.81,-113.71 0.12,-45.24 3.56,-90.31 7.72,-135.32 1.31,-14.69 -0.47,-28.36 0.84,-42.87 1.31,-13.31 5.47,-27.11 4.76,-40.55 -0.71,-14.98 -3.69,-30.55 -5,-45.66 -2.14,-25.32 -0.47,-51.01 -1.9,-76.34 -2.86,-57.2 -5.47,-113.92 -5.47,-171.35 0,-59.33 5.71,-118.2 5.71,-177.54 0,-17.23 1.66,-35.43 0.12,-52.56 -1.79,-19.5 -4.88,-38.76 -5.83,-58.26 -0.47,-10.47 0.95,-21.52 0.95,-32.11 0.12,-17.12 -1.67,-34.71 -0.95,-52.31 3.33,-71.47 0,-143.64 0,-215.7 0,-50.19 0,-100.25 0,-150.43 0,-20.34 0.24,-40.43 -2.86,-60.65 -2.5,-16.29 -0.11,-29.84 0,-46.01 0.24,-15.22 -2.73,-30.44 -2.85,-45.9 -0.11,-42.34 0,-84.9 0,-127.47 0,-80.75 5.11,-162.08 1.66,-242.58 -2.97,-70.27 -0.94,-140.79 2.39,-210.95 1.54,-33.05 3.56,-66.109 3.56,-99.171 0.12,-16.047 -5.23,-31.629 -5.59,-47.571 -0.23,-14.629 0.83,-30.91 2.97,-45.418 0.96,-6.66 1.19,-13.32 2.62,-19.98 3.33,-15.57 14.98,-27.699 24.97,-39.711 11.07,-13.32 22,-30.918 35.91,-40.188 13.92,-9.39 29.02,-7.851 44.47,-9.281 -1.3,1.07 -2.01,0.238 -3.56,0.719"
         style="fill:none;stroke:#121213;stroke-width:30;stroke-linecap:round;stroke-linejoin:miter;stroke-miterlimit:4;stroke-dasharray:none;stroke-opacity:1"
         id="path22" /><path
         d="m 6164.57,3042.72 c 13.56,19.08 28.43,39.18 46.86,55.17 18.54,16.11 36.62,33.8 53.03,52.29 14.5,16.23 32.35,27.56 48.27,41.89 12.85,11.44 25.34,23.84 39.01,34.42 13.08,10.17 22,18.73 40.19,16.94 18.55,-1.84 22.71,-11.83 32.35,-25.68 9.63,-13.94 14.62,-24.37 4.04,-39.21 -9.76,-13.65 -19.38,-26.79 -29.01,-40.73 -30.69,-44.98 -81.7,-73.9 -119.63,-112.22 -18.31,-18.49 -36.87,-36.77 -54.22,-56.16 -15.7,-17.36 -35.56,-31.57 -50.42,-49.4 -11.78,-14.15 -24.85,-28.42 -36.87,-43.05 -10.34,-12.72 -17.12,-19.86 -34.48,-19.73 -17.71,0.11 -24.49,6.89 -37.81,19.26 -9.99,9.39 -21.89,21.17 -17.6,35.9 9.28,31.28 39.36,52.86 57.32,78.96 9.03,13.17 20.09,22.78 31.15,32.56 11.3,10.08 19.27,19.29 32.34,24.58 -1.9,-0.59 -1.66,-1.81 -2.62,-2.94"
         style="fill:none;stroke:#121213;stroke-width:30;stroke-linecap:round;stroke-linejoin:miter;stroke-miterlimit:4;stroke-dasharray:none;stroke-opacity:1"
         id="path24" /><path
         d="m 6062.78,2977.11 c -12.24,19.02 -30.79,29.42 -39.24,51.54 -7.85,20.9 -7.25,43.37 -5.46,65.43 2.13,25.93 14.5,48.07 20.92,73.25 4.99,19.15 14.63,38.29 23.78,56.13 11.78,22.95 37.23,34.75 57.8,49.7 19.02,13.79 37.1,28.27 58.98,36.66 23.3,8.98 53.51,9.72 78.48,9.72 22.95,0 45.78,-0.6 66.23,-11.45 17.24,-9.18 35.2,-18.79 54.58,-23.96 16.77,-4.43 30.45,-11.27 43.52,-23.57 13.56,-12.6 25.92,-27.35 37.1,-41.8 11.65,-14.83 23.31,-29.49 27.82,-47.83 10.83,-43.43 17.01,-89.63 9.05,-135.11 -3.81,-22.39 -14.75,-45.87 -23.79,-66.33 -9.4,-21.16 -25.57,-36.27 -42.33,-52.32 -30.2,-29.01 -58.27,-51.12 -97.27,-65.4 -8.32,-3.09 -15.81,-6.9 -24.61,-9.03 -11.3,-2.86 -23.66,-1.61 -35.32,-2.62 -16.06,-1.49 -32.81,0.48 -48.52,2.79 -29.61,4.46 -61.24,10.88 -86.56,27.35 -16.06,10.52 -30.44,23.73 -43.53,37.4 -11.28,11.77 -25.45,23.96 -31.38,39.18 -3.45,8.98 -4.16,18.85 -8.09,28.12 -3.09,7.32 -5.95,14.15 -7.49,22.03 -4.4,-3.36 0.12,-14.3 2.02,-18.93"
         style="fill:none;stroke:#121213;stroke-width:30;stroke-linecap:round;stroke-linejoin:miter;stroke-miterlimit:4;stroke-dasharray:none;stroke-opacity:1"
         id="path26" /><path
         d="m 6212.14,2215.13 c 5.35,4.04 -0.24,16.52 -0.95,22.83 -1.31,12.72 0.83,24.49 1.9,37.1 1.42,17.48 2.61,34.96 0.71,52.43 -4.28,40.08 -7.61,83.13 -3.57,123.56 3.7,36.62 -0.94,74.2 -0.94,111.29 0,20.45 9.51,27.48 27.59,34.37 15.33,5.95 31.15,4.16 46.61,0.83 21.52,-4.64 19.02,-22.12 19.02,-41.14 0,-21.64 2.73,-42.34 4.76,-63.5 2.25,-22.47 0.83,-46.01 1.9,-68.49 1.31,-24.73 4.76,-49.47 3.56,-74.2 -2.61,-54.7 3.1,-109.76 3.1,-164.57 0.12,-29.38 3.8,-75.39 -35.2,-77.05 -12.84,-0.6 -31.87,-5.72 -44.47,-1.67 -13.68,4.27 -17.13,18.78 -20.21,31.15 -7.38,29.01 -13.21,61.95 -5.83,91.8 -1.19,-3.21 -1.19,-6.77 0.11,-9.99"
         style="fill:none;stroke:#121213;stroke-width:30;stroke-linecap:round;stroke-linejoin:miter;stroke-miterlimit:4;stroke-dasharray:none;stroke-opacity:1"
         id="path28" /><path
         d="m 6194.06,2162.8 c -25.45,0 -46.49,5.24 -67.54,19.98 -14.51,10.11 -22.71,27.23 -32.11,41.86 -10.22,16.17 -23.66,29.73 -32.34,46.85 -9.63,18.78 -14.27,39.83 -17.6,60.41 -5.94,37.33 -11.41,78.36 -2.85,116.53 3.57,15.69 7.97,29.61 14.39,44.35 5.23,11.89 12.37,17.95 20.21,27.94 13.09,16.77 23.55,35.2 41.74,47.57 44.72,30.44 92.99,50.3 146.26,60.4 26.28,5 54.58,0.84 78.95,-9.26 4.64,-1.91 8.69,-4.76 13.57,-6.43 12.36,-4.52 26.27,-2.62 38.4,-7.85 9.52,-4.16 15.7,-11.65 22.48,-18.78 29.25,-30.8 62.55,-64.93 77.29,-105.96 7.01,-19.37 9.15,-39.12 13.79,-59.09 5.59,-23.55 7.49,-48.52 4.28,-73.02 -3.92,-28.77 -8.44,-55.17 -23.3,-80.86 -10.11,-17.6 -27.82,-34 -42.57,-48.51 -24.26,-24.13 -52.44,-39.72 -81.82,-54.22 -14.74,-7.37 -33.05,-10.11 -49.7,-11.42 -18.2,-1.54 -34.84,-4.75 -53.03,-3.81 -15.7,0.84 -31.52,-1.3 -46.86,1.67 -6.66,1.31 -14.5,1.66 -20.68,4.16 -5.48,2.39 -8.93,6.78 -14.99,7.38 -1.31,-8.21 5.47,-17.37 11.18,-22.72"
         style="fill:none;stroke:#121213;stroke-width:30;stroke-linecap:round;stroke-linejoin:miter;stroke-miterlimit:4;stroke-dasharray:none;stroke-opacity:1"
         id="path30" /><path
         d="m 5982.88,1788 c 24.73,0 62.78,1.79 92.16,1.9 38.05,0 75.38,-9.16 113.32,-7.61 30.32,1.19 59.09,7.85 90.13,6.42 32.47,-1.42 65.76,-1.78 98.22,-1.66 51.49,0.12 102.86,-2.03 153.87,-3.81 -1.43,0 -2.97,-0.11 -4.52,0"
         style="fill:none;stroke:#121213;stroke-width:30;stroke-linecap:round;stroke-linejoin:miter;stroke-miterlimit:4;stroke-dasharray:none;stroke-opacity:1"
         id="path32" /><path
         d="m 5985.73,1714.75 c 15.46,7.02 40.43,7.97 58.15,7.85 15.57,-0.24 32.58,0.71 48.63,-0.24 39.13,-2.26 80.62,-3.69 119.75,0 41.26,3.8 83.24,-1.9 124.73,-1.9 45.19,0 89.9,-3.81 134.85,-3.81 20.57,0 41.27,-1.42 61.48,-1.9 -1.19,-0.12 -2.38,-0.47 -3.46,-0.95"
         style="fill:none;stroke:#121213;stroke-width:30;stroke-linecap:round;stroke-linejoin:miter;stroke-miterlimit:4;stroke-dasharray:none;stroke-opacity:1"
         id="path34" /><path
         d="m 5979.07,1645.3 c 9.76,6.19 31.99,2.39 43.05,1.91 22.24,-1.19 44.24,1.07 66.35,-0.24 45.54,-2.73 91.21,-4.28 136.74,-6.42 32.47,-1.66 64.58,2.25 96.8,3.81 31.04,1.42 61.84,1.66 92.76,2.85 24.25,0.83 48.38,2.14 72.52,1.9 9.05,-0.11 17.49,1.55 26.4,1.19 6.07,-0.36 16.3,-1.67 19.98,-1.19"
         style="fill:none;stroke:#121213;stroke-width:30;stroke-linecap:round;stroke-linejoin:miter;stroke-miterlimit:4;stroke-dasharray:none;stroke-opacity:1"
         id="path36" /><path
         d="m 5984.79,1581.57 c 5.7,4.16 28.05,2.14 37.33,2.86 13.2,0.94 23.9,-1.08 36.86,-2.62 15.46,-1.91 31.75,0.71 47.45,-0.95 16.88,-1.9 32.82,1.3 49.94,2.37 25.45,1.55 51.73,-0.71 77.41,-0.71 39.35,0 79.07,0.95 118.44,-0.95 60.28,-2.98 125.45,-2.86 183.36,-2.86"
         style="fill:none;stroke:#121213;stroke-width:30;stroke-linecap:round;stroke-linejoin:miter;stroke-miterlimit:4;stroke-dasharray:none;stroke-opacity:1"
         id="path38" /><path
         d="m 5980.98,1508.32 c 18.19,-1.54 47.92,2.97 70.15,1.91 29.96,-1.31 58.86,-5.6 88.71,-5.72 36.86,-0.23 74.32,5.95 111.19,2.85 27.34,-2.37 55.04,-1.66 82.88,-1.89 42.8,-0.48 85.48,-0.96 128.3,-0.96 12.96,0 70.39,-7.13 73.37,-0.94"
         style="fill:none;stroke:#121213;stroke-width:30;stroke-linecap:round;stroke-linejoin:miter;stroke-miterlimit:4;stroke-dasharray:none;stroke-opacity:1"
         id="path40" /><path
         d="m 5985.73,1437.92 c 0.95,4.29 73.01,5.71 82.52,5.71 41.14,0 82.05,0 123.08,0 37.21,0 73.72,-4.75 110.95,-4.75 43.51,0 86.44,-3.81 129.84,-3.81 21.05,0 41.5,1.9 62.31,0.83 10.71,-0.47 28.9,3.21 38.29,-0.83"
         style="fill:none;stroke:#121213;stroke-width:30;stroke-linecap:round;stroke-linejoin:miter;stroke-miterlimit:4;stroke-dasharray:none;stroke-opacity:1"
         id="path42" /><path
         d="m 5980.98,1374.19 c 10.46,6.78 27.58,2.26 39,0.71 18.43,-2.5 36.98,-2.5 55.65,-1.67 26.27,1.2 51.97,2.5 78.24,3.7 34.25,1.54 66.71,1.3 100.6,-1.79 30.79,-2.85 62.9,-4.16 93.7,-2.85 58.86,2.61 126.64,0.94 180.75,0.94"
         style="fill:none;stroke:#121213;stroke-width:30;stroke-linecap:round;stroke-linejoin:miter;stroke-miterlimit:4;stroke-dasharray:none;stroke-opacity:1"
         id="path44" /><path
         d="m 5983.83,1301.9 c 6.54,4.75 23.06,3.08 31.15,3.79 16.53,1.56 33.3,0.72 49.94,0.96 35.09,0.35 70.76,0.71 105.6,-3.81 56.36,-7.49 111.89,-2.73 169.09,0 64.34,2.97 132.11,-2.85 194.06,-2.85"
         style="fill:none;stroke:#121213;stroke-width:30;stroke-linecap:round;stroke-linejoin:miter;stroke-miterlimit:4;stroke-dasharray:none;stroke-opacity:1"
         id="path46" /><path
         d="m 5982.88,1236.25 c 4.4,-3.21 30.92,1.31 38.76,1.91 17.36,1.3 35.32,2.85 52.56,2.85 34.73,-0.12 69.33,0.59 103.69,-0.95 25.8,-1.31 52.32,-1.67 78.01,-2.98 29.73,-1.42 59.81,-1.78 89.42,-1.78 39.95,0 80.15,0.95 119.86,2.86 23.07,1.07 50.78,-2.26 71.34,-0.95"
         style="fill:none;stroke:#121213;stroke-width:30;stroke-linecap:round;stroke-linejoin:miter;stroke-miterlimit:4;stroke-dasharray:none;stroke-opacity:1"
         id="path48" /><path
         d="m 5982.88,1168.71 c 4.4,2.62 8.92,1.79 13.91,1.91 10.1,0 19.74,2.25 29.85,1.9 15.33,-0.59 30.08,-1.67 45.65,-1.07 28.43,1.31 56.02,1.07 84.56,1.07 62.78,0 125.21,-2.86 187.63,-2.86 62.07,-0.12 124.03,-0.95 186.34,-0.95"
         style="fill:none;stroke:#121213;stroke-width:30;stroke-linecap:round;stroke-linejoin:miter;stroke-miterlimit:4;stroke-dasharray:none;stroke-opacity:1"
         id="path50" /><path
         d="m 5980.98,1096.42 c 10.34,3.2 21.16,-0.72 31.38,-0.96 17.25,-0.6 35.09,2.14 52.33,3.57 42.21,3.45 83.95,2.61 126.29,2.03 16.75,-0.25 33.52,4.39 50.52,3.91 18.68,-0.58 37.35,0 56.25,0 21.17,0 42.46,0 63.62,-1.06 26.4,-1.31 52.56,-2.98 78.84,-4.64 30.91,-2.14 62.54,0 93.46,0"
         style="fill:none;stroke:#121213;stroke-width:30;stroke-linecap:round;stroke-linejoin:miter;stroke-miterlimit:4;stroke-dasharray:none;stroke-opacity:1"
         id="path52" /><path
         d="m 5978.13,1028.87 c 6.66,-1.07 12.12,3.57 19.02,2.86 4.28,-0.48 7.13,-3.1 11.41,-3.93 14.04,-2.5 33.54,2.03 47.56,3.81 36.04,4.63 73.14,3.92 109.41,3.92 65.99,0 131.63,-4.99 197.99,-2.02 34.23,1.55 67.77,0.12 102.25,0.12 19.86,0 46.86,3.32 65.05,-1.9"
         style="fill:none;stroke:#121213;stroke-width:30;stroke-linecap:round;stroke-linejoin:miter;stroke-miterlimit:4;stroke-dasharray:none;stroke-opacity:1"
         id="path54" /><path
         d="m 5982.88,959.43 c 20.93,-5.942 45.19,2.73 67.31,1.66 14.02,-0.59 26.03,-2.731 40.3,-0.949 18.79,2.257 37.22,1.898 56.01,2.148 61,0.59 121.29,3.082 181.81,0.941 22.12,-0.832 44.24,1.911 66.48,1.911 19.38,0 37.57,-3.692 57.08,-2.852 24.85,0.941 53.38,2.852 76.1,2.852"
         style="fill:none;stroke:#121213;stroke-width:30;stroke-linecap:round;stroke-linejoin:miter;stroke-miterlimit:4;stroke-dasharray:none;stroke-opacity:1"
         id="path56" /><path
         d="m 1817.23,5572.8 c -1.75,0.45 -2.29,2.27 -3.74,0.33 13.61,-8.98 28.15,-16.65 42.77,-24.4 61.24,-32.53 117.64,-71.85 180.33,-102.74 34.99,-17.28 66.83,-39.33 100.04,-59.94 40.01,-24.88 83.89,-44.02 122,-70.72 31.75,-22.23 65.96,-35.34 99.91,-53.27 34.9,-18.43 73.19,-32.79 106.84,-53.6 32.85,-20.3 69.41,-35.28 102.74,-55.8 19.59,-12.03 40.31,-17.48 57.91,-32.73 4.7,-4.07 3.98,-4.75 10.35,-8 6.42,-3.23 13.97,-4.98 20.6,-8.11 12.57,-5.97 24.61,-13.17 36.38,-20.6 32.23,-20.33 61.66,-44.18 95.17,-62.22 31.32,-16.92 59.8,-35.44 90.04,-54.49 29.61,-18.67 58.53,-36.66 88.79,-53.57 14.12,-7.91 28.54,-13.79 43.44,-20.3 15.22,-6.66 26.9,-16.09 40.58,-25.12 21.55,-14.24 42.06,-28.63 65.01,-40.82 27.98,-14.83 57.28,-27.86 84.28,-44.09 32.19,-19.38 63.35,-40.67 95.51,-59.63 27.86,-16.44 60.11,-23.16 88.29,-38.82 28.96,-16.12 53.93,-38.65 81.93,-56.31 29.02,-18.28 59.9,-33.38 88.8,-52.97 37.4,-25.36 80.71,-43.23 120.51,-64 25.36,-13.24 45.84,-30.78 72,-43.14 27.92,-13.23 53.99,-32.34 81.25,-47.9 20.66,-11.8 41.21,-17.14 63.41,-25.35 19.86,-7.35 38.83,-20.04 54.16,-34.54 22.57,-21.26 46.05,-39.04 73.52,-54.23 64.03,-35.37 129.26,-69.44 194.42,-102.71 28.8,-14.71 51.6,-37.18 78.9,-53.03 11.65,-6.78 23.01,-14.95 35.19,-20.31 10.29,-4.48 21.56,-5.82 32.26,-8.85 9.28,-2.62 18.31,-9.6 27.47,-11.45 18.19,-3.66 43.76,14.57 60.65,21.2 57.66,22.68 125.56,37.58 186.44,46.61 62.07,9.22 126.89,12.87 189.9,9.93 48.28,-2.23 94.53,-4.46 141.15,-11.83 53.28,-8.44 110.11,-9.9 159.34,-31.81 35.91,-15.99 73.84,-27.08 110.82,-42.39 39.72,-16.44 69.09,-39.36 101.79,-65.17 30.92,-24.46 92.04,-44.68 110.83,-78.62 -1.91,-0.63 -3.69,-0.75 -5.71,-0.39"
         style="fill:none;stroke:#121213;stroke-width:30;stroke-linecap:round;stroke-linejoin:miter;stroke-miterlimit:4;stroke-dasharray:none;stroke-opacity:1"
         id="path58" /><path
         d="m 1793.15,5561.39 c -11.32,0.38 -21.85,-3.36 -32.99,-2.53 -12.25,0.93 -15.79,6.75 -24.09,14.03 -18.57,16.24 -27.64,27.12 -16.85,50.96 8.89,19.56 19.68,37.96 42.21,41.56 21.52,3.41 48.64,-0.45 62.52,-19.03 12.25,-16.44 16.47,-44.68 3.45,-61.86 -5.23,-6.87 -15.46,-14.89 -23.07,-19.06 -7.07,-3.86 -22.59,-3.53 -26.4,-6.6"
         style="fill:none;stroke:#121213;stroke-width:30;stroke-linecap:round;stroke-linejoin:miter;stroke-miterlimit:4;stroke-dasharray:none;stroke-opacity:1"
         id="path60" /><path
         d="m 4171.33,3951.82 c 15.16,24.37 47.15,49.13 70.99,64.62 21.02,13.62 39.63,28.3 59.67,43.14 17.3,12.84 34.72,25.92 53.24,36.77 16.89,9.9 34.96,13.65 52.2,20.45 1.66,0.06 -0.95,-0.98 -1.42,-1.36"
         style="fill:none;stroke:#121213;stroke-width:30;stroke-linecap:round;stroke-linejoin:miter;stroke-miterlimit:4;stroke-dasharray:none;stroke-opacity:1"
         id="path62" /><path
         d="m 5134.09,4158.57 c 4.04,13.91 29.61,34.87 40.31,45.4 14.75,14.62 33.3,24.88 50.06,37.01 35.21,25.56 65.65,55.71 95.85,86.33 44.71,45.33 79.67,101.25 124.86,147.09 27.82,28.27 59.93,51.75 87.52,80.17 24.01,24.83 46.25,52 73.24,73.22 47.8,37.52 81.57,84.94 129.37,120.87 22.83,17.16 40.91,40.4 59.82,62.17 25.33,29.07 58.5,52.02 86.09,79.61 26.88,26.96 55.77,49.79 83.95,75.09 24.02,21.49 43.4,47.71 66.71,69.53 13.91,13.02 28.89,26.13 43.4,39.3 14.51,13.29 25.45,29.67 40.67,43.11 14.98,13.34 27.11,29.22 41.97,43.1 22.83,21.2 48.88,37.93 69.69,60.97 9.28,10.37 17.48,16.56 29.01,25.33 14.39,10.82 28.3,22.54 39.6,35.05 -0.84,-0.89 -1.79,-1.61 -2.86,-2.11"
         style="fill:none;stroke:#121213;stroke-width:30;stroke-linecap:round;stroke-linejoin:miter;stroke-miterlimit:4;stroke-dasharray:none;stroke-opacity:1"
         id="path64" /><path
         d="m 6271.84,5283.61 c 1.89,0.15 2.73,-2.25 3.91,1.31 -15.21,11.09 -26.28,37.55 -15.46,56.99 11.42,20.54 43.65,27.56 64.82,25.41 48.15,-4.87 65.63,-83.68 16.52,-101.51 -23.54,-8.56 -50.17,1.51 -64.69,18.73 -0.35,-1.19 -0.71,-2.35 -1.31,-3.45"
         style="fill:none;stroke:#121213;stroke-width:30;stroke-linecap:round;stroke-linejoin:miter;stroke-miterlimit:4;stroke-dasharray:none;stroke-opacity:1"
         id="path66" /></g><path
       transform="matrix(0.75000002,0,0,-0.75000002,164.28238,568.16095)"
       id="path941"
       d="m 565.13407,233.16522 c -52.07388,0.50697 -104.14905,0.56895 -156.21953,-0.0152 -121.07177,0.29492 -242.14111,2.09951 -363.213082,1.14112 -11.679463,-0.20444 -25.516682,0.49987 -32.866553,11.09272 -5.4262993,5.93556 -7.91086,13.7311 -7.2560059,21.71335 -2.5776519,75.54736 -0.9119158,151.14708 -2.0474387,226.71709 -0.015796,59.87699 -0.9292936,119.78243 0.6237442,179.64198 -0.7288477,13.41681 8.0291484,25.51272 19.3072714,31.97575 5.011908,3.7754 10.72841,6.59473 17.184924,5.62344 154.57791,1.45715 309.16924,0.80783 463.75197,0.50802 47.55016,-0.40624 95.1393,0.0728 142.66277,-1.3842 10.63827,-2.22658 19.56279,-9.78522 26.29513,-17.94361 4.99942,-11.79485 2.58188,-25.2215 3.44789,-37.68713 0.50513,-128.21784 0.32187,-256.43721 0.40328,-384.65576 -5.63208,-9.73225 -9.03164,-22.14571 -18.8616,-28.71057 -8.03814,-3.99805 -15.83573,-10.21758 -25.31921,-8.47208 -22.63118,0.1517 -45.26238,0.3034 -67.89356,0.4551 z M 235.6933,272.63678 c 76.39255,0.35377 152.80502,-0.36516 229.18221,1.37961 17.65941,1.11423 35.56937,0.17233 52.84967,3.86348 22.92998,5.93285 38.61803,29.4325 37.08797,52.8073 0.51151,23.56058 2.35052,46.99761 2.03235,70.61311 0.13241,52.13734 1.00604,104.32375 -1.02757,156.42949 -2.40358,25.56512 -2.20702,51.45906 -6.9986,76.7084 -3.28848,11.50843 -10.44384,22.09216 -19.89906,29.34579 -20.35103,11.37641 -44.554,8.40143 -66.91231,10.21227 -42.63697,3.24654 -85.41992,1.85801 -128.14354,3.00002 -18.47627,1.04729 -37.12398,-0.89518 -55.71175,-0.60781 -43.46993,-0.088 -86.8643,-2.25611 -130.3272,-2.6387 -20.67247,-0.97025 -41.58395,-0.18316 -61.799295,-4.63581 -13.315492,-4.88846 -27.97988,-13.96374 -30.989637,-28.81337 -7.751039,-35.47983 -9.529873,-71.95514 -9.6598,-108.13758 1.61352,-40.00942 -0.890331,-80.04064 0.652861,-120.05906 0.105209,-16.1153 2.800586,-32.13975 2.522844,-48.29614 1.600884,-19.09125 1.139688,-39.31235 9.240312,-57.0114 5.86734,-17.35366 22.225077,-31.68114 40.980504,-31.63135 45.506751,-3.08282 91.304021,-2.16811 136.920041,-2.52825 z m 391.57731,6.59519 c 9.49933,0.706 20.83212,-1.40368 28.55325,5.44819 5.10016,5.3107 7.93706,12.36322 6.60125,19.77755 -0.56944,113.15602 -0.43487,226.31887 -1.34421,339.47099 0.9064,8.06824 -2.36722,17.07747 -10.13373,20.54027 -22.62351,1.80905 -45.87303,0.78525 -68.55251,0.33654 -6.51404,0.0823 -10.122,-7.11706 -12.58502,-12.25447 -1.11619,-35.38071 -0.1988,-70.92023 -0.33056,-106.35935 0.47736,-80.62549 0.90667,-161.25184 0.48831,-241.87714 0.33684,-7.37401 -0.74736,-16.9353 6.88548,-21.09799 5.30982,-5.3946 13.89426,-1.97721 20.71865,-3.29611 9.89739,-0.31181 19.79559,-0.66928 29.69909,-0.68848 z"
       style="fill:#ffffff;stroke-width:1.01955" /><path
       transform="matrix(0.75000002,0,0,-0.75000002,164.28238,568.16095)"
       id="path951"
       d="m 417.22049,201.05289 c -11.31302,0.15211 -22.61834,1.72516 -33.54813,4.64696 -4.58968,1.20493 -9.0132,2.94425 -13.29317,4.97961 -1.62467,0.86683 -3.47594,0.75238 -5.20912,1.20847 -3.79829,1.43616 -6.91033,4.17548 -10.2076,6.46822 -3.7385,2.9115 -7.77664,5.41285 -11.49377,8.34815 -1.69962,1.49406 -3.52092,3.01199 -4.66143,4.98662 0.22069,0.64034 1.28075,0.20654 1.80866,0.35201 6.66722,-0.27272 13.3403,-0.41697 20.01408,-0.48499 8.90222,-0.11195 17.81278,-0.21162 26.69908,-0.69637 5.35305,-0.19604 10.67203,0.81003 16.03379,0.47716 9.22023,-0.41047 18.41291,-1.56434 27.65833,-1.21914 7.40419,0.27219 14.85281,0.30281 22.19076,1.29816 2.18462,0.50446 4.39917,0.65109 6.63546,0.53796 9.38222,0.005 18.76595,-0.10222 28.13456,-0.64359 5.59098,-0.2518 11.18477,-0.43592 16.78019,-0.55334 0.48722,-0.87704 -0.51415,-1.95094 -1.28296,-2.46957 -4.47179,-3.20587 -9.6178,-5.37272 -13.87926,-8.89239 -3.93173,-3.08771 -8.16547,-5.85478 -12.89533,-7.55519 -5.03868,-1.90088 -10.08728,-3.76617 -15.089,-5.76266 -6.2742,-2.18564 -12.99076,-2.4231 -19.50145,-3.47003 -8.24432,-1.10714 -16.57868,-1.54675 -24.89369,-1.55605 z"
       style="fill:#ffffff;stroke-width:0.180232" /><path
       transform="matrix(0.75000002,0,0,-0.75000002,164.28238,568.16095)"
       id="path953"
       d="m 632.61272,327.02318 c -3.12088,0.73945 -5.21611,3.50847 -7.61971,5.43923 -4.46056,3.63566 -8.61084,7.61492 -12.61871,11.7394 -2.95465,2.7065 -5.64627,5.70654 -8.08086,8.8611 -0.99823,0.9406 -2.5059,1.15316 -3.37117,2.32617 -3.31742,2.99095 -5.98192,6.58933 -8.89325,9.95319 1.02672,1.62811 2.85015,2.90677 4.19675,4.39035 0.82757,0.52722 1.42522,1.84458 2.39446,1.97385 7.53422,-8.49602 15.68322,-16.46651 24.09192,-24.09764 4.04449,-3.34544 8.09362,-6.78569 11.02385,-11.19826 1.02552,-1.61684 2.52846,-3.09305 3.0704,-4.94132 -0.6782,-1.60046 -1.60329,-3.35913 -3.13978,-4.27433 -0.32981,-0.14481 -0.69534,-0.20188 -1.0539,-0.17174 z"
       style="fill:#ffffff;stroke-width:0.254886" /><path
       transform="matrix(0.75000002,0,0,-0.75000002,164.28238,568.16095)"
       id="path955"
       d="m 589.57152,368.75952 c -0.2553,0.42132 -0.41166,0.94768 -0.48367,1.42689 0.56408,1.39294 1.82802,2.31091 2.87513,3.32475 0.72042,0.65664 1.59327,1.25575 2.61719,1.18633 0.33544,-0.009 1.35189,0.16927 0.94098,-0.40085 -1.99635,-1.74376 -3.78576,-3.70811 -5.70604,-5.53254 -0.0818,-0.003 -0.16816,-0.0883 -0.24359,-0.005 z"
       style="fill:#ffffff;stroke-width:0.090116" /><path
       transform="matrix(0.75000002,0,0,-0.75000002,164.28238,568.16095)"
       id="path957"
       d="m 615.39679,412.6548 c -1.46436,0.0617 -2.99752,0.48849 -4.11841,1.46403 -0.78584,0.75597 -0.47642,1.94082 -0.54142,2.90676 0.0567,3.93236 0.38152,7.85355 0.19754,11.78859 -0.10577,2.07646 -0.31134,4.17151 -0.26102,6.26805 -0.0465,3.5063 0.0673,7.01559 0.48832,10.49912 0.44908,3.62138 0.22551,7.28916 -0.16644,10.91698 -0.15263,1.29305 -0.0699,2.62669 0.26014,3.87147 0.17347,0.97577 0.19444,2.07118 -0.47821,2.87474 -0.65606,0.50931 -0.37716,1.41487 -0.37851,2.12382 0.10441,1.20155 0.21151,2.42571 0.47633,3.5935 0.5101,0.22445 1.19361,0.045 1.7686,0.11553 2.82828,0.004 5.71018,0.17376 8.49374,-0.35322 0.22288,-0.4809 0.017,-1.13804 0.0747,-1.68528 -0.0144,-4.25619 -0.21675,-8.50934 -0.35301,-12.75956 -0.12825,-5.13011 0.031,-10.26582 -0.19124,-15.39321 -0.43207,-4.31895 -0.27455,-8.67902 -0.54317,-13.01709 -0.30322,-3.35884 -0.72298,-6.69895 -0.65076,-10.07316 -0.0799,-0.80358 0.10001,-1.74848 -0.40284,-2.44056 -0.82038,-0.52511 -1.8691,-0.51042 -2.80492,-0.66636 -0.28874,-0.0291 -0.57928,-0.04 -0.86941,-0.0341 z"
       style="fill:#ffffff;stroke-width:0.090116" /><path
       transform="matrix(0.75000002,0,0,-0.75000002,164.28238,568.16095)"
       id="path959"
       d="m 620.36918,472.59618 c -2.77533,0.23723 -5.57522,0.15169 -8.3623,0.22863 -0.42513,0.2147 0.0521,0.75205 0.12725,1.09143 0.29579,0.82353 1.22134,1.19695 2.043,1.04936 1.69488,-0.13494 3.40689,-0.24409 5.07141,-0.59984 0.68516,-0.23336 1.1861,-0.89043 1.41633,-1.55063 -0.0127,-0.16696 -0.14387,-0.2429 -0.29569,-0.21895 z"
       style="fill:#ffffff;stroke-width:0.090116" /><path
       transform="matrix(0.75000002,0,0,-0.75000002,164.28238,568.16095)"
       id="path967"
       d="m 614.38072,316.69534 c -3.45006,0.0323 -7.05988,0.16392 -10.19757,1.76364 -2.79469,1.42913 -5.18377,3.50227 -7.80143,5.21212 -1.68707,1.17786 -3.54079,2.22669 -4.84608,3.85654 -0.84083,1.17637 -1.39094,2.53028 -2.04003,3.81577 -0.84358,1.70111 -1.44456,3.50471 -1.9538,5.32986 -0.87348,2.98787 -2.309,5.86056 -2.48958,9.013 -0.17416,2.73889 -0.24173,5.64984 1.02034,8.16807 0.35014,0.6301 0.73593,1.30069 1.32689,1.72114 0.41897,-0.0744 0.6871,-0.47427 1.04257,-0.68774 0.20469,0.82135 0.28792,1.70164 0.54998,2.51563 0.77942,0.87349 1.58712,1.76643 2.08628,2.83148 0.3261,0.36103 0.63238,-0.19214 0.84814,-0.41606 1.42311,-1.62115 2.547,-3.49766 4.14675,-4.9643 1.45937,-1.34056 2.89376,-2.71265 4.41643,-3.98176 0.55247,-0.49736 1.24529,-0.79568 1.82196,-1.2531 0.80217,-0.93167 1.47773,-1.97145 2.28602,-2.895 1.62301,-2.00916 3.60309,-3.67583 5.48217,-5.43255 1.93423,-1.80595 3.74145,-3.73941 5.55765,-5.66154 1.97261,-1.9614 4.28528,-3.56687 6.34651,-5.44617 2.27308,-2.0427 4.48186,-4.16638 7.04471,-5.84605 1.48436,-0.94015 3.31552,-1.18052 5.02676,-0.8753 0.29532,0.0948 0.8559,0.13898 0.75955,-0.33105 -0.49182,-0.56274 -1.25653,-0.79097 -1.90181,-1.13678 -1.43626,-0.60795 -3.0053,-0.90385 -4.42665,-1.51843 -1.99381,-0.76727 -3.84052,-1.85468 -5.76993,-2.78042 -1.80605,-0.80502 -3.80538,-0.95562 -5.75757,-0.9754 -0.85928,-0.0188 -1.71878,-0.0282 -2.57826,-0.0256 z"
       style="fill:#c7b3f5;fill-opacity:1;stroke-width:0.0637216" /><path
       transform="matrix(0.75000002,0,0,-0.75000002,164.28238,568.16095)"
       id="path971"
       d="m 640.47223,329.36474 c -0.34382,0.18166 -0.0282,0.60164 0.008,0.87767 0.49548,1.64223 -0.0152,3.45214 -1.07642,4.76107 -1.56638,2.21004 -3.11074,4.43987 -4.72747,6.6151 -3.46152,4.38204 -8.10653,7.61491 -12.31744,11.23305 -2.65432,2.35273 -5.09525,4.93252 -7.58669,7.45373 -1.77167,1.85521 -3.47426,3.75713 -5.39045,5.46587 -1.65093,1.48001 -3.2375,3.03579 -4.64782,4.75026 -0.93379,1.13272 -1.9609,2.19288 -2.84051,3.36774 -0.15133,0.38146 0.40776,0.44287 0.63846,0.58233 3.44814,1.47484 7.19362,2.03965 10.89067,2.49141 1.65754,0.21364 3.3561,0.0434 5.03101,0.0203 1.34913,-0.0837 2.7535,0.0158 4.02619,-0.5259 2.92891,-1.09867 5.86852,-2.27247 8.44563,-4.07804 2.93804,-2.008 5.50292,-4.49956 8.03272,-6.9869 1.46027,-1.4535 2.76501,-3.10325 3.54604,-5.02668 1.32235,-2.99458 2.70065,-6.04605 3.03383,-9.34067 0.64946,-5.3151 -0.10358,-10.70256 -1.41292,-15.86142 -0.5574,-2.15649 -2.00295,-3.91305 -3.35136,-5.62754 -0.0792,-0.0922 -0.1633,-0.19387 -0.30106,-0.17138 z"
       style="fill:#c7b3f5;fill-opacity:1;stroke-width:0.0637216" /><path
       transform="matrix(0.75000002,0,0,-0.75000002,164.28238,568.16095)"
       id="path975"
       d="m 618.55793,408.63363 c -0.27913,-0.0546 -0.98425,0.0607 -0.62448,0.45622 1.06503,0.35893 2.25495,0.45456 3.19155,1.14387 1.48997,1.00491 2.0427,2.89917 1.97355,4.61895 -0.0586,3.76014 0.48062,7.48893 0.71638,11.23319 0.17055,4.3524 0.15223,8.72704 0.55857,13.06726 0.32963,4.01913 -0.0561,8.0651 0.0967,12.09825 0.11553,5.0313 0.39651,10.05232 0.44831,15.08572 0.0452,0.62678 -0.0125,1.2753 0.1221,1.88908 0.38957,0.23632 0.90334,-0.10099 1.32981,-0.13047 2.05531,-0.45889 3.87472,-1.58578 5.72412,-2.54625 2.7883,-1.51863 5.41142,-3.35895 7.64198,-5.62875 2.21669,-2.22255 4.6085,-4.45353 5.80553,-7.42694 1.26229,-3.08651 1.80258,-6.42106 2.10545,-9.72562 0.27021,-3.06587 -0.30531,-6.11492 -0.96361,-9.09208 -0.59618,-2.96647 -1.09806,-6.02686 -2.61244,-8.69518 -2.38008,-4.49867 -6.04484,-8.11449 -9.52592,-11.75872 -0.65893,-0.74985 -1.47693,-1.41585 -2.49874,-1.55278 -1.76326,-0.32043 -3.61651,-0.39614 -5.22848,-1.26666 -2.55601,-1.28165 -5.41243,-1.82194 -8.26042,-1.76909 z"
       style="fill:#c7b3f5;fill-opacity:1;stroke-width:0.090116" /><path
       transform="matrix(0.75000002,0,0,-0.75000002,164.28238,568.16095)"
       id="path977"
       d="m 608.33909,411.15882 c -3.83326,1.42813 -7.52472,3.30296 -10.84524,5.70036 -2.00172,1.46957 -3.2598,3.67419 -4.80758,5.56807 -1.04536,1.36403 -2.33679,2.60026 -2.88643,4.27464 -1.31387,3.26465 -2.08548,6.76601 -2.01492,10.29557 0.0565,4.06077 0.6319,8.1047 1.46565,12.07414 0.56526,2.58391 1.54016,5.11743 3.21064,7.19615 1.44819,1.9046 2.82367,3.84804 4.03793,5.91064 0.8421,1.41102 1.95793,2.68804 3.43315,3.45641 2.04234,1.19136 4.45541,1.75693 6.80184,1.66351 0.26406,-0.34332 -0.0483,-0.90467 -0.004,-1.32962 -0.16115,-2.07338 0.0352,-4.16511 0.41749,-6.20814 0.13636,-1.79748 0.0866,-3.57599 0.3417,-5.35868 0.24893,-2.61484 0.3427,-5.24998 0.049,-7.86585 -0.35136,-3.4887 -0.64028,-6.97947 -0.56904,-10.49305 -0.0354,-2.30008 0.0682,-4.58508 0.26603,-6.87194 0.27463,-4.87754 -0.34152,-9.74708 -0.12238,-14.62283 0.15487,-1.1474 0.72528,-2.18062 1.44625,-3.06729 0.10793,-0.14893 -0.0431,-0.36914 -0.22001,-0.32209 z"
       style="fill:#c7b3f5;fill-opacity:1;stroke-width:0.090116" /><path
       transform="matrix(0.75000002,0,0,-0.75000002,164.28238,568.16095)"
       id="path983"
       d="m 629.77863,281.70235 c -15.7391,0.26943 -31.53045,-0.20061 -47.23365,0.92297 -4.05056,1.72631 -8.23815,4.8132 -9.57517,9.18686 -1.30143,14.37695 -0.91764,28.87386 -1.13878,43.30279 -0.008,17.5493 -0.0352,35.16151 1.2254,52.64504 -0.36789,19.0317 -1.91757,38.06573 -0.79037,57.10431 0.14091,18.62396 -0.68998,37.24499 -0.64589,55.87261 -0.39401,48.46611 -0.59499,96.938 -0.0717,145.40225 -0.17355,3.4676 0.002,7.15664 2.61117,9.77733 1.93453,2.13613 3.27622,5.39582 6.04261,6.51156 16.01291,1.30335 32.12222,0.68355 48.17553,0.93392 6.93987,-0.21216 13.98535,0.41418 20.86086,-0.65415 5.74823,-1.75545 8.13817,-8.09913 9.99419,-13.12964 0.15297,-46.00628 -0.0887,-92.01303 0.4076,-138.01797 0.0921,-43.50487 0.74934,-87.01585 0.11826,-130.51787 -1.29821,-16.70084 0.72758,-33.45595 0.54753,-50.19251 -0.0751,-11.29325 0.55978,-22.64397 -0.42407,-33.9021 -1.13391,-6.96217 -6.216,-13.42801 -13.40591,-14.66784 -5.50547,-0.8689 -11.14446,-0.46709 -16.69758,-0.57756 z m -15.34496,31.59895 c 4.92996,-0.30859 9.77483,0.75867 14.10737,3.1592 4.47613,1.60476 8.88193,3.68765 12.01948,7.31903 4.32096,4.14986 7.74354,9.46454 8.09066,15.58093 1.27192,8.58846 0.60544,17.88478 -4.48441,25.20787 -5.49129,7.1054 -13.00795,13.50149 -21.93716,15.54808 -7.574,0.72799 -15.43009,0.27341 -22.45988,-2.78086 -2.82746,0.39369 -5.96921,1.94675 -8.61437,-0.0816 -2.82785,-2.0104 -6.59442,-4.83296 -5.20824,-8.8135 0.89934,-2.27277 2.21285,-5.29087 -0.0737,-7.2095 -1.24319,-3.88737 -4.63762,-7.03009 -4.10742,-11.40373 -0.90527,-7.53976 2.48765,-14.64671 5.32112,-21.4139 2.41484,-5.63417 8.42834,-8.08995 13.03957,-11.61236 4.10932,-3.05965 9.3864,-3.43409 14.30696,-3.49962 z m 5.30084,91.84575 c 4.90957,-0.10479 9.27,2.56032 14.02075,3.25578 5.08527,2.93453 8.72468,7.8978 12.09316,12.60493 5.12161,8.60125 6.37375,19.41994 4.2221,29.19758 -1.68428,7.6116 -8.07768,13.05465 -14.11886,17.34011 -3.33346,2.12823 -7.08158,3.59404 -10.79484,4.71242 -1.89162,2.09666 -2.72348,5.83667 -6.22978,5.77676 -3.12539,0.0206 -7.33898,1.71789 -9.43379,-1.49845 -0.87438,-1.11436 -1.04053,-3.16105 -3.02877,-2.68925 -2.38431,-0.35649 -2.96576,-3.72336 -5.54179,-3.75859 -4.49134,-1.41881 -7.36494,-5.22927 -9.67318,-9.08869 -3.39693,-4.66217 -5.88558,-9.89447 -6.32791,-15.71096 -0.94562,-8.15241 -1.2371,-17.16471 4.0513,-24.03866 3.31038,-5.49853 8.51165,-9.5136 14.45002,-11.83968 5.10816,-2.27522 10.62088,-4.24803 16.31159,-4.2633 z m -37.06408,112.10724 c 22.00738,0.94938 44.15213,0.0551 66.09525,0.73379 2.8838,-0.64502 3.0703,1.44012 2.61756,3.64807 -16.49955,-0.73403 -33.06743,-0.60874 -49.56944,-0.0438 -8.10496,-1.07555 -16.38685,-0.69645 -24.5597,-1.08526 -0.73297,-1.71571 0.26039,-3.34261 2.15259,-3.12933 1.08404,-0.1118 2.17521,-0.11617 3.26374,-0.12346 z m 30.00492,9.02955 c 13.10629,0.20363 26.28299,-0.17527 39.3252,1.07829 -0.0862,1.49116 0.65922,4.433 -1.86386,3.35733 -23.84108,-0.87829 -47.72456,-1.19557 -71.57611,-0.59891 -1.42584,0.14399 -1.02787,-3.43396 0.86503,-3.15867 10.97619,-0.875 22.18998,-0.56678 33.24974,-0.67804 z m 40.96006,10.65047 c 1.29081,2.37907 -2.74059,2.35339 -4.16282,2.36965 -17.00699,0.10069 -34.01781,2.08185 -51.00874,0.66937 -7.22084,-0.51414 -14.59303,0.14787 -21.73944,-0.62556 -1.00261,-2.69646 2.54783,-3.63387 4.56406,-3.28465 19.5201,0.69711 39.05789,0.95208 58.58192,0.17302 4.42671,-0.12139 8.85342,-0.24279 13.28013,-0.36419 0.16163,0.35412 0.32326,0.70824 0.48489,1.06236 z m -63.05055,7.86962 c 20.91076,0.23815 41.85311,-0.17382 62.74189,0.81743 1.27849,0.61487 0.83095,3.44291 -1.01456,2.59865 -23.02926,0.44737 -46.06898,0.44779 -69.09016,0.0107 -2.03821,-0.18662 -6.56449,1.01666 -5.92612,-2.19616 1.68337,-2.02124 4.93432,-0.71089 7.22228,-1.20032 2.02209,-0.0271 4.04443,-0.0276 6.06667,-0.0303 z m -1.67369,9.90672 c 21.2941,0.15757 42.61513,0.38969 63.88988,0.83137 2.01338,0.36951 1.38464,3.81783 -0.74375,3.20699 -6.8599,0.70834 -13.67051,-0.47388 -20.58092,-0.20402 -17.66661,-0.42739 -35.41129,0.14994 -53.0295,-0.90314 -1.48503,0.51295 -2.80729,-1.5586 -1.28737,-2.23922 3.82313,-0.8999 7.85111,-0.56189 11.75166,-0.69198 z m -1.79914,8.89216 c 21.55364,0.2814 43.11455,0.50839 64.66333,0.92859 1.81245,-0.57238 2.18071,1.91169 1.42096,2.9176 -24.64301,1.35176 -49.42223,-1.84725 -74.00071,-0.15034 -2.37448,0.37821 -2.16231,-3.76861 0.21407,-3.32348 2.54523,-0.37937 5.13574,-0.33413 7.70235,-0.37237 z m 3.30556,8.84336 c 20.68799,0.14129 41.41101,-0.0492 62.0768,0.60038 1.24469,0.85916 0.35848,3.71166 -1.48547,2.95164 -23.24756,0.47034 -46.51372,0.19394 -69.76282,-0.13732 -1.33171,-0.18385 -5.61791,0.38285 -4.36936,-2.15221 1.98291,-2.07044 5.49863,-0.76189 8.06975,-1.23561 1.82366,-0.0178 3.64736,-0.0237 5.4711,-0.0269 z m -1.59205,9.34716 c 21.12026,0.23681 42.26188,0.0363 63.36717,0.80748 2.07893,-0.18664 2.43773,3.33607 0.0498,2.7928 -16.62624,0.52947 -33.49735,0.50592 -50.16484,0.009 -8.2325,-0.77649 -16.66799,0.28144 -24.80862,-0.66012 -0.8628,-2.82643 2.99669,-2.98583 4.85977,-2.87743 2.2317,-0.0625 4.46434,-0.0676 6.69674,-0.0717 z m 31.45956,9.03652 c 11.16363,0.16035 22.35375,-0.22732 33.49965,0.46497 1.2435,4.28567 -4.0745,2.23159 -6.62313,2.85328 -20.08439,1.07201 -40.18161,-0.74027 -60.26356,-0.12278 -3.07388,-0.22196 -6.63227,1.57687 -9.40401,-0.0562 -1.37258,-1.45755 0.1331,-3.03588 1.81925,-2.70912 13.50162,-0.81416 27.35589,-0.26992 40.9718,-0.43017 z m -22.61719,8.82047 c 18.27169,0.11986 36.60353,-0.17564 54.83843,0.51177 1.32419,0.64594 1.26697,3.25161 -0.60337,2.85452 -21.75001,0.6088 -43.52692,0.12326 -65.28458,-0.047 -3.0657,-0.30926 -6.65608,0.31393 -9.45789,-0.55832 -0.84758,-2.60554 2.38225,-2.70561 4.04035,-2.57375 5.48683,-0.18268 10.97799,-0.16141 16.46706,-0.18719 z m 23.58696,8.88618 c 10.54401,0.0791 21.07686,0.85141 31.61189,1.10219 1.68882,0.51941 1.03319,2.80143 -0.62128,2.6992 -10.22696,1.37772 -20.56441,-0.61288 -30.84425,-0.22796 -14.65598,-0.11169 -29.32369,1.06101 -43.96394,0.69094 -1.69275,-1.07592 -0.18156,-3.67316 1.7175,-3.31551 14.03795,0.0276 28.06273,-0.87012 42.10008,-0.94886 z m -13.23717,9.46963 c 14.88816,0.12603 29.8693,-0.14986 44.70071,0.52471 1.21383,0.98315 0.90612,3.30943 -1.05837,2.5857 -24.28284,0.70489 -48.65828,0.0682 -72.96225,0.88115 -1.93023,0.51494 -2.96052,-2.00926 -1.59404,-3.15222 10.16667,-1.14624 20.64473,-0.6432 30.91395,-0.83934 z m 34.68945,9.28046 c 3.35625,0.29406 7.15508,-0.52645 10.26117,0.8702 0.8377,2.74375 -2.70756,2.50454 -4.4167,2.46125 -22.64311,0.49552 -45.30191,0.17738 -67.94019,0.84729 -1.85843,0.34024 -4.68925,-0.78056 -3.22989,-3.02478 3.87696,-0.96452 8.17682,-0.30348 12.19549,-0.60635 17.70968,-0.19811 35.41955,-0.45714 53.13012,-0.54761 z"
       style="fill:#e1f5b3;fill-opacity:1;stroke-width:0.509773" /><path
       transform="matrix(0.75000002,0,0,-0.75000002,164.28238,568.16095)"
       id="path987"
       d="m 595.44597,713.49518 c -12.70442,0.40042 -25.41514,0.37879 -38.12442,0.3883 -3.03337,0.0122 -6.06608,0.0952 -9.08981,0.34848 -0.28891,1.21584 -0.14644,2.7835 0.2295,4.06823 1.10737,1.74754 3.64279,1.46059 5.43069,1.51267 5.17595,-0.33244 10.33946,-0.68478 15.53272,-0.53817 8.12401,0.066 16.27093,0.27221 24.37303,-0.20885 5.55641,0.008 11.21412,1.22126 16.72841,0.0896 2.03389,-0.40751 3.30342,-2.72905 2.8849,-4.65267 -5.52961,-0.45061 -11.14358,-0.89069 -16.72095,-1.00732 -0.41468,-0.004 -0.82937,-10e-4 -1.24407,-2.8e-4 z"
       style="fill:#c7b3f5;fill-opacity:1;stroke-width:0.254886" /><path
       transform="matrix(0.75000002,0,0,-0.75000002,164.28238,568.16095)"
       id="path989"
       d="m 93.339539,713.98653 c -8.976765,-0.13249 -17.977101,1.06315 -26.922605,0.40867 -1.037134,0.0192 -3.226108,-0.97879 -2.573042,0.93724 0.194877,2.28407 0.03575,5.52573 2.67233,6.47393 3.577397,1.31044 7.497531,0.63249 11.222875,0.77853 8.402017,-0.23431 16.783808,-0.59297 25.194023,-0.45861 9.34755,-0.0688 18.70837,0.31703 28.04797,-0.0725 1.35154,-0.61158 0.78659,-2.5784 0.79609,-3.75248 -0.39084,-1.01907 0.35221,-3.24153 -1.04175,-3.31565 -12.46505,-0.35189 -24.91753,-1.18723 -37.395891,-0.99913 z"
       style="fill:#c7b3f5;fill-opacity:1;stroke-width:0.254886" /><path
       transform="matrix(0.75000002,0,0,-0.75000002,164.28238,568.16095)"
       id="path991"
       d="m 17.037879,4.091866 c -2.4017,-0.2285863 -3.951838,1.8723657 -4.790074,3.8347471 -0.779144,1.1515129 -0.98502,2.7998329 0.200126,3.7700299 1.039336,0.903886 1.916731,2.337165 3.179632,2.757108 2.458482,-0.144814 5.221613,-0.300912 6.958079,-2.316533 1.763886,-1.580463 1.158294,-4.4685862 -0.04431,-6.220325 C 21.375488,4.0838875 18.951581,4.1234637 17.037879,4.091866 Z"
       style="fill:#c7b3f5;fill-opacity:1;stroke-width:0.254886" /><path
       transform="matrix(0.75000002,0,0,-0.75000002,164.28238,568.16095)"
       id="path993"
       d="m 622.76313,43.807858 c -2.317,0.141551 -5.52071,1.091721 -5.7444,3.829769 0.12314,2.067837 2.01452,3.474913 3.38272,4.831393 2.24768,2.345869 7.03794,1.69059 7.92189,-1.637845 0.70282,-3.384081 -1.79408,-7.408459 -5.56021,-7.023317 z"
       style="fill:#c7b3f5;fill-opacity:1;stroke-width:0.254886" /></g></svg>
