<?xml version="1.0" encoding="UTF-8" standalone="no"?>
<svg
   xmlns:dc="http://purl.org/dc/elements/1.1/"
   xmlns:cc="http://creativecommons.org/ns#"
   xmlns:rdf="http://www.w3.org/1999/02/22-rdf-syntax-ns#"
   xmlns:svg="http://www.w3.org/2000/svg"
   xmlns="http://www.w3.org/2000/svg"
   xmlns:xlink="http://www.w3.org/1999/xlink"
   xmlns:sodipodi="http://sodipodi.sourceforge.net/DTD/sodipodi-0.dtd"
   xmlns:inkscape="http://www.inkscape.org/namespaces/inkscape"
   width="800"
   height="600"
   viewBox="0 0 211.66666 158.75"
   version="1.1"
   id="svg8"
   inkscape:version="1.0 (4035a4fb49, 2020-05-01)"
   sodipodi:docname="uke_screen.svg">
  <defs
     id="defs2">
    <linearGradient
       id="linearGradient4472"
       y2="114.39"
       gradientUnits="userSpaceOnUse"
       x2="39.344002"
       gradientTransform="translate(74.345,13.378)"
       y1="122.71"
       x1="39.344002"
       inkscape:collect="always">
      <stop
         id="stop4192-7"
         style="stop-color:#221c00"
         offset="0" />
      <stop
         id="stop4202-2"
         style="stop-color:#67674e"
         offset=".16549" />
      <stop
         id="stop4200-55"
         style="stop-color:#b3b3a6"
         offset=".33098" />
      <stop
         id="stop4196-21"
         style="stop-color:#ffffff"
         offset=".62058" />
      <stop
         id="stop4198-4"
         style="stop-color:#67674e"
         offset="1" />
    </linearGradient>
    <linearGradient
       id="linearGradient5473"
       y2="131.92999"
       xlink:href="#linearGradient4328-4"
       gradientUnits="userSpaceOnUse"
       x2="129.11"
       y1="131.92999"
       x1="97.223999"
       inkscape:collect="always" />
    <linearGradient
       id="linearGradient4328-4">
      <stop
         id="stop4330-4"
         style="stop-color:#ffd200"
         offset="0" />
      <stop
         id="stop4342-1"
         style="stop-color:#a7a70e"
         offset=".27384" />
      <stop
         id="stop4332-9"
         style="stop-color:#8f7600"
         offset=".52558" />
      <stop
         id="stop4334-5"
         style="stop-color:#f7f762"
         offset=".64405" />
      <stop
         id="stop4344-57"
         style="stop-color:#ffffff"
         offset=".76270" />
      <stop
         id="stop4336-47"
         style="stop-color:#ebeb6e"
         offset="1" />
    </linearGradient>
    <linearGradient
       id="linearGradient4474"
       y2="119.42"
       gradientUnits="userSpaceOnUse"
       x2="55.028999"
       gradientTransform="translate(27.634,-0.439)"
       y1="145.07001"
       x1="55.028999"
       inkscape:collect="always">
      <stop
         id="stop4330-5"
         style="stop-color:#221c00"
         offset="0" />
      <stop
         id="stop4342-8"
         style="stop-color:#67674e"
         offset=".27384" />
      <stop
         id="stop4332-4"
         style="stop-color:#221c00"
         offset=".52558" />
      <stop
         id="stop4334-0"
         style="stop-color:#b3b3a6"
         offset=".64405" />
      <stop
         id="stop4344-5"
         style="stop-color:#ffffff"
         offset=".76270" />
      <stop
         id="stop4336-4"
         style="stop-color:#b3b3a6"
         offset="1" />
    </linearGradient>
    <linearGradient
       id="linearGradient5471"
       y2="131.81"
       xlink:href="#linearGradient4328-4"
       gradientUnits="userSpaceOnUse"
       x2="97.237999"
       y1="131.81"
       x1="71.922997"
       inkscape:collect="always" />
    <linearGradient
       id="linearGradient4476"
       y2="114.39"
       gradientUnits="userSpaceOnUse"
       x2="39.344002"
       gradientTransform="translate(69.443,-58.93)"
       y1="122.71"
       x1="39.344002"
       inkscape:collect="always">
      <stop
         id="stop4192-0"
         style="stop-color:#221c00"
         offset="0" />
      <stop
         id="stop4202-5"
         style="stop-color:#67674e"
         offset=".16549" />
      <stop
         id="stop4200-5"
         style="stop-color:#b3b3a6"
         offset=".33098" />
      <stop
         id="stop4196-2"
         style="stop-color:#ffffff"
         offset=".62058" />
      <stop
         id="stop4198-7"
         style="stop-color:#67674e"
         offset="1" />
    </linearGradient>
    <linearGradient
       id="linearGradient5485"
       y2="59.620998"
       xlink:href="#linearGradient4328-4"
       gradientUnits="userSpaceOnUse"
       x2="124.21"
       y1="59.620998"
       x1="92.321999"
       inkscape:collect="always" />
    <linearGradient
       id="linearGradient4478"
       y2="119.42"
       xlink:href="#linearGradient4328-4"
       gradientUnits="userSpaceOnUse"
       x2="55.028999"
       gradientTransform="translate(22.792,-72.621)"
       y1="145.07001"
       x1="55.028999"
       inkscape:collect="always" />
    <linearGradient
       id="linearGradient5483"
       y2="59.627998"
       xlink:href="#linearGradient4328-4"
       gradientUnits="userSpaceOnUse"
       x2="92.394997"
       y1="59.627998"
       x1="67.081001"
       inkscape:collect="always" />
    <linearGradient
       id="linearGradient4480"
       y2="114.39"
       gradientUnits="userSpaceOnUse"
       x2="39.344002"
       gradientTransform="translate(177.71,-57.745)"
       y1="122.71"
       x1="39.344002"
       inkscape:collect="always">
      <stop
         id="stop4192"
         style="stop-color:#221c00"
         offset="0" />
      <stop
         id="stop4202"
         style="stop-color:#67674e"
         offset=".16549" />
      <stop
         id="stop4200"
         style="stop-color:#b3b3a6"
         offset=".33098" />
      <stop
         id="stop4196"
         style="stop-color:#ffffff"
         offset=".62058" />
      <stop
         id="stop4198"
         style="stop-color:#67674e"
         offset="1" />
    </linearGradient>
    <linearGradient
       id="linearGradient5487"
       y2="60.806"
       xlink:href="#linearGradient4328-4"
       gradientUnits="userSpaceOnUse"
       x2="232.48"
       y1="60.806"
       x1="200.58"
       inkscape:collect="always" />
    <linearGradient
       id="linearGradient4482"
       y2="119.42"
       xlink:href="#linearGradient4328-4"
       gradientUnits="userSpaceOnUse"
       x2="55.028999"
       gradientTransform="matrix(-1,0,0,1,301.93,-71.414)"
       y1="145.07001"
       x1="55.028999"
       inkscape:collect="always" />
    <linearGradient
       id="linearGradient4484"
       y2="114.39"
       gradientUnits="userSpaceOnUse"
       x2="39.344002"
       gradientTransform="translate(172.88,13.465)"
       y1="122.71"
       x1="39.344002"
       inkscape:collect="always">
      <stop
         id="stop4192-1"
         style="stop-color:#221c00"
         offset="0" />
      <stop
         id="stop4202-6"
         style="stop-color:#67674e"
         offset=".16549" />
      <stop
         id="stop4200-0"
         style="stop-color:#b3b3a6"
         offset=".33098" />
      <stop
         id="stop4196-9"
         style="stop-color:#ffffff"
         offset=".62058" />
      <stop
         id="stop4198-5"
         style="stop-color:#67674e"
         offset="1" />
    </linearGradient>
    <linearGradient
       id="linearGradient5467"
       y2="132.02"
       xlink:href="#linearGradient4328-4"
       gradientUnits="userSpaceOnUse"
       x2="227.64999"
       y1="132.02"
       x1="195.75999"
       inkscape:collect="always" />
    <linearGradient
       id="linearGradient4486"
       y2="119.42"
       gradientUnits="userSpaceOnUse"
       x2="55.028999"
       gradientTransform="matrix(-1,0,0,1,297.08,-0.17902)"
       y1="145.07001"
       x1="55.028999"
       inkscape:collect="always">
      <stop
         id="stop4330-9"
         style="stop-color:#221c00"
         offset="0" />
      <stop
         id="stop4342-0"
         style="stop-color:#67674e"
         offset=".27384" />
      <stop
         id="stop4332-3"
         style="stop-color:#221c00"
         offset=".52558" />
      <stop
         id="stop4334-03"
         style="stop-color:#b3b3a6"
         offset=".64405" />
      <stop
         id="stop4344-50"
         style="stop-color:#ffffff"
         offset=".76270" />
      <stop
         id="stop4336-7"
         style="stop-color:#b3b3a6"
         offset="1" />
    </linearGradient>
    <linearGradient
       id="linearGradient5469"
       y2="132.07001"
       xlink:href="#linearGradient4328-4"
       gradientUnits="userSpaceOnUse"
       x2="252.78999"
       y1="132.07001"
       x1="227.48"
       inkscape:collect="always" />
    <linearGradient
       id="linearGradient3724"
       y2="318.14999"
       xlink:href="#linearGradient3714"
       gradientUnits="userSpaceOnUse"
       x2="155.39"
       gradientTransform="matrix(0.99999,-0.0034906,0.0034906,0.99999,3.4616,-1.0954)"
       y1="317.14999"
       x1="155.39"
       inkscape:collect="always" />
    <linearGradient
       id="linearGradient3714">
      <stop
         id="stop3716"
         style="stop-color:#ffffff"
         offset="0" />
      <stop
         id="stop3718"
         style="stop-color:#67674e"
         offset="1" />
    </linearGradient>
    <linearGradient
       id="linearGradient3730"
       y2="409.95001"
       xlink:href="#linearGradient3714"
       gradientUnits="userSpaceOnUse"
       x2="155.39"
       gradientTransform="matrix(0.99999,-0.0034906,0.0034906,0.99999,3.4616,-1.0954)"
       y1="408.95001"
       x1="155.39"
       inkscape:collect="always" />
    <linearGradient
       id="linearGradient3734"
       y2="463.04999"
       xlink:href="#linearGradient3714"
       gradientUnits="userSpaceOnUse"
       x2="155.39"
       gradientTransform="matrix(0.99999,-0.0034906,0.0034906,0.99999,3.4616,-1.0954)"
       y1="462.04999"
       x1="155.39"
       inkscape:collect="always" />
    <linearGradient
       id="linearGradient3738"
       y2="509.76999"
       xlink:href="#linearGradient3714"
       gradientUnits="userSpaceOnUse"
       x2="155.39"
       gradientTransform="matrix(0.99999,-0.0034906,0.0034906,0.99999,3.4616,-1.0954)"
       y1="508.76999"
       x1="155.39"
       inkscape:collect="always" />
    <linearGradient
       id="linearGradient3742"
       y2="552.10999"
       xlink:href="#linearGradient3714"
       gradientUnits="userSpaceOnUse"
       x2="155.39"
       gradientTransform="matrix(0.99999,-0.0034906,0.0034906,0.99999,3.4616,-1.0954)"
       y1="551.10999"
       x1="155.39"
       inkscape:collect="always" />
    <linearGradient
       id="linearGradient4088"
       y2="132.42"
       xlink:href="#linearGradient3714"
       gradientUnits="userSpaceOnUse"
       x2="126.18"
       y1="132.42"
       x1="146.98"
       inkscape:collect="always" />
    <linearGradient
       id="linearGradient5475"
       y2="132.42"
       xlink:href="#linearGradient4328-4"
       gradientUnits="userSpaceOnUse"
       x2="146.98"
       y1="132.42"
       x1="126.18"
       inkscape:collect="always" />
    <linearGradient
       id="linearGradient4018"
       y2="698.21002"
       gradientUnits="userSpaceOnUse"
       x2="178.74001"
       y1="742.26001"
       x1="108.44"
       inkscape:collect="always">
      <stop
         id="stop4014"
         style="stop-color:#160501"
         offset="0" />
      <stop
         id="stop4016"
         style="stop-color:#160501;stop-opacity:0"
         offset="1" />
    </linearGradient>
    <linearGradient
       id="linearGradient5495"
       y2="127.06"
       gradientUnits="userSpaceOnUse"
       x2="154.34"
       y1="127.06"
       x1="133.55"
       inkscape:collect="always">
      <stop
         id="stop5491"
         style="stop-color:#eeffaa"
         offset="0" />
      <stop
         id="stop5493"
         style="stop-color:#eeffaa;stop-opacity:0"
         offset="1" />
    </linearGradient>
    <linearGradient
       id="linearGradient3930"
       y2="554.03003"
       gradientUnits="userSpaceOnUse"
       x2="192.53"
       gradientTransform="matrix(0.99999,-0.0034906,0.0034906,0.99999,3.4616,-1.0954)"
       y1="554.03003"
       x1="187.89"
       inkscape:collect="always">
      <stop
         id="stop3948"
         style="stop-color:#67674e"
         offset="0" />
      <stop
         id="stop3950"
         style="stop-color:#ffffff"
         offset="1" />
    </linearGradient>
    <linearGradient
       y2="132.42"
       x2="126.18"
       y1="132.42"
       x1="146.98"
       gradientUnits="userSpaceOnUse"
       id="linearGradient2820"
       xlink:href="#linearGradient3714"
       inkscape:collect="always" />
    <linearGradient
       y2="132.42"
       x2="146.98"
       y1="132.42"
       x1="126.18"
       gradientUnits="userSpaceOnUse"
       id="linearGradient2822"
       xlink:href="#linearGradient4328-4"
       inkscape:collect="always" />
    <linearGradient
       y2="132.42"
       x2="126.18"
       y1="132.42"
       x1="146.98"
       gradientUnits="userSpaceOnUse"
       id="linearGradient2824"
       xlink:href="#linearGradient3714"
       inkscape:collect="always" />
    <linearGradient
       y2="132.42"
       x2="146.98"
       y1="132.42"
       x1="126.18"
       gradientUnits="userSpaceOnUse"
       id="linearGradient2826"
       xlink:href="#linearGradient4328-4"
       inkscape:collect="always" />
    <linearGradient
       y2="132.42"
       x2="126.18"
       y1="132.42"
       x1="146.98"
       gradientUnits="userSpaceOnUse"
       id="linearGradient2828"
       xlink:href="#linearGradient3714"
       inkscape:collect="always" />
    <linearGradient
       y2="132.42"
       x2="146.98"
       y1="132.42"
       x1="126.18"
       gradientUnits="userSpaceOnUse"
       id="linearGradient2830"
       xlink:href="#linearGradient4328-4"
       inkscape:collect="always" />
  </defs>
  <sodipodi:namedview
     id="base"
     pagecolor="#ffffff"
     bordercolor="#666666"
     borderopacity="1.0"
     inkscape:pageopacity="0.0"
     inkscape:pageshadow="2"
     inkscape:zoom="0.25"
     inkscape:cx="716.49578"
     inkscape:cy="189.87856"
     inkscape:document-units="px"
     inkscape:current-layer="layer1"
     inkscape:document-rotation="0"
     showgrid="false"
     units="px"
     showguides="true"
     inkscape:guide-bbox="true"
     inkscape:window-width="960"
     inkscape:window-height="1037"
     inkscape:window-x="1912"
     inkscape:window-y="3"
     inkscape:window-maximized="0">
    <sodipodi:guide
       position="105.83333,79.374999"
       orientation="0,1"
       id="guide1537"
       inkscape:label="50%"
       inkscape:locked="false"
       inkscape:color="rgb(204,0,0)" />
    <sodipodi:guide
       position="105.83333,79.375"
       orientation="-1,0"
       id="guide1541"
       inkscape:label="50%"
       inkscape:locked="false"
       inkscape:color="rgb(204,0,0)" />
    <sodipodi:guide
       position="70.555554,105.83333"
       orientation="-1,0"
       id="guide1543"
       inkscape:label=""
       inkscape:locked="false"
       inkscape:color="rgb(0,0,255)" />
    <sodipodi:guide
       position="141.11111,52.916666"
       orientation="-1,0"
       id="guide1547"
       inkscape:label=""
       inkscape:locked="false"
       inkscape:color="rgb(0,0,255)" />
    <sodipodi:guide
       position="70.555554,105.83333"
       orientation="0,1"
       id="guide1549"
       inkscape:label=""
       inkscape:locked="false"
       inkscape:color="rgb(0,0,255)" />
    <sodipodi:guide
       position="141.11111,52.916666"
       orientation="0,1"
       id="guide1551"
       inkscape:label=""
       inkscape:locked="false"
       inkscape:color="rgb(0,0,255)" />
  </sodipodi:namedview>
  <metadata
     id="metadata5">
    <rdf:RDF>
      <cc:Work
         rdf:about="">
        <dc:format>image/svg+xml</dc:format>
        <dc:type
           rdf:resource="http://purl.org/dc/dcmitype/StillImage" />
        <dc:title></dc:title>
      </cc:Work>
    </rdf:RDF>
  </metadata>
  <g
     inkscape:label="Layer 1"
     inkscape:groupmode="layer"
     id="layer1">
    <g
       transform="matrix(0.10703863,0.10703863,-0.10703863,0.10703863,144.64413,6.5374067)"
       id="g1141">
      <g
         id="g4468">
        <rect
           x="97.223999"
           y="127.77"
           width="31.891001"
           height="8.3193998"
           style="fill:url(#linearGradient4472);stroke:url(#linearGradient5473)"
           id="rect4172-4" />
        <path
           d="m 72.812,121.8 c 0.09039,-0.10784 0.35808,-0.22357 0.35808,-0.22357 l 13.238,-2.4177 c 0,0 0.70463,-0.0927 1.0475,-0.009 0.34285,0.0836 0.85154,0.44499 0.85154,0.44499 l 8.9307,6.8624 -0.0074,10.519 -8.9568,7.0592 c 0,0 -0.51562,0.3961 -0.78827,0.45964 -0.27266,0.0635 -1.0096,-0.0858 -1.0096,-0.0858 l -13.429,-2.365 c 0,0 -0.23462,-0.064 -0.34967,-0.20156 -0.11505,-0.13753 -0.0763,-0.3344 -0.0916,-0.50469 -0.56792,-6.3219 -1.2012,-12.811 0.0068,-19.042 0.03389,-0.17481 0.08505,-0.35911 0.19944,-0.49558 z"
           style="fill:url(#linearGradient4474);stroke:url(#linearGradient5471)"
           sodipodi:nodetypes="ccczcccczcczsaa"
           id="rect4309-7" />
      </g>
      <g
         id="g4464">
        <rect
           x="92.321999"
           y="55.462002"
           width="31.891001"
           height="8.3193998"
           style="fill:url(#linearGradient4476);stroke:url(#linearGradient5485)"
           id="rect4172-6" />
        <path
           d="m 67.969,49.615 c 0.09039,-0.10784 0.35808,-0.22357 0.35808,-0.22357 l 13.238,-2.4177 c 0,0 0.70463,-0.0927 1.0475,-0.009 0.34285,0.0836 0.85154,0.44499 0.85154,0.44499 l 8.9307,6.8624 -0.0074,10.519 -8.9568,7.0592 c 0,0 -0.51562,0.3961 -0.78827,0.45964 -0.27266,0.0635 -1.0096,-0.0858 -1.0096,-0.0858 l -13.429,-2.365 c 0,0 -0.23462,-0.064 -0.34967,-0.20156 -0.11505,-0.13753 -0.0763,-0.3344 -0.0916,-0.50469 -0.56792,-6.3219 -1.2012,-12.811 0.0068,-19.042 0.03389,-0.17481 0.08505,-0.35911 0.19944,-0.49558 z"
           style="fill:url(#linearGradient4478);stroke:url(#linearGradient5483)"
           sodipodi:nodetypes="ccczcccczcczsaa"
           id="rect4309" />
      </g>
      <g
         id="g4460">
        <rect
           x="200.58"
           y="56.646999"
           width="31.891001"
           height="8.3193998"
           style="fill:url(#linearGradient4480);stroke:url(#linearGradient5487)"
           id="rect4172" />
        <path
           d="m 256.76,50.823 c -0.0904,-0.10784 -0.35808,-0.22357 -0.35808,-0.22357 l -13.238,-2.4177 c 0,0 -0.70463,-0.0927 -1.0475,-0.009 -0.34285,0.0836 -0.85153,0.44499 -0.85153,0.44499 l -8.9307,6.8624 0.007,10.519 8.9568,7.0592 c 0,0 0.51562,0.3961 0.78827,0.45964 0.27266,0.0635 1.0096,-0.0858 1.0096,-0.0858 l 13.429,-2.365 c 0,0 0.23462,-0.064 0.34968,-0.20156 0.11505,-0.13753 0.0763,-0.3344 0.0916,-0.50469 0.56792,-6.3219 1.2012,-12.811 -0.007,-19.042 -0.0339,-0.17481 -0.0851,-0.35911 -0.19944,-0.49558 z"
           style="fill:url(#linearGradient4482)"
           sodipodi:nodetypes="ccczcccczcczsaa"
           id="rect4309-4" />
      </g>
      <g
         id="g4456">
        <rect
           x="195.75999"
           y="127.86"
           width="31.891001"
           height="8.3193998"
           style="fill:url(#linearGradient4484);stroke:url(#linearGradient5467)"
           id="rect4172-9" />
        <path
           d="m 251.9,122.06 c -0.0904,-0.10784 -0.35808,-0.22357 -0.35808,-0.22357 l -13.238,-2.4177 c 0,0 -0.70463,-0.0927 -1.0475,-0.009 -0.34285,0.0836 -0.85153,0.44499 -0.85153,0.44499 l -8.9307,6.8624 0.007,10.519 8.9568,7.0592 c 0,0 0.51562,0.3961 0.78827,0.45964 0.27266,0.0635 1.0096,-0.0858 1.0096,-0.0858 l 13.429,-2.365 c 0,0 0.23462,-0.064 0.34967,-0.20156 0.11506,-0.13753 0.0763,-0.3344 0.0916,-0.50469 0.56792,-6.3219 1.2012,-12.811 -0.007,-19.042 -0.0339,-0.17481 -0.085,-0.35911 -0.19943,-0.49558 z"
           style="fill:url(#linearGradient4486);stroke:url(#linearGradient5469)"
           sodipodi:nodetypes="ccczcccczcczsaa"
           id="rect4309-78" />
      </g>
      <path
         d="M 107.46,567.69 C 45.752,568.32521 3.2,623.34 37.25,697.86 c 5.326,11.905 11.979,23.289 15.558,35.717 0.41402,7.7463 2.0887,13.975 -0.70635,21.772 -7.9258,18.163 -13.804,27.397 -24.972,43.057 -57.734,80.469 -27.089,211.72 128.3,203.74 162.33,6.5423 181.63,-125.81 120.86,-210.49 -8.2974,-7.6372 -14.14,-21.576 -21.125,-34.544 -2.6262,-5.244 -2.5231,-11.408 -1.035,-18.04 0.40282,-16.671 10.41,-23.207 12.629,-31.683 38.733,-69.145 2.5124,-142.41 -69.486,-139.87"
         style="fill:#c7b3f5"
         sodipodi:nodetypes="ccccccccccc"
         id="path3594-1" />
      <path
         d="m 115.89,561.32 c -61.708,0.63521 -104.26,55.65 -70.21,130.17 5.326,11.905 11.979,23.289 15.558,35.717 0.41402,7.7463 2.0887,13.975 -0.70635,21.772 -7.9258,18.163 -13.804,27.397 -24.972,43.057 -57.734,80.469 -27.089,211.72 128.3,203.74 162.33,6.5422 181.63,-125.81 120.86,-210.49 -8.2974,-7.6372 -14.14,-21.576 -21.125,-34.544 -2.6262,-5.244 -2.5231,-11.408 -1.035,-18.04 0.40282,-16.671 10.41,-23.207 12.629,-31.683 38.733,-69.145 2.5124,-142.41 -69.486,-139.87"
         style="fill:#c7b3f5"
         sodipodi:nodetypes="ccccccccccc"
         id="path3594" />
      <ellipse
         ry="50.068649"
         rx="47.487793"
         cy="707.33069"
         cx="165.17493"
         transform="matrix(0.99999,-0.0034906,0.0034906,0.99999,-6.5384,-1.0744)"
         style="fill:#000000;stroke:#ffffff"
         id="path2818" />
      <path
         d="m 116.61,579.01 c 5.7457,8.7111 15.016,5.5246 24.788,0.64247 13.701,6.5321 26.422,5.4386 38.713,1.0034 8.0963,3.3012 16.197,7.9302 24.257,0.62868 l -0.91452,-15.792 -86.48,0.0771 -0.36346,13.441 z"
         style="fill:#000000"
         sodipodi:nodetypes="ccccccc"
         id="path3592-7" />
      <path
         d="m 116.61,577.83 c 5.7457,8.7111 14.516,9.0246 28.788,13.142 15.201,12.532 22.922,2.4386 35.213,-1.9966 8.0963,-4.6988 15.697,-1.5698 23.757,-8.8713 l -6.4608,-372.14 -71.747,0.25045 z"
         inkscape:connector-curvature="0"
         style="fill:#e6e6e6"
         sodipodi:nodetypes="ccccccc"
         id="path3592" />
      <g
         transform="translate(8.4241,-2)"
         id="g4432">
        <path
           d="m 82.257,883.07 0.13694,31.118 c 0,0 10.506,-2.4832 14.121,-1.9797 3.615,0.50355 4.9853,4.1686 4.9853,4.1686 l 100.68,-0.27375 c 0,0 1.3166,-3.632 5.4441,-4.1626 4.1275,-0.53058 14.161,1.5132 14.161,1.5132 l -0.13667,-31.048 -138.33,0.48288 -1.0601,0.18045 z"
           style="fill:#000000"
           sodipodi:nodetypes="ccsccscccc"
           id="path3596-3" />
        <path
           d="m 87.221,882.56 -4.8631,30.618 c 0,0 7.5058,1.0168 11.121,1.5203 3.615,0.50355 7.9854,0.66864 7.9854,0.66864 l 100.68,-0.27375 c 0,0 6.8166,0.36802 10.944,-0.16257 4.1275,-0.53058 8.6612,-2.4868 8.6612,-2.4868 l -0.13667,-31.048 -134.33,0.98288 z"
           style="fill:#000000"
           sodipodi:nodetypes="ccsccscccc"
           inkscape:connector-curvature="0"
           id="path3596" />
      </g>
      <path
         d="m 124.79,203.54 c -1.596,-16.461 -5.2711,-28.482 -13.119,-36.087 l -4.63,-145.03 c 1.4216,-1.5255 1.4001,-1.529 1.3802,-1.5676 17.405,3.1345 39.506,-7.9823 54.81,-19.276 13.138,11.337 31.063,18.381 53.754,20.459 l -7.7524,145.07 c -8.3855,8.1329 -12.01,21.511 -12.938,36.535 l -70.101,4.7104 c -0.71059,-1.2626 -1.1195,-2.9256 -1.3977,-4.8182 z"
         style="fill:#c7b3f5"
         sodipodi:nodetypes="cccccccccc"
         id="path3600-1" />
      <path
         d="m 126.28,201.96 c -1.596,-16.461 -5.2711,-28.482 -13.119,-36.087 l -4.64,-145.03 c 22.23,-1.164 38.77,-7.981 56.19,-20.84 13.138,11.337 31.063,18.381 53.754,20.459 l -7.7524,145.07 c -8.3855,8.1329 -12.01,21.511 -12.938,36.535 l -71.499,-0.1078 z"
         style="fill:#c7b3f5;fill-opacity:0.98039"
         sodipodi:nodetypes="cccccccc"
         id="path3600" />
      <path
         d="m 126.21,208.28 1.3e-4,-7.2264 71.73,-0.0108 0.0109,7.2246 -71.742,0.0125 h -4e-5 z"
         style="fill:#eeffaa"
         sodipodi:nodetypes="cccccc"
         id="path3598" />
      <path
         d="m 132.59,203.9 c 0.28962,1.3777 -0.31368,2.8518 -2.4583,4.4144 l -11.334,691.18 -0.002,-0.51617"
         style="fill:none;stroke:#000000;stroke-width:1.5;stroke-opacity:0.13725"
         sodipodi:nodetypes="cccc"
         id="path3602-8" />
      <path
         d="m 124.79,316.14 74.315,-0.2594"
         style="fill:none;stroke:url(#linearGradient3724);stroke-width:1px;stroke-linecap:round"
         sodipodi:nodetypes="cc"
         id="path3662" />
      <path
         d="m 122.23,407.94 78.478,-0.27394"
         style="fill:none;stroke:url(#linearGradient3730);stroke-width:1px;stroke-linecap:round"
         sodipodi:nodetypes="cc"
         id="path3676" />
      <path
         d="m 120.78,461.05 81.209,-0.28347"
         style="fill:none;stroke:url(#linearGradient3734);stroke-width:1px;stroke-linecap:round"
         sodipodi:nodetypes="cc"
         id="path3680" />
      <path
         d="m 119.65,507.78 82.869,-0.28926"
         style="fill:none;stroke:url(#linearGradient3738);stroke-width:1px;stroke-linecap:round"
         sodipodi:nodetypes="cc"
         id="path3684" />
      <path
         d="m 118.53,550.12 84.494,-0.29494"
         style="fill:none;stroke:url(#linearGradient3742);stroke-width:1px;stroke-linecap:round"
         sodipodi:nodetypes="cc"
         id="path3688" />
      <path
         d="m 135.34,137.07 -2.6441,64.139"
         style="fill:none;stroke:#abab9e;stroke-width:1.5"
         sodipodi:nodetypes="cc"
         id="path3850" />
      <ellipse
         ry="11.092517"
         rx="10.399235"
         cy="132.4169"
         cx="136.57661"
         transform="matrix(0.93333,0,0,0.91406,11.269,10.671)"
         style="fill:url(#linearGradient2820);stroke:url(#linearGradient2822)"
         id="path4040" />
      <path
         d="m 144.26,899.5 5.7354,-691.19 c 1.8408,-0.85056 2.6195,-2.308 2.7464,-4.138"
         style="fill:none;stroke:#000000;stroke-width:3;stroke-opacity:0.13725"
         sodipodi:nodetypes="ccc"
         id="path3604-5" />
      <path
         d="m 118.58,684.49 c 61.23,-6.518 63.219,28.911 37.812,70.522 -38.536,-6.6654 -49.193,-44.703 -37.812,-70.522 z"
         style="fill:url(#linearGradient4018)"
         sodipodi:nodetypes="ccc"
         id="path3994" />
      <path
         d="m 132.7,201.04 -11.493,700.93 -0.002,-0.51617"
         style="fill:none;stroke:#abab9e;stroke-width:1.5"
         sodipodi:nodetypes="ccc"
         id="path3602" />
      <path
         d="m 135.05,52.943 17.79,148.24"
         style="fill:url(#linearGradient5495);stroke:#abab9e;stroke-width:3"
         sodipodi:nodetypes="cc"
         id="path3858" />
      <ellipse
         ry="11.092517"
         rx="10.399235"
         cy="132.4169"
         cx="136.57661"
         transform="matrix(0.93333,0,0,0.91406,6.5053,-61.284)"
         style="fill:url(#linearGradient2824);stroke:url(#linearGradient2826)"
         id="path4040-14" />
      <path
         d="m 147.01,901.88 5.82,-700.84"
         style="fill:none;stroke:#abab9e;stroke-width:3"
         sodipodi:nodetypes="cc"
         id="path3604" />
      <path
         d="m 189.65,127.39 2.4543,75.727"
         style="fill:none;stroke:#abab9e;stroke-width:1px"
         id="path3852" />
      <ellipse
         ry="11.092517"
         rx="10.399235"
         cy="132.4169"
         cx="136.57661"
         transform="matrix(0.93333,0,0,0.91406,58.784,10.808)"
         style="fill:url(#linearGradient2828);stroke:url(#linearGradient2830)"
         id="path4040-1" />
      <path
         d="M 172.97,201.74 189.61,50.93"
         style="fill:none;stroke:#abab9e;stroke-width:2"
         sodipodi:nodetypes="cc"
         id="path3856" />
      <ellipse
         ry="11.092517"
         rx="10.399235"
         cy="132.4169"
         cx="136.57661"
         transform="matrix(0.93333,0,0,0.91406,63.448,-60.548)"
         style="fill:url(#linearGradient4088);stroke:url(#linearGradient5475)"
         id="path4040-8" />
      <path
         d="m 172.97,204.57 c -0.20986,1.7593 -1.2285,2.8716 -2.6612,3.6526 l 0.34495,691.36"
         style="fill:none;stroke:#000000;stroke-width:2;stroke-opacity:0.13725"
         sodipodi:nodetypes="ccc"
         id="path3606-5" />
      <path
         d="m 172.99,201.44 0.35021,701.9"
         style="fill:none;stroke:#abab9e;stroke-width:2"
         sodipodi:nodetypes="cc"
         id="path3606" />
      <path
         d="M 196.38,899.48 189.3978,208.4 c 1.8576,-0.80523 2.5874,-2.4161 2.7328,-4.4443"
         style="fill:none;stroke:#000000;stroke-width:1px;stroke-opacity:0.13725"
         sodipodi:nodetypes="ccc"
         id="path3608-3" />
      <path
         d="m 199.15,903.77 -7.1,-702.7"
         style="fill:none;stroke:url(#linearGradient3930);stroke-width:1px"
         sodipodi:nodetypes="cc"
         id="path3608" />
      <path
         d="m 114.89,899.53 h 90.154 c 1.7231,2.4613 1.7868,4.9225 0,7.3838 H 114.89 c -2.0005,-2.6835 -1.494,-5.0885 0,-7.3838 z"
         style="fill:#ffffff"
         sodipodi:nodetypes="ccccc"
         id="rect2891" />
    </g>
  </g>
</svg>
