<?xml version="1.0" encoding="UTF-8" standalone="no"?>
<svg
   xmlns:dc="http://purl.org/dc/elements/1.1/"
   xmlns:cc="http://creativecommons.org/ns#"
   xmlns:rdf="http://www.w3.org/1999/02/22-rdf-syntax-ns#"
   xmlns:svg="http://www.w3.org/2000/svg"
   xmlns="http://www.w3.org/2000/svg"
   xmlns:sodipodi="http://sodipodi.sourceforge.net/DTD/sodipodi-0.dtd"
   xmlns:inkscape="http://www.inkscape.org/namespaces/inkscape"
   sodipodi:docname="workshop_bg.svg"
   inkscape:version="1.0 (4035a4fb49, 2020-05-01)"
   id="svg8"
   version="1.1"
   viewBox="0 0 211.66666 158.75"
   height="600"
   width="800">
  <defs
     id="defs2">
    <linearGradient
       inkscape:collect="always"
       x1="69.990997"
       x2="70.630997"
       gradientTransform="scale(1.7937,0.55749)"
       y1="336.26999"
       gradientUnits="userSpaceOnUse"
       y2="410.59"
       id="linearGradient6889">
      <stop
         offset="0"
         style="stop-color:#7e3b1c"
         id="stop6893" />
      <stop
         offset="1"
         style="stop-color:#512612"
         id="stop6895" />
    </linearGradient>
    <linearGradient
       inkscape:collect="always"
       x1="64.455002"
       x2="265.16"
       gradientTransform="scale(0.73118,1.3676)"
       y1="179.41"
       gradientUnits="userSpaceOnUse"
       y2="174.25999"
       id="linearGradient6918">
      <stop
         offset="0"
         style="stop-color:#66331c"
         id="stop5992" />
      <stop
         offset="1"
         style="stop-color:#964622"
         id="stop5994" />
    </linearGradient>
  </defs>
  <sodipodi:namedview
     inkscape:window-maximized="1"
     inkscape:window-y="-8"
     inkscape:window-x="1912"
     inkscape:window-height="1017"
     inkscape:window-width="1920"
     inkscape:guide-bbox="true"
     showguides="true"
     units="px"
     showgrid="false"
     inkscape:document-rotation="0"
     inkscape:current-layer="layer1"
     inkscape:document-units="px"
     inkscape:cy="231.85804"
     inkscape:cx="743.10282"
     inkscape:zoom="0.7"
     inkscape:pageshadow="2"
     inkscape:pageopacity="0.0"
     borderopacity="1.0"
     bordercolor="#666666"
     pagecolor="#ffffff"
     id="base">
    <sodipodi:guide
       inkscape:color="rgb(204,0,0)"
       inkscape:locked="false"
       inkscape:label="50%"
       id="guide1537"
       orientation="0,1"
       position="105.83333,79.374999" />
    <sodipodi:guide
       inkscape:color="rgb(204,0,0)"
       inkscape:locked="false"
       inkscape:label="50%"
       id="guide1541"
       orientation="-1,0"
       position="105.83333,79.375" />
    <sodipodi:guide
       inkscape:color="rgb(0,0,255)"
       inkscape:locked="false"
       inkscape:label=""
       id="guide1543"
       orientation="-1,0"
       position="70.555554,105.83333" />
    <sodipodi:guide
       inkscape:color="rgb(0,0,255)"
       inkscape:locked="false"
       inkscape:label=""
       id="guide1547"
       orientation="-1,0"
       position="141.11111,52.916666" />
    <sodipodi:guide
       inkscape:color="rgb(0,0,255)"
       inkscape:locked="false"
       inkscape:label=""
       id="guide1549"
       orientation="0,1"
       position="70.555554,105.83333" />
    <sodipodi:guide
       inkscape:color="rgb(0,0,255)"
       inkscape:locked="false"
       inkscape:label=""
       id="guide1551"
       orientation="0,1"
       position="141.11111,52.916666" />
  </sodipodi:namedview>
  <metadata
     id="metadata5">
    <rdf:RDF>
      <cc:Work
         rdf:about="">
        <dc:format>image/svg+xml</dc:format>
        <dc:type
           rdf:resource="http://purl.org/dc/dcmitype/StillImage" />
        <dc:title></dc:title>
      </cc:Work>
    </rdf:RDF>
  </metadata>
  <g
     id="layer1"
     inkscape:groupmode="layer"
     inkscape:label="Layer 1">
    <g
       id="g7678"
       transform="matrix(0.24111452,0,0,0.24111452,40.632093,25.971821)">
      <path
         id="path5174"
         inkscape:connector-curvature="0"
         sodipodi:nodetypes="ccccccccccccccc"
         style="fill:url(#linearGradient6918);fill-rule:evenodd;stroke:#000000;stroke-width:3"
         d="m 58.635,445.25 c 0,0 12.857,-110.71 14.285,-149.28 1.429,-38.57 5,-63.57 1.429,-64.29 C 70.777,230.97 56.492,232.4 42.92,210.25 29.349,188.11 11.492,120.97 8.634,100.25 5.7774,79.538 -4.937,25.253 15.063,18.11 c 20,-7.143 78.572,-15 116.43,-14.286 37.86,0.7144 97.86,-0.7142 106.43,22.857 8.57,23.572 -0.71,110.72 -10.71,137.14 -10,26.43 -25,59.29 -35.72,64.29 -10.54,4.92 -13.57,0 -15,5 -1.43,5 9.29,105 12.14,120.71 2.86,15.72 14.29,84.29 12.15,87.86 -2.15,3.57 -42.15,10.72 -69.29,10 -27.14,-0.71 -69.284,-1.43 -72.855,-6.43 z" />
      <path
         id="path5934"
         inkscape:connector-curvature="0"
         sodipodi:nodetypes="ccccccc"
         style="fill:#c4a75c;fill-rule:evenodd"
         d="m 5.0631,40.253 c 0,0 1.0714,-18.215 9.6429,-21.072 8.571,-2.857 53.929,-12.5 99.644,-13.214 45.71,-0.7143 95.36,0.4905 110,10.357 14.17,9.551 14.28,8.214 15,21.072 -7.93,-2.816 -60,-9.286 -134.29,-7.143 -74.283,2.143 -99.997,10 -99.997,10 z" />
      <path
         id="path5936"
         inkscape:connector-curvature="0"
         sodipodi:nodetypes="ccc"
         style="fill:none;stroke:#903000;stroke-width:7;stroke-linecap:round"
         d="m 9.3488,31.324 c 0,0 50.714,-13.928 115.36,-14.286 64.64,-0.357 110,10.358 110,10.358" />
      <path
         id="path5940"
         inkscape:connector-curvature="0"
         sodipodi:nodetypes="ccccccccccccccccccccc"
         style="fill:none;stroke:#000000;stroke-width:3;stroke-linecap:round;stroke-linejoin:round"
         d="M 113.63,143.47 101.13,35.25 c 0,0.003 -0.71,-9.283 -6.067,-8.569 -5.357,0.715 -6.071,8.572 -6.071,8.572 v 108.22 l -17.5,-106.07 c 0,-0.004 -1.429,-7.147 -5.715,-7.504 -4.285,-0.358 -5,6.071 -5,6.071 L 66.492,143.47 47.563,39.9 c 0,-0.004 -0.357,-7.504 -6.071,-7.147 -5.715,0.357 -3.215,8.571 -3.215,8.571 L 48.635,144.184 29.706,42.044 c 0,-0.002 -1.071,-6.43 -5,-6.787 -3.929,-0.357 -2.5,6.785 -2.5,6.785 L 32.92,144.902 15.42,42.752 c 0,0.003 0,-6.783 -3.928,-6.426 -3.9289,0.357 -3.2146,7.143 -3.2146,7.143 l 16.429,101.43" />
      <path
         id="path5942"
         inkscape:connector-curvature="0"
         sodipodi:nodetypes="ccccccccccccccccccccccccc"
         style="fill:none;stroke:#000000;stroke-width:3;stroke-linecap:round;stroke-linejoin:round"
         d="m 113.63,143.47 5.72,-110.72 c 0,0.003 -0.36,-6.783 5.36,-6.783 5.71,0 6.42,6.429 6.42,6.429 l 7.86,112.5 6.79,-111.79 c 0,0 0,-5.714 8.93,-5.357 8.92,0.357 8.92,5.357 8.92,5.357 l -0.35,111.79 15,-110 c 0,-0.004 -0.36,-6.79 5.71,-6.433 6.07,0.357 4.29,5.357 4.29,5.357 l -1.43,115 14.28,-114.28 c 0,-0.002 0,-4.287 4.29,-4.287 4.29,0 3.57,5 3.57,5 l -6.07,114.65 16.79,-111.79 c 0,0 -0.36,-5.714 3.57,-5.357 3.93,0.357 2.5,4.285 2.5,4.285 l -9.65,114.28 16.08,-111.07 c 0,0.003 0,-3.212 2.14,-3.212 2.14,0 2.14,3.572 2.14,3.572 l -10.36,111.79" />
      <path
         id="path5944"
         style="fill:none;stroke:#000000;stroke-width:3;stroke-linecap:round"
         inkscape:connector-curvature="0"
         d="m 11.849,36.324 c -2.8573,-5 0,-11.071 0,-11.071" />
      <path
         id="path5946"
         style="fill:none;stroke:#000000;stroke-width:3;stroke-linecap:round"
         inkscape:connector-curvature="0"
         d="m 24.706,35.61 c -3.571,-5 0.357,-13.572 0.357,-13.572" />
      <path
         id="path5948"
         style="fill:none;stroke:#000000;stroke-width:3;stroke-linecap:round"
         inkscape:connector-curvature="0"
         d="M 41.492,32.038 C 40.063,25.61 42.206,19.181 42.206,19.181" />
      <path
         id="path5952"
         inkscape:connector-curvature="0"
         sodipodi:nodetypes="cc"
         style="fill:none;stroke:#000000;stroke-width:3;stroke-linecap:round"
         d="m 64.706,28.824 c -0.714,-3.571 0.714,-12.5 0.714,-12.5" />
      <path
         id="path5954"
         inkscape:connector-curvature="0"
         sodipodi:nodetypes="cc"
         style="fill:none;stroke:#000000;stroke-width:3;stroke-linecap:round"
         d="M 95.063,26.681 C 95.777,22.038 95.42,13.11 95.42,13.11" />
      <path
         id="path5956"
         inkscape:connector-curvature="0"
         sodipodi:nodetypes="cc"
         style="fill:none;stroke:#000000;stroke-width:3;stroke-linecap:round"
         d="m 125.42,25.967 c 0.71,-4.286 -0.36,-14.643 -0.36,-14.643" />
      <path
         id="path5958"
         style="fill:none;stroke:#000000;stroke-width:3;stroke-linecap:round"
         inkscape:connector-curvature="0"
         d="m 155.42,27.113 c 0,0 1.43,-9.765 0.71,-14.434" />
      <path
         id="path5960"
         style="fill:none;stroke:#000000;stroke-width:3;stroke-linecap:round"
         inkscape:connector-curvature="0"
         d="m 183.99,28.467 c 1.79,-6.071 0,-13.929 0,-13.929" />
      <path
         id="path5966"
         style="fill:none;stroke:#000000;stroke-width:3;stroke-linecap:round"
         inkscape:connector-curvature="0"
         d="m 206.13,30.61 c 2.15,-7.143 0,-12.857 0,-12.857" />
      <path
         id="path5968"
         style="fill:none;stroke:#000000;stroke-width:3;stroke-linecap:round"
         inkscape:connector-curvature="0"
         d="m 223.99,33.467 c 3.57,-6.786 -0.36,-14.286 -0.36,-14.286" />
      <path
         id="path5970"
         style="fill:none;stroke:#000000;stroke-width:3;stroke-linecap:round"
         inkscape:connector-curvature="0"
         d="m 235.06,37.396 c 5.36,-8.215 -2.14,-15.715 -2.14,-15.715" />
      <path
         id="path5972"
         inkscape:connector-curvature="0"
         sodipodi:nodetypes="ccc"
         style="fill:none;stroke:#000000;stroke-width:3;stroke-linecap:round"
         d="m 19.706,147.04 c 0,0 72.5,-2.14 113.21,-1.07 40.71,1.07 97.5,7.85 97.5,7.85" />
      <path
         id="path5974"
         style="fill:none;stroke:#000000;stroke-width:3;stroke-linecap:round"
         inkscape:connector-curvature="0"
         d="m 28.277,174.18 c 0,0 63.215,-0.71 91.783,-0.36 28.57,0.36 99.65,4.29 99.65,4.29" />
      <path
         id="path6881"
         inkscape:connector-curvature="0"
         sodipodi:nodetypes="ccccc"
         style="fill:url(#linearGradient6889);fill-rule:evenodd"
         d="m 30.305,174.42 c 0,0 10.877,46.23 33.1,53.3 22.223,7.07 115.94,8.91 129.06,-2.2 13.14,-11.11 27.75,-47.06 27.75,-47.06 l -189.9,-4.04 z" />
      <path
         id="path5976"
         style="fill:none;stroke:#000000;stroke-width:3;stroke-linecap:round"
         inkscape:connector-curvature="0"
         d="m 39.349,200.97 c 0,0 45.714,1.43 83.931,2.85 38.21,1.43 83.93,2.15 83.93,2.15" />
      <path
         id="path5978"
         style="fill:none;stroke:#000000;stroke-width:3;stroke-linecap:round;stroke-linejoin:round"
         inkscape:connector-curvature="0"
         d="m 29.706,173.82 3.571,-27.5 13.929,25 2.143,-25 11.786,27.15 5.714,-28.57 12.857,28.57 10,-27.15 10.354,27.15 13.57,-28.93 11.43,28.93 14.65,-27.15 7.85,27.15 15.72,-26.43 4.64,27.5 19.29,-26.07 0.71,27.5 14.29,-25.72 -0.72,25.36 14.29,-24.29 -1.79,25.72 12.14,-24.29" />
      <path
         id="path5980"
         style="fill:none;stroke:#000000;stroke-width:3;stroke-linecap:round;stroke-linejoin:round"
         inkscape:connector-curvature="0"
         d="m 30.777,174.18 16.786,26.07 0.714,-26.78 12.143,27.85 1.786,-27.5 11.429,27.86 7.142,-27.14 10,28.21 9.643,-29.64 10.71,30 15.36,-29.29 8.57,29.29 13.57,-28.21 3.58,28.57 16.07,-27.15 1.07,28.22 18.57,-27.86 -2.86,29.29 16.79,-28.57 -3.93,27.14 16.07,-26.07 -5,25" />
      <path
         id="path6113"
         inkscape:connector-curvature="0"
         sodipodi:nodetypes="ccc"
         style="fill:none;stroke:#502407;stroke-width:3;stroke-linecap:round"
         d="m 142.43,242.1 c -26.26,58.59 16.16,73.74 6.06,127.28 -10.1,53.53 5.05,63.64 5.05,63.64" />
      <path
         id="path6873"
         style="fill:none;stroke:#000000;stroke-width:3;stroke-linecap:round"
         inkscape:connector-curvature="0"
         d="m 149.5,252.2 c -10.1,33.33 2.02,51.52 2.02,51.52" />
      <path
         id="path6875"
         inkscape:connector-curvature="0"
         sodipodi:nodetypes="cc"
         style="fill:none;stroke:#000000;stroke-width:3;stroke-linecap:round"
         d="m 136.39,378.47 c 12.12,-36.37 -6.06,-61.62 -6.06,-61.62" />
      <path
         id="path6877"
         style="fill:none;stroke:#000000;stroke-width:3;stroke-linecap:round"
         inkscape:connector-curvature="0"
         d="m 157.58,380.49 c -9.09,22.22 2.02,41.41 2.02,41.41" />
    </g>
    <g
       transform="translate(0.7683101,-0.13363476)"
       id="g1563">
      <g
         transform="matrix(0.7768259,0,0,0.7768259,-346.04142,-305.81338)"
         id="g3638">
        <path
           d="m 637.5,567.72 c 3.3067,-15.692 6.8651,-32.396 10.642,-47.983 2.337,-9.6454 4.4793,-19.346 6.6511,-29.025 1.1906,-5.306 1.6326,-10.66 2.0186,-16.075 0.42611,-5.9778 0.53093,-12.13 -0.36514,-18.03 -1.5786,-10.394 -2.9163,-20.842 -5.0267,-31.16 -0.21378,-2.0162 -3.4234,-0.44801 -4.9096,-0.94173 h -46.153 c -4.1787,14.03 -5.8311,28.526 -5.3908,43.127 0.34867,6.8891 0.29743,13.881 1.4991,20.653 1.5058,8.4863 4.1648,16.739 6.2956,25.099 4.6305,18.168 8.7152,36.407 14.203,54.335 6.9009,1.4486 13.645,0.84256 20.536,0 z"
           fill="#7a2e11"
           id="path2830" />
        <path
           d="m 608.59797,424.53781 c 0,0 -1.5398,9.067 -2.0203,13.637 -0.5644,5.3684 -1.0102,16.162 -1.0102,16.162 -0.43061,6.8898 -0.48965,13.809 -0.25254,20.708 0.10733,3.123 0.75762,9.3439 0.75762,9.3439 0.56042,6.9118 2.3662,13.668 3.7881,20.456 1.6663,7.954 5.5558,23.739 5.5558,23.739 2.4242,10.358 4.6191,20.774 7.3236,31.062 0.69082,2.628 2.2728,7.8287 2.2728,7.8287 l 4.9245,0.0631 2.7779,-0.44194 5.6821,-28.663 c 1.4222,-7.1743 3.004,-14.316 4.5457,-21.466 1.4897,-6.9083 4.5457,-20.708 4.5457,-20.708 0.52092,-2.3731 1.2348,-4.7007 1.7678,-7.0711 0.56501,-2.5126 1.5152,-7.5761 1.5152,-7.5761 0.69651,-3.4826 0.96817,-7.0553 1.0102,-10.607 0.0419,-3.5443 -0.37149,-7.0832 -0.75762,-10.607 0,0 -1.2386,-12.303 -2.0203,-18.435 -0.59165,-4.641 -2.0203,-13.89 -2.0203,-13.89 l -0.4735,-3.5671 -37.912,0.0316 v 10e-6 z"
           fill="#a55a2c"
           id="path3612" />
        <path
           d="m 618.97,425.82 -1.7678,22.476 c -0.62044,7.8885 -0.25987,15.83 0,23.739 0.21056,6.408 0.68869,12.807 1.2627,19.193 l 2.0203,22.476 3.5355,34.093 2.7779,21.213 1.894,-0.25254 c 0,0 0.73013,-9.4244 1.0102,-14.142 0.3695,-6.2253 0.59549,-12.458 0.88389,-18.688 l 0.63134,-13.637 c 0.24359,-5.2616 0.51253,-10.522 0.75762,-15.784 0.30387,-6.5235 0.88388,-19.572 0.88388,-19.572 0.0684,-1.515 0.12997,-3.0303 0.1894,-4.5457 0.11223,-2.8618 0.31568,-5.7223 0.31568,-8.5863 v -16.92 c 0,0 -0.16981,-4.714 -0.25254,-7.0711 -0.12852,-3.6617 -0.27904,-7.3228 -0.37881,-10.985 -0.0573,-2.1041 -0.088,-4.2089 -0.12627,-6.3134 l -0.12627,-6.9448 -11.49,-0.25254 -2.0203,0.50508 z"
           fill="#8b3513"
           id="path3636" />
        <path
           d="m 602.68,513.61 c 8.2165,0.27341 16.427,0.83764 24.643,0.98215 7.734,0.13603 14.885,-0.868 22.441,-2.4197 l -1.0498,5.1939 c -7.096,1.7932 -14.198,1.7815 -21.481,2.1365 -4.0133,0.19564 -8.2439,-0.0874 -12.054,-0.17857 -3.8096,-0.0912 -10.804,-0.35714 -10.804,-0.35714 l -1.6964,-5.3572 z"
           id="path2832" />
        <path
           d="m 595.45,447.09 c 0,0 20.298,0.27486 30.446,0.17857 9.5859,-0.091 28.75,-0.71429 28.75,-0.71429 l 0.80357,4.9107 c 0,0 -19.879,0.59522 -29.821,0.71428 -10.237,0.12258 -30.714,0 -30.714,0 l 0.53572,-5.0893 z"
           id="path2834" />
        <path
           d="m 637.5,567.72 c 3.3067,-15.692 6.8651,-32.396 10.642,-47.983 2.337,-9.6454 4.4793,-19.346 6.6511,-29.025 1.1906,-5.306 1.454,-10.57 1.84,-15.986 0.42611,-5.9778 0.7095,-12.219 -0.18657,-18.119 -1.5786,-10.394 -2.9163,-20.842 -5.0267,-31.16 -0.21378,-2.0162 -3.4234,-0.44801 -4.9096,-0.94173 h -46.153 c -4.1787,14.03 -5.8311,28.526 -5.3908,43.127 0.34867,6.8891 0.29743,13.881 1.4991,20.653 1.5058,8.4863 4.1648,16.739 6.2956,25.099 4.6305,18.168 8.7152,36.407 14.203,54.335 6.9009,1.4486 13.645,0.84256 20.536,0 z"
           fill="none"
           stroke-width="1px"
           stroke="#000000"
           id="path2830-1" />
        <path
           d="m 601.63,425.41 c -0.99866,0.0597 -2.0947,0.16104 -2.996,-0.0894 -0.66897,-0.1859 -0.68185,-0.89143 -0.26468,-1.5681 0.56267,-0.91276 1.0284,-2.0151 1.8283,-2.6781 0.64328,-0.53329 1.3503,-0.87296 2.2562,-0.85987 15.597,0.22528 31.284,-0.25212 46.855,0.0879 1.0153,0.0222 2.0556,0.33908 2.8082,1.1834 0.57776,0.64816 1.2728,1.3538 1.4717,2.1321 0.16031,0.62733 -0.50485,1.69 -1.1409,1.7028 -16.864,0.3376 -33.878,0.0597 -50.818,0.0894 v -3e-5 z"
           fill="#ccae8c"
           stroke-width="0.9809px"
           stroke="#000000"
           id="path2836" />
      </g>
    </g>
  </g>
</svg>
