<?xml version="1.0" encoding="UTF-8" standalone="no"?>
<svg
   xmlns:dc="http://purl.org/dc/elements/1.1/"
   xmlns:cc="http://creativecommons.org/ns#"
   xmlns:rdf="http://www.w3.org/1999/02/22-rdf-syntax-ns#"
   xmlns:svg="http://www.w3.org/2000/svg"
   xmlns="http://www.w3.org/2000/svg"
   xmlns:sodipodi="http://sodipodi.sourceforge.net/DTD/sodipodi-0.dtd"
   xmlns:inkscape="http://www.inkscape.org/namespaces/inkscape"
   version="1.1"
   id="svg2"
   width="725"
   height="495"
   viewBox="0 0 725 495"
   sodipodi:docname="bob-logo-outline-lg-colour.svg"
   inkscape:version="1.0 (4035a4fb49, 2020-05-01)">
  <metadata
     id="metadata8">
    <rdf:RDF>
      <cc:Work
         rdf:about="">
        <dc:format>image/svg+xml</dc:format>
        <dc:type
           rdf:resource="http://purl.org/dc/dcmitype/StillImage" />
        <dc:title></dc:title>
      </cc:Work>
    </rdf:RDF>
  </metadata>
  <defs
     id="defs6" />
  <sodipodi:namedview
     inkscape:pagecheckerboard="true"
     inkscape:document-rotation="0"
     pagecolor="#ffffff"
     bordercolor="#666666"
     borderopacity="1"
     objecttolerance="10"
     gridtolerance="10"
     guidetolerance="10"
     inkscape:pageopacity="0"
     inkscape:pageshadow="2"
     inkscape:window-width="1920"
     inkscape:window-height="1017"
     id="namedview4"
     showgrid="false"
     inkscape:zoom="0.51643178"
     inkscape:cx="995.19412"
     inkscape:cy="527.35496"
     inkscape:window-x="-8"
     inkscape:window-y="-8"
     inkscape:window-maximized="1"
     inkscape:current-layer="g10" />
  <g
     inkscape:groupmode="layer"
     inkscape:label="Image"
     id="g10">
    <path
       id="path4203"
       d="M 11.654988,483.17126 10,481.34252 V 247.32625 13.309975 L 11.865172,11.622018 13.730344,9.9340605 97.115172,10.21703 180.5,10.5 l 9.5,3.309672 9.5,3.309671 6.11088,3.411471 6.11089,3.411471 7.2273,5.654976 7.2273,5.654976 5.83875,7.347442 5.83874,7.347442 3.82307,7.01975 3.82307,7.01975 1.14301,0.0067 1.14301,0.0067 0.63761,-1.661568 0.6376,-1.661567 4.60737,-6.930468 4.60736,-6.930468 5.39521,-5.827467 5.3952,-5.827466 7.21682,-5.524724 7.21681,-5.524724 10.5,-4.94068 10.5,-4.94068 7,-1.865094 7,-1.865094 h 44.5 44.5 l 8,2.295484 8,2.295484 9,4.376244 9,4.376245 5.5,4.100385 5.5,4.100386 6.34635,6.227886 6.34634,6.227886 5.90366,8.925625 L 477,62.35125 V 63.175625 64 h 1.4856 1.48561 l 3.14256,-6.25 3.14255,-6.25 6.39672,-8.212351 6.39672,-8.21235 7.11424,-5.566507 7.11423,-5.566507 6.11089,-3.411471 L 525.5,17.119343 535,13.809672 544.5,10.5 627.88483,10.21703 711.26966,9.9340605 713.13483,11.622018 715,13.309975 V 247.5 481.69002 l -1.82874,1.65499 L 711.34252,485 638.92126,484.991 566.5,484.982 l -11,-0.97969 -11,-0.97969 -7.40961,-2.0595 -7.40962,-2.05949 -8.205,-3.91608 -8.20501,-3.91609 -7.88538,-5.86547 -7.88538,-5.86548 -6.1257,-6.5744 -6.12569,-6.57441 -3.87431,-6.07554 -3.8743,-6.07554 -1.01211,-0.0208 -1.01212,-0.0208 -5.15147,7.75 -5.15147,7.75 -5.30513,5.38205 -5.30513,5.38205 -6.53128,4.95716 -6.53129,4.95717 -9,4.36143 -9,4.36144 -7.5,2.0611 -7.5,2.06111 -11,0.97969 -11,0.97969 -24.5,-0.0251 -24.5,-0.0251 -10.29994,-0.9286 -10.29993,-0.92859 -6.20007,-1.66501 -6.20006,-1.665 -10.5,-4.9285 -10.5,-4.9285 -7.21681,-5.52472 -7.21682,-5.52473 -5.4506,-5.8873 -5.45061,-5.8873 -4.29467,-6.5322 -4.29467,-6.5322 -1.03791,0.048 -1.03791,0.048 -3.5,5.57044 -3.5,5.57044 -6.5,7.06243 -6.5,7.06242 -7.88538,5.85526 -7.88538,5.85526 -8.20501,3.91609 -8.205,3.91608 -7.40962,2.05949 -7.40961,2.0595 -11,0.97969 -11,0.97969 -72.595012,0.009 L 13.309975,485 Z M 181,463.1531 l 7.5,-2.26533 7,-3.45237 7,-3.45237 6.86431,-5.15676 6.86431,-5.15677 5.46428,-6.58475 5.46428,-6.58475 3.92672,-7 3.92672,-7 2.74469,-8 2.74469,-8 v -62 -62 l -2.34706,-7.47478 -2.34705,-7.47477 -2.54138,-5.02523 -2.54138,-5.02522 -4.03424,-5.9494 -4.03424,-5.94941 -6.36696,-6.27362 -6.36696,-6.27362 -7.99491,-4.92011 -7.99492,-4.92012 -8.21545,-2.55174 -8.21545,-2.55174 -2.75,-0.57417 -2.75,-0.57417 v -0.86966 -0.86966 l 3.75,-0.6967 3.75,-0.69669 7.14085,-2.76524 7.14085,-2.76523 6.99591,-4.65088 6.99591,-4.65087 6.05043,-6.46792 6.05042,-6.46793 4.01172,-6.78056 4.01172,-6.78056 2.98155,-9 2.98155,-9 1.06955,-7.82236 L 236,132.85528 V 119 105.14472 L 234.93046,97.322359 233.86091,89.5 l -2.94509,-8.850594 -2.9451,-8.850594 -4.0459,-6.927535 -4.0459,-6.927536 -6.09743,-6.51817 -6.09742,-6.51817 -7.36495,-4.835011 -7.36494,-4.835012 -9.72709,-3.368689 L 173.5,28.5 H 101 28.5 l -0.256361,217.5 -0.256362,217.5 0.493666,1.2987 0.493666,1.29871 72.262691,-0.33949 72.2627,-0.33948 z M 122.65499,376.17126 121,374.34252 v -73.51627 -73.51627 l 1.82874,-1.65499 1.82874,-1.65499 4.42126,0.022 4.42126,0.022 4,1.92319 4,1.92318 1.62342,1.32254 1.62342,1.32254 2.12284,3.48231 2.12284,3.48232 v 63.5 63.5 l -2.12284,3.48232 -2.12284,3.48231 -1.62342,1.32254 -1.62342,1.32254 -4,1.92318 -4,1.92319 -4.59501,0.022 -4.59501,0.022 -1.65499,-1.82874 z m 0,-190 L 121,184.34252 v -38.01627 -38.01627 l 1.82874,-1.65499 1.82874,-1.65499 4.42126,0.009 4.42126,0.009 5.21355,2.99002 5.21355,2.99003 2.53645,3.73272 2.53645,3.73273 -0.004,28.01786 -0.004,28.01787 -2.12284,3.48232 -2.12284,3.48231 -1.62342,1.32254 -1.62342,1.32254 -4,1.92318 -4,1.92319 -4.59501,0.022 -4.59501,0.022 -1.65499,-1.82874 z M 399.5,464.96331 l 7,-0.99707 7.544,-2.49664 7.54401,-2.49664 7.94873,-4.653 7.94873,-4.65301 7.50727,-7.65149 7.50726,-7.65148 4.70811,-7.93199 4.70812,-7.93199 3.29188,-9.5 3.29189,-9.5 V 247 94.5 L 465.20811,85 461.91623,75.5 457.20811,67.56801 452.5,59.63602 445,52.003458 l -7.5,-7.632563 -7.37244,-4.372151 -7.37243,-4.372151 -7.82506,-2.769066 -7.82505,-2.769066 -8.47385,-1.127659 -8.47385,-1.127659 -32.82866,0.434251 -32.82866,0.434251 -6.5,1.679621 -6.5,1.67962 -10,4.924713 -10,4.924713 -6.22894,5.354723 -6.22895,5.354723 -4.81271,5.996754 -4.81271,5.996753 -2.75794,4.706056 -2.75793,4.706056 -2.54142,6.737311 L 258.81797,87.5 257.40899,94.837968 256,102.17594 V 247 391.82406 l 1.40899,7.33797 1.40898,7.33797 2.54143,6.73731 2.54142,6.73731 2.75793,4.70606 2.75794,4.70605 4.81271,5.99676 4.81271,5.99675 6.22895,5.30994 6.22894,5.30995 8.5,4.37629 8.5,4.3763 3.8602,1.23756 3.86019,1.23756 7.13981,1.29583 7.1398,1.29583 31,0.0704 31,0.0704 7,-0.99707 z M 349.65499,377.17126 348,375.34252 V 241.82625 108.30998 l 1.82874,-1.65499 L 351.65748,105 h 4.47492 4.47491 l 5.22431,2.60338 5.2243,2.60338 2.72204,3.5686 2.72204,3.5686 0.26163,123.35519 0.26163,123.35518 -1.61554,3.12411 -1.61554,3.12411 -3.14609,2.88024 -3.14609,2.88023 -4.9315,1.46849 L 357.637,379 h -3.16351 -3.16351 z M 696.5,247 V 28.5 l -67,-0.29245 -67,-0.29245 -7.9521,1.126714 -7.9521,1.126715 -7.65549,2.793909 -7.65549,2.793909 -5.73593,3.669226 -5.73592,3.669227 -5.03151,4.7026 -5.0315,4.7026 -4.3477,6.088754 -4.34769,6.088755 -3.51139,7.411245 -3.51138,7.411246 -2.08854,8 -2.08854,8 -0.56637,16.51261 -0.56637,16.51262 1.13409,9.61613 1.1341,9.61613 2.11445,6.87125 2.11445,6.87126 3.64047,7.3898 3.64046,7.3898 5.53488,6.59456 5.53488,6.59456 5.85088,4.71357 5.85088,4.71357 7.11424,3.51458 7.11424,3.51457 6.75,1.76985 6.75,1.76984 v 0.7486 0.7486 l -2.75,0.61933 -2.75,0.61933 -4,0.99923 -4,0.99923 -6,2.5163 -6,2.51629 -6.69287,4.32707 -6.69288,4.32707 -6.11527,6.11527 -6.11528,6.11528 -4.7997,7.35241 -4.79971,7.35241 -2.67579,6.684 -2.67579,6.68401 -1.46635,6.97081 -1.46636,6.97081 0.007,56.18463 0.007,56.18462 2.03332,8.5 2.03331,8.5 3.90487,8.07771 3.90486,8.07771 5.42741,6.92229 5.42742,6.92229 4.89595,4.11437 4.89595,4.11436 5.53304,3.53944 5.53305,3.53945 5.9484,2.49668 5.94841,2.49668 4.5,1.22274 4.5,1.22275 5,0.75542 5,0.75542 69,-0.12866 69,-0.12865 V 247 Z m -109,129.03289 -4,-1.92318 -1.62342,-1.32254 -1.62342,-1.32254 -2.12284,-3.48231 L 576.00748,364.5 V 301 237.5 l 2.12284,-3.48232 2.12284,-3.48231 1.62342,-1.32254 1.62342,-1.32254 4,-1.92318 4,-1.92319 4.59501,-0.022 4.59501,-0.022 1.65499,1.82874 L 604,227.6574 v 73.51627 73.51627 l -1.82874,1.65499 -1.82874,1.65499 -4.42126,-0.022 -4.42126,-0.022 -4,-1.92319 z m 0,-190 -4,-1.92318 -1.62342,-1.32254 -1.62342,-1.32254 -2.12284,-3.48231 -2.12284,-3.48232 -0.004,-28.01787 -0.004,-28.01786 2.53645,-3.73273 2.53645,-3.73272 5.21355,-2.99003 5.21355,-2.99002 4.59501,-0.009 4.59501,-0.009 1.65499,1.82874 1.65499,1.82874 v 38.01627 38.01627 l -1.82874,1.65499 -1.82874,1.65499 -4.42126,-0.022 -4.42126,-0.022 -4,-1.92319 z"
       style="fill:#0b0b0b" />
    <path
       id="path4215"
       d="m 28.393423,28.19539 c -0.372438,96.15447 -0.378078,192.44864 -0.881541,288.65623 -0.04703,48.73142 -0.589385,97.47877 0.08544,146.20124 1.093123,6.66748 10.42286,2.01643 15.188356,3.39431 43.074196,-0.0291 86.157022,0.058 129.225832,-0.0435 22.5916,-5.42813 44.21322,-17.97806 56.6481,-38.09192 5.89091,-9.47832 10.5734,-20.09364 12.59772,-31.00073 -0.0355,-40.20394 0.0706,-80.41952 -0.0529,-120.6162 -6.37183,-23.24787 -20.31994,-45.4963 -42.22882,-56.80114 -8.115,-4.84088 -17.76198,-6.34903 -26.22469,-10.01288 6.34245,-1.80243 13.02618,-3.43976 18.99679,-6.6241 27.01646,-12.80889 43.80822,-42.08583 44.40609,-71.58037 0.97244,-21.16476 0.49976,-43.357661 -9.59738,-62.552201 -9.55926,-20.119607 -28.86009,-34.044946 -49.95575,-40.094365 -9.52612,-2.759131 -19.90469,-0.499762 -29.7732,-1.233381 -39.21137,0 -78.422745,0 -117.63412,0 z m 100.165247,77.01019 c 6.65419,0.55703 13.82772,4.12966 17.74496,9.69505 3.52257,12.48522 1.23802,25.80011 1.94393,38.63274 -0.39378,7.46594 0.77835,15.43933 -0.56787,22.59662 -4.72444,8.18859 -15.14028,13.75195 -24.3042,10.51634 -3.36323,-7.0992 -1.46568,-15.57361 -2.15675,-23.19852 -0.0336,-18.16409 -0.008,-36.32829 -0.016,-54.49242 1.91665,-2.14757 4.34615,-3.90326 7.35592,-3.74981 z m -0.14939,119.15258 c 8.4943,0.0827 17.94932,5.81111 19.83817,14.18047 -0.31529,41.60505 0.65444,83.31219 -0.58988,124.85388 -0.91472,10.4198 -13.10141,14.51061 -22.14716,14.01784 -4.23779,-0.28264 -3.04241,-6.49651 -3.76015,-9.36572 -1.24052,-46.75943 -0.21128,-93.662 -0.54751,-140.47558 1.93043,-1.98842 4.35307,-3.30814 7.20653,-3.21089 z"
       style="fill:#c7b3f5;fill-opacity:1;stroke-width:0.968182" />
    <path
       id="path4217"
       d="m 600.36103,27.281134 c -21.44361,0.950904 -44.02031,-2.1224 -64.37466,6.317766 -23.52735,9.425841 -39.72093,32.423399 -45.14906,56.640543 -2.77915,19.418267 -3.26128,39.481467 0.38955,58.817057 5.7137,28.39074 28.35161,52.41845 56.47792,59.48269 3.54939,0.71045 6.33728,2.25081 0.96994,2.87033 -29.03064,5.98773 -53.28561,29.07717 -62.1148,57.15886 -4.1862,18.54157 -2.12449,37.81523 -2.7703,56.6689 0.47061,24.97924 -1.07342,50.08778 1.24121,74.98494 5.01704,24.91405 21.97885,47.4175 45.31096,57.91885 10.52288,5.61002 22.36818,7.86936 34.23601,7.32623 43.7513,0.63351 87.51,0.31555 131.26451,0.46839 2.3384,-4.75038 0.33489,-11.82496 1.00221,-17.45942 0,-139.63694 0,-279.27388 0,-418.910832 -4.74048,-2.388598 -11.80991,-0.565363 -17.43519,-1.336179 -26.34558,-0.572371 -52.69557,-1.011058 -79.0483,-0.948125 z m -1.82669,78.473806 c 5.9031,-0.70989 4.53939,7.19397 5.10554,10.80425 0.10393,22.4049 0.81628,45.21708 -0.49723,67.47479 -1.52883,4.38463 -7.82438,2.77973 -11.46691,2.60766 -9.04054,-1.21965 -17.08371,-9.7491 -14.88579,-19.18778 0,-16.44649 0,-32.89298 0,-49.33947 4.16686,-7.9018 12.76993,-12.98023 21.74439,-12.35945 z m 1.19888,118.95403 c 4.15084,0.85472 2.87434,6.88065 3.62312,9.96547 1.11199,46.4211 0.16785,92.97963 0.47842,139.45225 -5.90161,7.14082 -17.11944,2.53112 -22.63316,-2.81189 -4.75341,-3.91294 -4.90282,-9.68724 -4.41165,-15.4304 0,-39.72698 0,-79.45396 0,-119.18094 4.28064,-8.85942 13.44601,-12.66452 22.94327,-11.99449 z"
       style="fill:#c7b3f5;fill-opacity:1;stroke-width:0.968182" />
    <path
       id="path4219"
       d="m 378.30566,27.373381 c -19.06205,0.501052 -38.23418,-0.36274 -57.21158,1.75832 -11.13243,2.029666 -21.19535,7.817906 -30.77527,13.597226 -20.96677,14.717068 -35.03116,39.773896 -34.58991,65.628633 -0.66203,78.9555 -0.22547,157.91777 -0.29435,236.87589 0.33421,17.46446 -0.53118,35.01078 1.04563,52.42066 4.20462,25.6684 21.3064,48.65028 44.7108,60.01152 14.30695,8.12737 31.12261,9.32243 47.22317,8.96472 18.30395,-0.30303 36.78811,1.12404 54.95593,-1.6346 17.13137,-3.67001 33.79726,-12.052 45.00548,-25.80713 10.38111,-11.15253 16.76796,-25.45402 20.55911,-40.01152 -0.0357,-101.77249 0.0713,-203.55668 -0.0535,-305.321852 -4.31882,-14.335097 -10.39251,-28.495599 -20.8859,-39.453218 -10.7579,-13.060775 -26.52615,-21.253313 -42.8455,-24.970813 -8.81266,-1.981491 -17.85292,-2.13563 -26.84413,-2.057836 z m -21.95292,78.590879 c 7.91161,-0.13039 15.37997,4.52113 19.31477,11.31742 0.26134,82.16456 0.52252,164.32913 0.78356,246.49369 -2.94505,6.90429 -8.96375,12.97474 -16.7622,13.95825 -3.86687,1.20511 -9.81013,1.50224 -11.24522,-3.16765 0,-88.70043 0,-177.40086 0,-266.10129 2.19487,-2.18928 4.95337,-2.69909 7.90909,-2.50042 z"
       style="fill:#e1f5b3;fill-opacity:1;stroke-width:0.684608" />
  </g>
</svg>
